<?xml version="1.0" encoding="UTF-8"?><svg id="_レイヤー_2" xmlns="http://www.w3.org/2000/svg" width="214.88" height="33.86" viewBox="0 0 214.88 33.86"><defs><style>.cls-1{fill:#fff;}</style></defs><g id="_文字"><g><path class="cls-1" d="M139.17,21.29c2.21,.18,4.42,.6,5.37-2.47,.86,.98,1.59,1.67,2.13,2.49,.47,.7,.04,1.09-.73,1.1-1.81,0-3.62,0-5.43,0-.42,0-.85,0-1.36,0v5.19c2.86-.51,5.65-1.02,8.47-1.53,.46,.87,.07,1.23-.71,1.41-4.88,1.18-9.77,2.35-14.64,3.58-.44,.11-.8,.56-1.18,.87-.22,.18-.42,.58-.61,.57-.24-.02-.56-.31-.67-.56-.41-.93-.74-1.88-1.16-2.98,2.77-.36,5.36-.7,8-1.04v-5.37c-2.34-.13-4.66-.26-6.98-.42-.09,0-.15-.41-.26-.74h7.21v-5.17h-3.78c-.04,.74-.08,1.39-.13,2.16h-2.04V1.32c.1,0,.24-.07,.32-.02,1.91,1.24,4.06,.97,6.17,.97,1.22,0,2.45-.09,3.66,.02,1.54,.14,2.8-.13,3.52-1.9,.81,.76,1.53,1.35,2.11,2.06,.17,.21,.03,.98-.2,1.12-.66,.4-.73,.93-.73,1.59,.02,3.7,0,7.39,0,11.09,0,.47,0,.93,0,1.5h-2.14c-.05-.46-.1-.94-.16-1.52h-4.06v5.07Zm-.04-6.3h4.09v-5.31h-4.09v5.31Zm-2.43-5.32h-3.84v5.3h3.84v-5.3Zm6.5-1.29V3.48h-4.05v4.91h4.05Zm-10.37,.06c1.18,0,2.24,.03,3.29-.02,.22-.01,.6-.32,.6-.5,.05-1.48,.03-2.95,.03-4.45h-3.92v4.97Z"/><path class="cls-1" d="M180.95,21.41v-3.67c1.15,.2,2.15,.33,3.13,.56,.25,.06,.6,.39,.6,.59,0,.22-.32,.56-.57,.64-.98,.29-.99,.94-.75,1.84,3.48,0,6.98,.02,10.47-.03,.31,0,.67-.33,.92-.59,.51-.53,.96-1.12,1.62-1.91,.7,.78,1.34,1.45,1.92,2.18,.19,.23,.38,.66,.28,.88-.1,.23-.53,.42-.83,.44-1.18,.05-2.36,.02-3.54,.02-3.22,0-6.45,0-10.04,0,4.69,3.65,9.72,5.89,15.19,7.47-.64,.84-1.19,1.57-1.84,2.42-5.31-1.89-9.96-4.92-14.23-9.04v10.46c-.34,.08-.55,.16-.78,.17-1.58,.08-1.58,.08-1.59-1.48,0-2.55,0-5.11,0-7.95-.51,.4-.83,.64-1.14,.9-3.96,3.35-8.46,5.69-13.39,7.24-.61,.19-1.15,.38-1.39-.62,5.34-2.2,10.34-4.99,14.53-9.57-.73,0-1.18,0-1.63,0-3.58,0-7.16,.01-10.74-.02-.41,0-.83-.31-1.24-.48,.04-.15,.08-.29,.13-.44h14.89Z"/><path class="cls-1" d="M42.49,17.93c3.17,.9,5.69,2.26,7.65,4.45,.73,.82,1.32,1.87,1.65,2.91,.17,.55-.15,1.51-.59,1.94-.64,.63-1.51,.28-2.11-.31-.47-.46-.84-1.03-1.21-1.58-.99-1.46-1.85-3.03-2.96-4.38-.75-.91-1.85-1.52-2.66-2.17-2.41,2.2-4.57,4.31-6.88,6.25-2.42,2.04-5.21,3.49-8.2,4.55-.5,.18-1.06,.17-1.59,.24-.05-.15-.11-.3-.16-.45,.42-.28,.82-.62,1.27-.84,8.09-3.92,13.8-10.25,18.08-17.99,.35-.63,.31-1.46,.46-2.2-.71,.02-1.43-.03-2.13,.08-1.86,.3-3.69,.77-5.56,.96-1.61,.16-3.18-.22-4.18-1.64-.29-.42-.37-1.25-.14-1.68,.15-.28,1.16-.44,1.54-.22,2.85,1.65,5.78,1.12,8.72,.48,.95-.21,1.89-.53,2.81-.87,1.04-.38,1.84-.12,2.51,.71,1.14,1.4,.96,3.47-.2,4.73-2.03,2.22-3.96,4.54-6.09,7.01Z"/><path class="cls-1" d="M2.99,30.12c.6-.47,1.18-.98,1.81-1.42,5.58-3.85,7.24-9.38,6.86-15.83-.13-2.23-.63-4.24-2.15-5.96-.43-.49-.73-.61-1.35-.54-1.6,.18-3.21,.32-4.81,.35-1.43,.03-2.63-.56-3.25-1.92-.16-.36-.11-1.03,.13-1.27,.22-.22,.99-.25,1.24-.04,1.95,1.61,4.16,1.33,6.41,1.09,4.61-.49,9.22-.96,13.84-1.33,1.01-.08,2.13,.07,3.05,.45,1.07,.45,1.11,1.3,.2,2.01-2.89,2.26-5.88,4.37-9.57,5.13-.89,.18-1.19,.57-1.17,1.5,.06,2.77-.43,5.46-1.3,8.1-1.51,4.55-4.59,7.69-8.76,9.86-.3,.16-.69,.13-1.04,.19-.05-.12-.09-.25-.14-.37ZM12.14,5.88c1.54,1.01,2.16,2.39,2.09,4.31,2.32-1.32,4.57-2.36,5.75-4.68-.05-.15-.09-.29-.14-.44-2.57,.27-5.13,.54-7.7,.81Z"/><path class="cls-1" d="M113.7,20.24c.39,2.99,.78,5.98,1.16,8.97,.06,.5,.23,1.04,.13,1.51-.12,.56-.35,1.35-.76,1.54-.44,.2-1.26-.01-1.71-.33-1.32-.94-1.53-2.4-1.44-3.91,.42-6.43,.87-12.85,1.26-19.28,.06-1.09,0-2.23-.29-3.27-.24-.86-.94-1.58-1.36-2.4-.21-.41-.43-.97-.31-1.36,.08-.24,.79-.42,1.21-.39,2.04,.15,2.95,1.44,2.77,3.52-.21,2.35-.23,4.71-.37,7.06-.06,.96,.38,1.19,1.26,1.23,3.21,.12,5.97,1.35,8.12,3.74,.58,.65,.99,1.5,1.29,2.33,.26,.74,.08,1.66-.76,1.86-.61,.14-1.54-.03-1.98-.44-.73-.67-1.2-1.63-1.74-2.5-1.13-1.84-2.54-3.3-4.72-3.82-1.23-.3-1.42-.17-1.44,1.07-.03,1.61,0,3.22,0,4.83-.1,.01-.2,.03-.3,.04Z"/><path class="cls-1" d="M146.29,30.07c1.63,.1,3.26,.24,4.9,.3,1.48,.06,1.79-.27,1.79-1.78,0-4.36,0-8.72,0-13.15-2.29-.1-4.5-.19-6.72-.33-.11,0-.19-.46-.33-.83,2.74,0,5.37,0,8,0,.98,0,1.97-.02,2.95,0,1.65,.03,3.38,.3,4.2-1.99,.83,.99,1.52,1.73,2.07,2.56,.14,.21-.11,.78-.32,1.09-.36,.52-.92,.9-1.25,1.43-1.04,1.71-1.99,3.47-3.03,5.18-.15,.24-.59,.29-.9,.43-.05-.36-.24-.77-.13-1.07,.77-2.12,1.6-4.22,2.49-6.51h-4.63c-.03,.47-.08,.92-.08,1.38,0,4.44,0,8.89,0,13.33,0,2.24-1.16,3.41-3.4,3.43-.24,0-.65-.11-.69-.26-.42-1.43-1.64-1.55-2.79-1.78-.5-.1-1-.2-1.51-.27-.69-.1-.97-.41-.63-1.19Z"/><path class="cls-1" d="M54.49,31.45c.36-.16,.72-.34,1.09-.48,3.86-1.38,7.42-3.21,10.03-6.52,2.52-3.21,3.39-6.96,3.52-10.91,.08-2.55-.04-5.11-.26-7.65-.07-.8-.78-1.54-1.18-2.32-.21-.42-.38-.86-.57-1.3,.45-.17,.98-.58,1.32-.46,1.15,.42,2.27,.97,3.31,1.61,.31,.19,.47,.83,.47,1.26,.03,2.39-.05,4.78-.03,7.17,.04,5.23-1.38,9.93-5.03,13.8-3.15,3.35-7.14,5.19-11.56,6.17-.33,.07-.69,0-1.04,0-.03-.13-.05-.26-.08-.39Z"/><path class="cls-1" d="M196.32,1.52c.71,.67,1.39,1.26,1.99,1.91,.22,.24,.41,.73,.3,.97-.1,.24-.59,.45-.91,.45-2.87,.03-5.74,.02-8.61,.02-.23,0-.47,.02-.83,.04v2.99h-2.19v-3.03h-7.81v3.75c-.58,.04-.99,.05-1.41,.09-.66,.06-.92-.23-.9-.89,.03-.93,0-1.87,0-2.94-2.87,0-5.61,0-8.35,0-.28,0-.58,.07-.82-.02-.33-.13-.6-.39-.9-.59,.05-.13,.09-.26,.14-.39h9.93c0-1.04,0-1.9,0-2.75,0-.27,0-.78,.06-.79,.73-.11,1.48-.24,2.2-.17,.49,.05,.95,.41,1.42,.63-.13,.22-.22,.58-.41,.64-1.23,.4-1.14,1.29-.92,2.33h7.72V0c1.06,.11,1.98,.17,2.89,.32,.26,.04,.69,.35,.68,.5-.02,.29-.26,.72-.5,.8-1.17,.38-.95,1.24-.83,2.22,1.93,0,3.85,.04,5.77-.04,.36-.02,.73-.51,1.05-.84,.41-.42,.76-.89,1.21-1.43Z"/><path class="cls-1" d="M104.54,18.2c-2.78-.22-5.56-.66-8.33-.59-4.34,.1-8.68,.59-13.02,.81-1.34,.07-2.71-.16-4.04-.4-.53-.1-1.07-.53-1.43-.96-.29-.34-.55-1-.41-1.34,.13-.29,.86-.5,1.29-.44,1.12,.14,2.22,.65,3.33,.65,3.84,.03,7.68-.11,11.52-.15,3.29-.04,6.59-.09,9.88-.03,.68,.01,1.41,.43,1.99,.84,.29,.2,.48,.88,.36,1.22-.11,.31-.69,.46-1.07,.67-.03-.09-.05-.18-.08-.27Z"/><path class="cls-1" d="M148.53,6.26c.4-.04,.86-.24,1.17-.1,1.36,.59,2.69,1.28,4.25,2.04,1.22-1.45,2.51-2.98,3.8-4.51-.06-.1-.12-.21-.17-.31-1.24,0-2.48,0-3.72,0-1.85,0-3.7,0-5.55,.01-.66,0-1.17-.1-1.22-1.05,.43-.03,.84-.07,1.24-.07,2.48,0,4.96-.08,7.43,.02,1.47,.06,2.72-.11,3.48-1.78,.85,.9,1.61,1.64,2.26,2.46,.13,.17-.03,.79-.25,.97-.7,.6-1.53,1.04-2.25,1.63-1.37,1.11-2.69,2.28-3.99,3.38,.56,.72,1.2,1.38,1.63,2.15,.38,.68,.63,1.56-.29,2.07-.89,.5-1.51-.06-1.93-.8-1.39-2.48-3.53-4.17-5.89-5.66,0-.16,0-.31-.01-.47Z"/><path class="cls-1" d="M196.46,10.45c-.59,.12-.91,.28-1.18,.23-3.34-.65-6.65,.18-9.97,.24-5.5,.11-11,.36-16.5,.55-.72,.03-1-.31-.88-1.11,1.43-.07,2.87-.16,4.31-.22,6.92-.29,13.8-.88,20.64-2.06,1.54-.27,2.43,1.11,3.59,2.38Z"/><path class="cls-1" d="M59.79,15.46c0-2.47-.03-4.94,.01-7.41,.02-1.15-.26-2.06-1.24-2.75-.3-.21-.4-.69-.59-1.05,.38-.12,.81-.42,1.13-.33,.89,.23,1.82,.5,2.57,1.01,.41,.27,.66,1.05,.66,1.6,.02,3.56-.03,7.12-.12,10.68-.03,1.07-.16,2.17-.45,3.2-.11,.39-.89,.95-1.15,.86-.43-.16-.94-.77-.98-1.23-.12-1.52-.05-3.06-.05-4.58,.06,0,.13,0,.19,0Z"/><path class="cls-1" d="M214.88,28.21c-.02,3.16-2.55,5.65-5.74,5.64-3.16,0-5.74-2.52-5.77-5.64-.03-3.17,2.56-5.68,5.83-5.66,3.23,.02,5.7,2.48,5.68,5.66Zm-9.99-.06c0,2.52,1.78,4.4,4.19,4.45,2.42,.04,4.39-1.98,4.35-4.45-.04-2.44-1.94-4.38-4.3-4.4-2.39-.01-4.23,1.9-4.24,4.4Z"/><path class="cls-1" d="M186.88,20.58c-.05-.33-.26-.77-.12-.99,1.66-2.7,3.36-5.37,5.17-8.23,.84,.52,1.77,1.07,2.66,1.69,.21,.15,.4,.58,.33,.78-.07,.21-.5,.45-.74,.42-.92-.12-1.28,.51-1.79,1.07-1.65,1.83-3.35,3.61-5.04,5.4-.16-.05-.31-.1-.47-.15Z"/><path class="cls-1" d="M176.14,18.14c-.39,.41-.75,1.14-1.22,1.2-.49,.07-1.4-.35-1.57-.77-.77-1.96-1.9-3.59-3.5-4.95-.14-.12-.23-.52-.14-.67,.1-.17,.49-.33,.65-.26,1.95,.93,3.93,1.84,5.15,3.76,.26,.41,.35,.94,.62,1.68Z"/><path class="cls-1" d="M178.9,11.71c.08-.01,.52-.24,.74-.1,1.21,.77,2.44,1.55,3.51,2.5,.46,.41,.67,1.23,.78,1.89,.13,.78-.28,1.38-1.13,1.52-.78,.12-1.21-.28-1.53-.98-.72-1.57-1.52-3.11-2.38-4.83Z"/><path class="cls-1" d="M211.03,28.61c.17,.52,.48,1.43,.79,2.36-1.02,.39-1.58,.15-1.71-.9-.13-.99-.71-1.33-1.75-1.09-.05,.67-.09,1.35-.14,2.09h-1.19v-5.87c.9,0,1.81-.14,2.66,.04,.65,.14,1.49,.56,1.75,1.09,.23,.48-.2,1.29-.41,2.27Zm-2.7-.61c.7-.25,1.23-.41,1.71-.66,.08-.04,.03-.67-.07-.71-.5-.19-1.04-.26-1.64-.4v1.76Z"/></g></g></svg>