<?xml version="1.0" encoding="UTF-8"?><svg id="_レイヤー_2" xmlns="http://www.w3.org/2000/svg" width="25" viewBox="0 0 27.18 30.6"><defs><style>.cls-1{fill:#fff;stroke-width:0px;}</style></defs><g id="_文字"><path class="cls-1" d="m17.1,30.54c-.36-.59-.88-1.17-1.59-1.75-.27-.22-.54-.43-.81-.61-.04.14-.12.21-.18.26-.09.07-.17.1-.24.12-.16.03-.28.05-.4.07l-1.31.21c-.91.14-1.61.21-2.27.23-.2,0-.41.01-.61.01-1.48,0-2.8-.24-3.92-.71-.75-.31-1.41-.73-1.96-1.24-.49-.46-.93-1-1.42-1.77-.29-.44-.54-.9-.79-1.35-.1-.19-.21-.38-.32-.58l-1.28-2.28.39.11c1.52.41,3.06.86,4.72,1.37l.69.22c1.31.42,2.67.86,3.94,1.53.38.21.73.45,1.05.72.27.22.5.47.73.72l.15.17c.37.44.9.64,1.47.85.19.07.38.14.57.22.69.31,1.35.76,2.07,1.41.18.17.35.34.5.52-.62-1.29-1.07-2.63-1.32-4.02-.07-.54-.14-1.01-.19-1.48l-.04-.61c-.45-.52-.72-1.23-.92-1.85v-.03s-.17.13-.17.13c-.57.47-1.34.73-2.19.74h-.1c-.67,0-1.38-.17-2.1-.5-.74-.33-1.39-.77-1.87-1.12-.71-.51-1.21-.99-1.59-1.52-.36-.5-.63-1.04-.9-1.56l-.15-.3c-.35-.67-.68-1.25-1.03-1.8-.72-1.14-1.59-2.24-2.57-3.28l-.25-.26.11-.16.33.15c.58.26,1.23.4,1.92.4.11,0,.22,0,.33-.01.11,0,.21,0,.32,0,.26,0,.6.01.94.13.42.14.78.36,1.1.59l1.94,1.38,1.92,1.41.47.36c.48.36.95.72,1.42,1.09.58.47,1.23,1.03,1.69,1.77.43.67.63,1.41.81,2.13.14.52.27,1.03.49,1.49l-.02-.25c-.01-.31-.03-.61-.05-.91l-.03-.57c0-.28,0-.56-.02-.84,0-.21-.02-.43-.02-.64,0-.2.01-.4.03-.6,0-.12.02-.23.02-.35-.64-.35-1.27-.85-1.86-1.5-.3-.33-.55-.69-.81-1.06-.09-.13-.17-.26-.25-.4l-.05-.09c-.14.06-.28.1-.4.1-.26-.01-.48-.07-.7-.18-.32-.16-.59-.35-.86-.54l-.13-.09c-.63-.44-1.2-.95-1.7-1.52-1.04-1.18-1.78-2.54-2.14-3.94-.12-.44-.2-.88-.27-1.32-.05-.28-.1-.56-.16-.83-.17-.87-.39-1.48-.71-2l-.23-.37.14-.14.37.25c.6.41,1.24.77,1.86,1.13.72.41,1.46.83,2.15,1.33,1.41,1.01,2.49,2.23,3.12,3.53.34.71.53,1.43.58,2.16.02.4,0,.79-.09,1.15-.07.29-.18.62-.41.93l1.22,1.46c.38.46.84,1,1.34,1.51.02-.55.04-1.13.1-1.69-.08-.04-.11-.06-.14-.08-.47-.38-.81-.87-1-1.42-.17-.47-.23-1.01-.21-1.66.03-.64.14-1.27.24-1.88.07-.43.15-.86.19-1.3.09-.89.19-1.9.45-2.89.28-1.07.8-1.97,1.48-2.62.64-.62,1.4-1.07,2.12-1.51l.33-.2c.74-.45,1.57-1.02,2.08-1.81l.41-.63.21.72c.6,2.1,1.2,4.2,1.1,6.36-.07,1.93-.77,3.91-2.14,6.07l-.21.35c-.48.8-.98,1.63-1.73,2.3-.5.44-1.08.7-1.65.71,0,0-.01,0-.02,0-.35,0-.63-.06-.95-.19-.14.92-.24,1.85-.31,2.77-.02.51-.05.98-.05,1.46.01.48.04.97.07,1.46.04.38.11.77.17,1.15l.05.29.28,1.26c.08-.13.17-.24.27-.34.28-.28.62-.47.95-.64.47-.25.73-.46.91-.69.21-.26.32-.57.35-.93.03-.4-.02-.8-.06-1.23-.04-.34-.08-.7-.08-1.06,0-.41.08-.87.24-1.25.13-.35.31-.72.54-1.1.39-.65.91-1.29,1.52-1.88.55-.54,1.18-1.05,1.87-1.52.66-.44,1.37-.83,2.12-1.15.72-.3,1.49-.55,2.29-.74l.27-.06-.02.27c-.06.78.09,1.53.25,2.33.11.59.23,1.2.26,1.82.06,1.45-.39,2.91-1.28,4.1-.47.63-1.01,1.15-1.6,1.54-.59.37-1.26.65-2.05.86-.95.24-1.93.35-2.91.35h0c-.44,0-.89-.02-1.33-.07-.28.42-.71.65-1.01.78l-.17.08c-.3.14-.58.27-.82.47-.16.13-.29.3-.41.55.46,1.85,1.02,3.59,1.72,5.26l.04.09-.17.08-.09-.06ZM1.18,22.54c.5.87,1.01,1.76,1.58,2.6.49.7.94,1.21,1.41,1.62.53.46,1.15.82,1.83,1.08,1.02.4,2.19.6,3.48.6.26,0,.53,0,.79-.02.79-.05,1.55-.14,2.2-.23l.84-.13c-.65-.27-1.25-.5-1.83-.7-.76-.26-1.57-.51-2.65-.81-.33-.1-.66-.19-1-.29-.56-.16-1.13-.32-1.69-.51-1.11-.39-1.88-.94-2.3-1.65l-.05-.08.16-.1.09.05c.55.81,1.53,1.18,2.22,1.38.54.16,1.1.29,1.66.42.35.08.69.16,1.04.25,1.08.28,1.91.51,2.69.75-.15-.11-.29-.23-.41-.36l-.18-.19c-.22-.23-.42-.45-.66-.63-.28-.22-.6-.43-.97-.64-.7-.39-1.47-.69-2.2-.97-.76-.3-1.52-.59-2.29-.86-1.32-.49-2.71-.94-4.25-1.38.16.27.31.54.47.81Zm17.22.25c-.04.09-.09.17-.14.25,1.4-.02,2.69-.2,3.85-.55.72-.21,1.35-.49,1.87-.83.55-.39,1.06-.88,1.46-1.39.9-1.15,1.38-2.48,1.37-3.74,0-.66-.13-1.29-.26-1.97-.12-.62-.25-1.26-.27-1.92-1.39.43-2.71,1.07-3.91,1.92-1.31.93-2.4,2.05-3.16,3.25-.21.34-.37.67-.49.99-.14.33-.2.63-.21,1.02-.01.32.01.63.04.96.03.44.07.9.02,1.38,0,.02,0,.03,0,.05.23-.23.47-.45.71-.67.25-.23.5-.45.72-.68.23-.24.43-.51.65-.89.21-.38.46-.73.72-1.01.2-.22.42-.43.63-.64l.34-.33c.25-.25.51-.51.81-.73.29-.22.65-.4,1.11-.58l.17-.07c.31-.12.6-.24.88-.42l.07-.04.12.11v.1c-.25.38-.64.63-.99.82l-1.04.56c-.38.2-.71.37-1,.61-.28.23-.53.53-.73.87-.16.26-.28.53-.41.81l-.11.23c-.15.33-.37.75-.71,1.08-.34.33-.71.58-1,.76-.34.21-.69.42-1.05.6l-.03.1ZM1.82,12.08c.83.9,1.59,1.83,2.25,2.78.38.55.77,1.15,1.13,1.79l.23.41c.27.48.52.94.84,1.35.36.47.84.92,1.48,1.36.7.48,1.24.79,1.78,1.02.66.28,1.29.43,1.88.43.55,0,1.05-.15,1.49-.41-.19-.19-.42-.39-.67-.57-.23-.16-.38-.26-.53-.33-.18-.09-.39-.15-.6-.21-.89-.24-1.76-.61-2.59-1.11-.83-.51-1.56-1.11-2.17-1.77-.6-.64-1.13-1.4-1.57-2.26l-.04-.09.17-.09.09.06c.91,1.53,2.22,2.8,3.81,3.68.8.44,1.64.77,2.48.98.23.06.47.13.7.23.25.11.44.24.64.38.42.3.78.57,1.09.99h0c-.19-.63-.38-1.24-.76-1.75-.67-.94-1.66-1.66-2.62-2.35-.3-.22-.61-.44-.9-.67l-1.89-1.43-1.88-1.46c-.27-.21-.6-.44-.96-.58-.32-.13-.67-.14-.94-.14,0,0-.31,0-.39,0-.51,0-1.03-.08-1.54-.24Zm13.59,3.62c.3.14.56.2.81.2.44,0,.88-.19,1.32-.54.71-.57,1.26-1.37,1.79-2.15l.19-.28c.94-1.34,2.04-3.44,1.98-5.86-.03-1.88-.53-3.71-1.1-5.58-.47.54-1.08,1.04-1.87,1.51-.22.14-.44.27-.67.4-.63.37-1.23.72-1.75,1.17-.69.58-1.21,1.37-1.53,2.3-.3.85-.44,1.74-.56,2.81-.03.3-.08.61-.12.91-.1.74-.21,1.5-.18,2.25.02.59.11,1.07.29,1.48.18.4.44.76.78,1.04.11-.81.22-1.5.38-2.18.48-2,1.16-3.88,2.02-5.59l.04-.08.22.08-.03.09c-.69,2.09-1.2,3.94-1.57,5.65-.16.69-.3,1.43-.45,2.39ZM5.17,5.21c.25.63.4,1.29.54,1.93.12.54.25,1.1.43,1.62.47,1.35,1.23,2.61,2.19,3.63.51.54,1.04,1,1.61,1.41l.09.06c.27.2.52.39.78.52.14.08.28.11.4.11.02,0,.04,0,.06,0l-.05-.08c-.21-.38-.42-.76-.67-1.12-.12-.17-.24-.34-.37-.51-.14-.18-.27-.37-.4-.56-.51-.82-.86-1.64-1.05-2.44l-.02-.08.15-.07.09.05c.5.74.94,1.48,1.34,2.25l.15.34c.13.28.25.56.4.83.23.4.52.78.74,1.05l.07.08c.12-.16.23-.37.31-.61.11-.32.17-.66.19-1.01.04-.68-.11-1.39-.42-2.05-.31-.64-.77-1.24-1.39-1.79-.58-.53-1.23-.97-1.85-1.37l-.66-.42c-.89-.57-1.8-1.15-2.67-1.79Z"/></g></svg>