<?xml version="1.0" encoding="UTF-8"?><svg id="_レイヤー_2" xmlns="http://www.w3.org/2000/svg" width="25.32" height="28.5" viewBox="0 0 25.32 28.5"><defs><style>.cls-1{fill:#fff;}</style></defs><g id="_文字"><path class="cls-1" d="M24.83,11.42v-.13s-.12,.03-.12,.03c-.73,.17-1.45,.4-2.14,.69-.69,.3-1.36,.66-1.98,1.08-.62,.42-1.21,.9-1.74,1.42-.54,.52-1.03,1.1-1.42,1.75-.2,.32-.37,.67-.5,1.02-.14,.34-.23,.77-.22,1.14,0,.76,.19,1.48,.14,2.17-.02,.34-.13,.66-.34,.93-.2,.27-.5,.47-.82,.64-.32,.17-.67,.35-.94,.62-.15,.15-.26,.33-.35,.52,0-.03-.02-.06-.02-.09l-.29-1.35c-.07-.45-.15-.91-.2-1.37-.03-.46-.06-.92-.07-1.38,0-.46,.03-.92,.05-1.38,.07-.92,.17-1.83,.31-2.74,.31,.14,.63,.24,.98,.22,.57-.02,1.1-.3,1.49-.65,.79-.71,1.28-1.62,1.81-2.47,1.08-1.7,1.93-3.62,2-5.67,.09-2.05-.48-4.04-1.04-5.96l-.14-.48-.28,.42c-.48,.72-1.21,1.26-1.99,1.73-.78,.48-1.61,.94-2.3,1.6-.7,.66-1.13,1.53-1.37,2.42-.24,.89-.33,1.8-.42,2.71h0c-.11,1-.36,1.97-.41,2.99-.02,.51,.02,1.03,.19,1.53,.17,.5,.49,.95,.91,1.3,.05,.04,.12,.06,.18,.1-.07,.62-.09,1.24-.11,1.86-.51-.51-.97-1.04-1.42-1.58l-1.2-1.44c.23-.28,.34-.59,.42-.9,.08-.35,.1-.7,.08-1.05-.04-.7-.24-1.38-.54-2-.64-1.32-1.71-2.42-2.91-3.29-1.21-.87-2.56-1.48-3.78-2.31l-.35-.24,.22,.35c.36,.58,.55,1.24,.68,1.91,.14,.67,.22,1.35,.4,2.03,.34,1.35,1.05,2.61,1.99,3.67,.47,.53,1.01,1.01,1.58,1.41,.28,.2,.57,.42,.91,.58,.17,.08,.37,.15,.59,.16,.15,0,.31-.04,.45-.12,.11,.18,.2,.36,.33,.53,.24,.34,.48,.68,.76,.99,.5,.56,1.09,1.07,1.77,1.42,0,.32-.05,.63-.05,.95,0,.47,.04,.93,.04,1.39,.02,.46,.06,.92,.08,1.39,.02,.22,.03,.45,.05,.68-.71-1.14-.65-2.58-1.43-3.79-.41-.65-.99-1.16-1.57-1.64-.59-.47-1.19-.91-1.78-1.37l-1.8-1.33-1.83-1.3c-.31-.21-.64-.42-1.02-.54-.38-.13-.78-.12-1.15-.11-.74,.05-1.49-.07-2.17-.37l-.31-.14,.24,.25c.91,.95,1.73,1.99,2.43,3.1,.35,.55,.68,1.12,.98,1.7,.3,.58,.59,1.18,.98,1.74,.4,.56,.93,1.02,1.47,1.41,.55,.39,1.12,.76,1.75,1.04,.62,.28,1.32,.48,2.04,.46,.71-.01,1.44-.22,2-.68l.16-.13-.12-.16c-.29-.39-.64-.66-1.01-.91-.18-.13-.36-.24-.59-.35-.22-.1-.44-.16-.65-.21-.83-.2-1.62-.52-2.36-.93-1.48-.83-2.75-2.03-3.62-3.5l-.04,.02c.39,.76,.87,1.48,1.47,2.11,.59,.64,1.28,1.18,2.02,1.65,.75,.45,1.57,.8,2.42,1.03,.21,.06,.4,.12,.58,.2,.17,.08,.34,.21,.51,.32,.26,.19,.51,.4,.72,.63-.44,.29-.97,.45-1.51,.46-.63,0-1.25-.16-1.84-.41-.59-.26-1.15-.6-1.69-.97-.54-.37-1.03-.79-1.41-1.3-.39-.51-.68-1.09-1.01-1.67-.33-.57-.68-1.14-1.06-1.68-.71-1.02-1.51-1.98-2.37-2.88,.63,.25,1.32,.38,1.99,.34,.38,0,.74,0,1.08,.14,.34,.13,.64,.33,.93,.56l1.77,1.38,1.78,1.35c1.18,.91,2.5,1.69,3.34,2.86,.43,.58,.6,1.29,.82,2,.2,.62,.45,1.25,.87,1.77,.01,.19,.03,.38,.04,.57,.05,.46,.12,.92,.18,1.39,.32,1.72,.95,3.38,1.84,4.89-.33-.56-.75-1.06-1.23-1.5-.57-.52-1.2-.98-1.93-1.31-.73-.31-1.48-.46-1.95-1.03-.25-.27-.51-.58-.82-.83-.31-.25-.63-.47-.98-.66-1.4-.73-2.88-1.16-4.34-1.64-1.47-.46-2.95-.89-4.44-1.29l-.15-.04,.08,.13,1.02,1.82c.34,.61,.65,1.23,1.04,1.81,.38,.59,.8,1.16,1.33,1.65,.53,.49,1.15,.87,1.82,1.15,1.34,.56,2.81,.71,4.23,.65,.72-.02,1.43-.11,2.13-.22l1.05-.17c.18-.03,.33-.05,.55-.1,.06-.02,.12-.04,.19-.09,.07-.06,.15-.13,.15-.29,0-.03-.02-.04-.03-.06,.33,.21,.64,.44,.93,.68,.58,.48,1.12,1.02,1.52,1.67h0l.04-.02c-.69-1.64-1.22-3.32-1.62-5.03,.11-.21,.23-.4,.41-.55,.27-.23,.61-.37,.95-.53,.34-.16,.69-.36,.95-.66,.02-.02,.03-.06,.05-.08,1.32,.15,2.66,.06,3.96-.26,.66-.18,1.31-.43,1.91-.8,.59-.38,1.07-.88,1.48-1.42,.82-1.1,1.24-2.46,1.18-3.8-.06-1.34-.57-2.61-.48-3.92Zm-11.02,2.98c-.38-.28-.69-.67-.88-1.11-.19-.44-.27-.93-.28-1.43-.04-1,.17-1.99,.28-2.99,.1-.9,.23-1.81,.53-2.66,.29-.86,.79-1.63,1.46-2.2,.68-.59,1.5-1,2.29-1.49,.67-.41,1.33-.9,1.85-1.54,.55,1.79,1.06,3.59,1.09,5.45,.05,1.99-.73,3.94-1.88,5.58-.57,.83-1.12,1.69-1.89,2.31-.37,.3-.81,.53-1.27,.53-.31,0-.61-.09-.89-.23,.13-.78,.26-1.55,.44-2.32,.38-1.8,.9-3.57,1.48-5.33l-.04-.02c-.84,1.66-1.46,3.43-1.9,5.25-.16,.73-.27,1.47-.37,2.21,0,0,0,0-.01,0Zm-3.87-.98c-.28-.14-.55-.35-.83-.56-.56-.4-1.06-.85-1.53-1.34-.93-.99-1.63-2.18-2.08-3.46-.41-1.18-.52-2.48-1.06-3.66,1.09,.84,2.27,1.56,3.42,2.3,.61,.4,1.22,.8,1.76,1.3,.54,.49,1.01,1.06,1.33,1.71,.29,.62,.44,1.31,.4,1.98-.02,.34-.08,.67-.18,.98-.09,.26-.22,.51-.38,.69l-.14-.16c-.26-.32-.51-.65-.71-1.01-.2-.36-.36-.74-.53-1.11-.37-.73-.79-1.42-1.25-2.11l-.04,.02c.19,.81,.54,1.57,.97,2.27,.23,.34,.5,.67,.73,1.01,.23,.34,.43,.7,.63,1.06,.03,.06,.08,.12,.11,.18-.18,.07-.4,.04-.62-.08Zm2.66,12.84l-1.04,.16c-.69,.1-1.39,.18-2.08,.22-1.38,.08-2.79-.05-4.07-.55-.64-.25-1.24-.59-1.75-1.04-.52-.44-.95-.98-1.35-1.54-.75-1.1-1.37-2.28-2.05-3.42,1.43,.4,2.84,.85,4.23,1.36,.72,.26,1.44,.54,2.15,.82,.72,.27,1.43,.55,2.08,.92,.33,.18,.64,.38,.93,.61,.29,.23,.53,.5,.8,.78,.27,.29,.63,.53,1,.67,.37,.16,.74,.25,1.09,.39,.2,.08,.39,.2,.58,.3,0,0-.01,0-.02,0-.76-.34-1.54-.62-2.34-.87-.84-.26-1.69-.49-2.54-.71-.85-.22-1.72-.39-2.55-.63-.82-.24-1.65-.62-2.14-1.34l-.04,.02c.45,.76,1.29,1.22,2.11,1.51,.84,.29,1.69,.5,2.53,.75,.84,.24,1.68,.49,2.5,.77,.69,.24,1.37,.5,2.04,.79-.03,0-.05,0-.08,.01Zm.77-.01c-.02,.05-.06,.09-.09,.1-.06,.02-.07,.01-.08,.01,0,0-.02-.01-.04-.03l.22-.18s.01,.05,0,.1Zm10.45-7.32c-.39,.51-.88,.96-1.4,1.33-.54,.35-1.15,.61-1.79,.79-1.23,.37-2.53,.52-3.84,.52,.08-.12,.17-.23,.23-.36,.02-.05,.02-.11,.04-.16l.02,.02c.35-.17,.67-.37,.99-.57,.32-.2,.64-.42,.93-.7,.29-.28,.49-.65,.65-.99,.16-.34,.31-.66,.5-.98,.19-.32,.42-.61,.71-.85,.29-.24,.63-.41,.95-.58l.98-.53c.33-.18,.68-.41,.89-.74l-.03-.03c-.31,.21-.66,.33-1.01,.47-.35,.13-.72,.3-1.03,.53-.31,.23-.58,.51-.85,.78-.27,.27-.55,.52-.81,.81-.26,.28-.49,.61-.67,.94-.19,.33-.38,.6-.62,.86-.48,.5-1.1,.97-1.6,1.54,.04-.13,.08-.26,.09-.39,.09-.77-.08-1.5-.05-2.2,0-.35,.06-.66,.2-.99,.13-.33,.29-.64,.47-.95,.77-1.2,1.82-2.24,3-3.09,1.16-.82,2.45-1.45,3.83-1.86,.01,1.3,.49,2.53,.5,3.79,.01,1.31-.52,2.57-1.31,3.58Z"/></g></svg>