<?xml version="1.0" encoding="UTF-8"?><svg id="_レイヤー_2" xmlns="http://www.w3.org/2000/svg" width="356.28" height="272.26" viewBox="0 0 356.28 272.26"><defs><style>.cls-1{fill:#d50012;}.cls-2{fill:#bdbdbd;stroke:#231815;stroke-width:.25px;}.cls-2,.cls-3{stroke-miterlimit:10;}.cls-3{fill:none;stroke:#d50012;}</style></defs><g id="_文字"><g><path class="cls-2" d="M356.14,262.71c-.03-.13-.11-.23-.2-.33-.93-1.08-2.1-1.97-3.4-2.57-.15-.07-.31-.14-.37-.29-.07-.15-.02-.32,.03-.47,.43-1.37,.86-2.73,1.29-4.1-.84-1.24-1.66-2.39-2.37-3.6-.11-.2-.23-.4-.26-.63,0,0,0,0,0,0,0,0,0,0-.01,0-.56-.64-1.18-1.3-1.81-1.97-.11-.11-.22-.23-.25-.39-.04-.2,.06-.4,.17-.58,.93-1.51,2.51-2.72,2.76-4.48l-3.89-.44c-.16-.02-.34-.05-.45-.17-.09-.11-.1-.27-.11-.41-.03-1.07-.06-2.13-.09-3.2-.01-.46-.11-1.04-.55-1.17-.21-.07-.44,0-.65,.07-1.51,.47-3.01,.93-4.52,1.4-.24,.07-.51,.14-.72,.01-.15-.09-.23-.27-.29-.43-.45-1.07-.89-2.13-1.34-3.2-.07-.16-.15-.34-.3-.42-.15-.08-.34-.04-.5,0-.65,.15-1.31,.29-1.96,.44-.96-3.44-1.87-6.89-2.74-10.35-2.3,1.48-4.57,2.89-6.85,4.28-.41,.25-.84,.5-1.32,.54-.82,.06-1.52-.52-2.13-1.07-1.36-1.22-2.74-2.48-3.63-4.08,1.01-4.01,1.61-8.09,1.67-12.18,.01-.67,0-1.37-.33-1.95-.29-.51-.78-.86-1.25-1.22-.96-.72-1.87-1.51-2.72-2.36-.53-.53-1.05-1.11-1.34-1.8-.53-1.29-.2-2.8-.69-4.11-.06-.16-.14-.32-.29-.39-.18-.08-.39,0-.57,.1-.54,.26-1.08,.53-1.62,.79-1.25-.69-1.85-2.36-1.32-3.69,.08-.21,.19-.43,.16-.65-.04-.24-.25-.42-.43-.59-.84-.76-1.47-1.75-1.82-2.82,.76-.12,1.52-.25,2.28-.37-1.48-2.42-2.8-4.93-3.95-7.52,1.76-2.06,3.8-3.89,6.04-5.43-.26-5.69,.4-11.27,1.83-16.64,.35-1.31,.75-2.63,.78-3.98,.06-2.18-.82-4.26-1.62-6.29-1.64-4.14-3-8.39-4.09-12.7,2.25-5.12,4.26-10.28,6.27-15.43,.15-.38,.29-.86,.02-1.18-.37-.43-1.07-.13-1.53,.19-1.17,.81-2.35,1.63-3.52,2.44-.23,.16-.48,.32-.76,.29-.43-.05-.65-.53-.79-.93-.48-1.41-.97-2.82-1.45-4.23-.58-1.68-1.18-3.4-2.32-4.76-2.16-2.58-5.79-3.34-8.5-5.34-.29-.21-.58-.45-.74-.78-.16-.33-.17-.72-.16-1.09,0-.72,.05-1.44,.1-2.16,.77-.14,1.24-.9,1.61-1.6,.19-.36,.38-.72,.57-1.08-1.26-.91-2.52-1.8-3.81-2.66-6.12-4.1-13.16-7.55-20.51-7.1-5.44-2.58-11.85-4.43-17.12-8.25-4.64-3.37-8.23-8.17-13.28-10.9-1.49-.63-2.27-1.82-2.76-3.01-.49-1.19-.78-2.47-1.45-3.56-.53-.87-1.28-1.57-2.03-2.27-.58-.54-1.16-1.09-1.73-1.63-.46-.44-.93-.88-1.26-1.43-.85-1.42-.55-3.33,.42-4.67,.75-1.04,1.93-1.97,1.87-3.25,.08-.16,.06-.24,.04-.32-.04-.13-.08-.26-.12-.4-.18-.43-.27-.89-.56-1.24-.29-.34-.84-.52-1.19-.24-.17,.13-.33,.36-.54,.32-.22-.05-.25-.36-.15-.55,.1-.2,.29-.34,.38-.54,.27-.6-.5-1.2-1.15-1.16-.65,.04-1.23,.44-1.87,.58-.47-1.35,.07-2.98,1.24-3.79,0-.44-.54-.64-.8-.99-.3-.4-.2-.97,.03-1.41,.27-.5,.69-.92,1.2-1.18,.29-.15,.62-.25,.83-.49,.21-.24,.23-.7-.06-.83-.11-.05-.24-.05-.36-.03-1.02,.13-1.84,.89-2.44,1.72-.6,.83-1.06,1.77-1.77,2.51-.63,.68-1.44,1.17-2.08,1.84-.64,.67-1.12,1.62-.85,2.51,.01,.69-.56,.86-.97,.75-.41-.12-.78-.4-1.2-.42-.48-.02-.91,.29-1.29,.59-.75,.59-1.5,1.18-2.26,1.77-.53,.42-1.21,.86-1.83,.59-.35-.16-.57-.51-.89-.72-.32-.21-.73-.27-1.09-.16-.38,.11-.68,.39-.97,.65-1.05,.97-2.11,1.94-3.16,2.91-.61,.57-1.41,1.17-2.2,.9-.79-.28-1.28-1.38-2.1-1.23-.42,1.38-.59,2.84-.48,4.29,.06,.83,.33,1.81,1.13,2.05,.56,.17,1.35-.02,1.6,.51,.2,.42-.17,.86-.48,1.21-.46,.51-.83,1.3-.42,1.85,.17,.22,.43,.35,.68,.47,1.06,.48,2.34,.86,3.35,.27,.28-.16,.52-.39,.83-.47,.53-.14,1.06,.21,1.55,.45,.49,.24,1.2,.35,1.51-.11,.38-.56-.07-1.64,.58-1.82,.66,1.27,1.31,2.53,1.97,3.8,.31-.55,.93-.91,1.57-.9,.23,.35,.06,.83-.2,1.16-.26,.33-.62,.57-.86,.92-.82,1.21,.18,2.97-.49,4.27-.56-.81-1.76-.73-2.73-.57-.97,.16-2.16,.24-2.73-.57,.44-.1,.9-.2,1.26-.47s.6-.76,.45-1.18c-.24-.67-1.19-.7-1.85-.45-.66,.25-1.35,.67-2.03,.48-.31-.08-.58-.29-.9-.35-.69-.14-1.4,.58-1.25,1.26-.35,.24-.17,.7-.21,1.11-.07,.7-.8,1.12-1.39,1.5-1.65,1.05-2.92,2.68-3.53,4.53-.2,.62-.49,1.39-1.14,1.42-.18,0-.36-.05-.53-.13-.96-.47-1.49-1.68-1.17-2.7,.11-.35,.3-.66,.47-.99,1.07-2.09,1.16-4.67,2.67-6.46,.24-.29,.52-.55,.74-.86,.51-.74,.62-1.7,.53-2.6-.09-.9-.36-1.77-.55-2.65-.1-.47-.18-.94-.38-1.38s-.53-.83-.98-.99-1.02,0-1.24,.43c-.16,.32-.1,.7-.21,1.04-.08,.24-.23,.45-.38,.65-.28,.37-.58,.76-.99,.97-.75,.39-1.66,.12-2.41-.25-.37-.18-.84-.38-1.15-.11-.36,.31-.12,.88,.06,1.32,.47,1.1,.41,2.41-.16,3.47-.38,.72-.98,1.31-1.31,2.06-.3,.69-.35,1.46-.4,2.21-.06,.96-.12,1.93-.18,2.89-.44-.17-.74-.61-.87-1.06-.13-.46-.11-.94-.1-1.41,.04-1.39,.1-2.84,.74-4.07,.2-.38,.45-.73,.6-1.13,.59-1.47-.14-3.22,.43-4.7-1.1-1-1.8-1.97-2.34-3.03-.31-.6-.57-1.25-1.06-1.73-.66-.65-1.62-.89-2.54-.93-.57-.02-1.15,.01-1.7-.11-.56-.12-1.11-.44-1.33-.97-.81-.92-1.03-2.44-.56-3.72,.17-.46,.44-.91,.84-1.19,.41-.28,.97-.37,1.4-.13,.48,.27,.68,.84,.94,1.33,.26,.49,.75,.98,1.28,.83,.47-.13,.69-.67,1.11-.91,.27-.16,.61-.17,.9-.3,.29-.13,.54-.47,.4-.75-.38-.59-1-1.02-1.69-1.16-.99-.19-2.27,.08-2.79-.78-.38-.62-.06-1.45-.34-2.11-.11-.25-.29-.46-.42-.7-.39-.73-.19-1.72,.45-2.24,.3-.24,.68-.39,.92-.7,.24-.31,.2-.87-.18-.96-.34-.08-.61,.27-.79,.57-.65,1.06-1.43,2.03-2.32,2.89-.27,.26-.66,.53-.99,.35,.09-.38-.25-.8-.65-.78-.06,1.28-.42,2.54-1.04,3.66-.07,.12-.15,.26-.28,.31-.17,.08-.38,0-.57,0-1.03-.03-1.29,1.72-2.32,1.87-.25,.04-.51-.04-.76,.01-.49,.1-.76,.69-.65,1.18s.51,.86,.96,1.09c.11,.06,.23,.11,.29,.22,.09,.16,.01,.36-.06,.52-.26,.55-.52,1.1-.93,1.54-.41,.44-1,.76-1.6,.69,.4-.96-.88-1.97-.62-2.98,.09-.35,.36-.67,.28-1.02-.05-.2-.2-.35-.35-.49-1.13-1.04-2.45-1.88-3.88-2.44-.32-.13-.69-.25-1.02-.13-.26,.09-.45,.31-.63,.51l-1.19,1.37c-.24,.28-.63,.58-.93,.36-.09-.07-.15-.18-.19-.28-.32-.85,.13-1.83,.82-2.41,.7-.58,1.6-.84,2.48-1.06s1.78-.43,2.54-.94c.54-.36,1.26-.88,1.74-.44,.1,.1,.17,.23,.28,.32,.25,.22,.66,.15,.93-.05,.26-.21,.42-.52,.57-.82,.71-1.44,1.44-2.9,2.54-4.06,.56-.59,1.21-1.09,1.79-1.65,.88-.84,1.63-1.82,2.26-2.87,.14-.23,.28-.47,.52-.59,.35-.17,.78-.01,1.15-.14,.56-.19,.72-.9,.67-1.49-.04-.59-.19-1.21,.08-1.73,.18-.34,.51-.58,.72-.9,.45-.7,.22-1.62,.31-2.45,.15-1.51,1.33-2.67,2.43-3.72,.26-.25,.53-.51,.62-.86,.05-.2,.04-.41,.06-.62,.08-.67,.64-1.26,1.3-1.39,.71,.41,1.87,.15,2.41-.54,.21-.27,.36-.58,.61-.82,.24-.24,.63-.38,.93-.21,.14,.08,.24,.23,.39,.3,.48,.22,.87-.44,.95-.96,.25-1.52,.37-3.37,1.72-4.12,.15-.08,.31-.15,.4-.3,.21-.33-.13-.75-.49-.87s-.78-.11-1.11-.31c-.52-.32-.66-1.09-1.21-1.34-.49-.22-1.16,.05-1.56-.32-.43-.41-.09-1.11,.16-1.65,.41-.88,.53-1.93,.15-2.82-.38-.89-1.32-1.56-2.29-1.48-.31,.03-.66,.12-.92-.07-.37-.27-.21-.86,.07-1.21,.28-.36,.67-.7,.67-1.15,0-.46-.41-.84-.86-.97-.45-.13-.92-.08-1.38-.08-.73,0-1.49-.16-2.07-.61-.58-.45-.92-1.24-.69-1.94,.1-.31,.31-.59,.36-.91,.05-.32-.18-.73-.5-.68-.28,.04-.42,.38-.67,.5-.37,.19-.79-.15-1.06-.47-.53-.63-.97-1.32-1.33-2.06-.67-.85-1.47-1.72-2.37-2.47-.3-.25-.79-.47-1.03-.16-.21,.26,0,.64,.09,.96,.15,.58-.17,1.2-.64,1.57-.47,.37-1.07,.53-1.65,.67-2.48,.56-5.1,.69-7.39,1.8-1.28,.62-2.53,1.56-3.95,1.45-.38-.03-.82-.12-1.1,.15-.32,.31-.37,1.02-.8,.94-.55-.22-.61-.94-.72-1.52s-.64-1.26-1.15-.97c-.41,.23-.35,.82-.43,1.28-.21,1.14-1.55,1.68-2.71,1.75-.72,.04-1.48-.01-2.14,.3-.43,.21-.77,.55-1.2,.75-.44,.19-.93,.21-1.38,.34-.46,.13-.93,.42-1.02,.89-.21-.17-.43-.35-.69-.4-.27-.05-.59,.08-.65,.35-.03,.15,.02,.3,.06,.44,.36,1.31-.21,2.81-1.34,3.56-.4,.41-.88,.7-1.39,.81-.29,.06-.61,.08-.82,.29-.13,.13-.19,.3-.25,.47-.62,1.61-2.11,2.86-3.81,3.2-.4,.08-.83,.12-1.14,.38-.16,.13-.28,.31-.46,.39-.48,.22-1.04-.34-1.54-.19-.47,.15-.54,.77-.65,1.26-.18,.85-.83,1.67-1.7,1.72-.45,.03-.88-.16-1.3-.31-.85-.3-1.74-.49-2.64-.56-.27-.02-.56-.03-.82,.06-.49,.17-.86,.69-1.38,.67-.51-.01-1-.54-1.45-.31-.34,.17-.36,.64-.55,.96-.26,.45-.81,.62-1.27,.86-.46,.24-.92,.72-.75,1.21-.52,.58-1.06,1.09-1.6,1.6-.12,.11-.24,.26-.19,.41,.06,.19,.35,.21,.45,.39,.06,.12,.02,.26-.03,.38-.33,.83-.97,1.52-1.72,2.02-.26,.17-.55,.33-.85,.4-.31,.07-.64,.06-.94,.15-.6,.16-1.09,.7-1.18,1.32-.49,.34-.89,.52-1.29,.69-1.23,.51-2.52,.87-3.83,1.08-.31,.05-.71,.2-.67,.51,.03,.21,.26,.33,.48,.37,.21,.03,.45,.03,.63,.14,.38,.25,.27,.82,.11,1.24-.43,1.17-.93,2.31-1.48,3.43-.19,.38-.39,.76-.72,1.02-.26,.2-.59,.33-.78,.6-.34,.48-.14,1.3-.66,1.59-.18,.1-.4,.09-.61,.1-.5,0-1,.06-1.48,.17-.33,.08-.67,.18-1,.1-.33-.07-.63-.39-.55-.72,.16-.58,1.24-.48,1.35-1.07,.02-.12,0-.24,.04-.35,.07-.15,.24-.21,.38-.3,.38-.25,.49-.76,.56-1.21,.08-.5,.16-1.01,.24-1.51,.02-.13,.04-.27,0-.4-.1-.38-.61-.5-.97-.33-.35,.17-.57,.52-.78,.84-.17,.28-.47,.59-.77,.46-.31-.14-.26-.59-.16-.91,.13-.42,.27-.85,.4-1.27,.04-.13,.09-.27,.19-.37,.08-.08,.19-.12,.3-.17l2.41-.92c.4-.15,.8-.31,1.15-.57-.53-.35-1.1-.64-1.69-.87-.12-.05-.27-.09-.38-.03-.17,.09-.17,.34-.29,.49-.17,.21-.51,.15-.73,0-.23-.14-.42-.35-.68-.41-.59-.13-1.24,.56-1.73,.2-.36-.26-.22-.81-.05-1.22,.14-.34,.28-.68,.42-1.03,.06-.15,.12-.31,.06-.46-.05-.13-.19-.21-.32-.27-.86-.37-1.89-.31-2.7,.15-.07,.01-.14,.03-.22,.04,.49,2.28,1.12,4.52,1.89,6.72,.14,.41,.3,.84,.23,1.27-.06,.38-.27,.71-.48,1.02-1.91,2.88-3.83,5.76-5.74,8.65,3.62,2.68,7.23,5.36,10.85,8.03,.49,.36,.99,.74,1.35,1.24,.47,.68,.63,1.51,.83,2.31,.48,1.91,1.29,3.74,2.38,5.38,.4,.61,.86,1.21,1.47,1.6,.79,.51,1.76,.64,2.69,.73,1.61,.16,3.23,.26,5.24,.67,2.58-3,6.07-5.21,9.89-6.26,.93-.26,2.02-.41,2.78,.19,.42,.33,.64,.84,.86,1.33,.79,1.8,1.57,3.59,2.36,5.39-1.39,.64-2.63,1.58-3.63,2.73,1.16,.13,2.05,1.4,1.78,2.53-.11,.47-.39,.88-.56,1.33-.54,1.43,.01,3.05,.81,4.35s1.85,2.46,2.45,3.87c1.15,2.72,.42,5.83-.32,8.69-.12,.46-.27,.96-.68,1.2-.38,.22-.86,.13-1.31,.11-1.65-.11-3.23,.74-4.51,1.78-1.28,1.05-2.38,2.31-3.72,3.3-.18,.13-.38,.27-.6,.28-.21,.01-.41-.08-.6-.18-3.6-1.78-7.23-3.49-10.9-5.11-.21-.09-.44-.19-.66-.1-.21,.08-.32,.3-.42,.5-2.39,5.16-3.81,10.77-4.15,16.44,1.82,1.88,2.52,4.77,1.96,6.15-.41,.87,.04,1.95,.78,2.56,.74,.61,1.7,.87,2.63,1.11,3.17,.83,6.35,1.65,9.52,2.48,.56,.15,1.15,.31,1.58,.69,1.07,.97,.68,2.77,1.35,4.04,.82,1.57,2.91,1.88,4.68,1.99,1.65,.1,3.29,.21,4.94,.32,.37,.02,.77,.06,1.07,.27,.29,.21,.45,.56,.59,.89,.7,1.63,1.4,3.25,2.1,4.88,.1,.24,.23,.5,.47,.59,.26,.1,.55-.04,.8-.17,3.16-1.74,6.32-3.48,9.15-5.01,2.2-.25,4.43-.26,6.63-.01,.42,.05,.86,.11,1.23,.32,.35,.2,.62,.53,.84,.87,1.48,2.3,1.05,5.65-.98,7.5,2.22,1.67,4.44,3.33,6.65,5,.38,.28,.77,.59,.97,1.02,.3,.64,.09,1.4-.16,2.06-.45,1.19-1.01,2.35-1.25,3.6-.25,1.25-.13,2.65,.68,3.64,.48,.59,1.19,1,1.94,1.11,.52,.08,1.05,.02,1.58-.03,1.5-.16,3-.32,4.5-.48,.21-1.25,.7-2.44,1.41-3.48,3.67-.24,7.37,.15,11.14,1.43,.61,.49,.35,1.49-.15,2.09-.51,.59-1.21,1.05-1.49,1.78-.45,1.16,.38,2.39,1.15,3.36,.23,.28,.46,.57,.79,.72,.46,.2,.99,.08,1.48-.05,1.76-.47,3.5-1.01,5.21-1.61,1.1-.38,2.56-.69,3.23,.26,.7,1,.02,2.82,1.13,3.32,.27,.12,.58,.11,.88,.11,2.72-.06,5.45,.19,8.12,.74,.2,.04,.42,.1,.52,.27,.08,.14,.06,.31,.04,.47-.26,1.91-.53,3.82-.79,5.73-.06,.41-.11,.84,0,1.25,.4,1.42,2.46,1.55,3.37,2.7,.16,.2,.28,.45,.25,.7-.03,.21-.16,.4-.3,.57-.75,.96-1.58,1.86-2.47,2.68-.64,.59-1.32,1.14-1.84,1.84-1.03,1.37-1.34,3.15-1.26,4.97,.12,2.78,.48,5.55,1.06,8.27,.07,.31,.15,.64,.4,.84,.25,.2,.61,.19,.93,.18,1.17-.05,2.34-.1,3.51-.15,1.23-.05,2.71,.02,3.32,1.08,.14,.24,.22,.52,.42,.72,.41,.43,1.14,.31,1.65,.01,.51-.3,.95-.74,1.51-.94,.9-.31,1.88,.09,2.74,.48,2.71,1.23,5.41,2.46,8.12,3.69,.24,.11,.5,.24,.58,.49,.19,.62-.8,.85-1.24,1.33-.41,.46-.26,1.19,.05,1.73,.31,.53,.75,1.01,.9,1.61,.35,1.44-1.1,2.63-1.61,4.01-.06,.16-.1,.32-.06,.49,.04,.15,.14,.27,.24,.38,.44,.49,.87,.98,1.31,1.48,.13,.15,.27,.3,.45,.37,.21,.09,.44,.06,.67,.04,1.41-.16,2.83-.32,4.25-.34,1.44,2.25,2.87,4.5,4.31,6.75,.18,.28,.38,.58,.69,.72,.24,.11,.52,.1,.78,.08,2.45-.13,4.89-.44,7.29-.93,.24-.05,.49-.11,.65-.29,.18-.2,.19-.48,.2-.75,.03-1.02,.07-2.04,.1-3.05-1.97,.83-4.19,1.07-6.29,.68,.57-1.43,1.65-2.66,3-3.42-.63-.42-1.15-1-1.51-1.67,1.4-.41,2.81-.78,4.23-1.09-.56-1.14-1.12-2.28-1.69-3.42,2.88-.05,5.77-.1,8.77-.12,.01,1.06,1.22,1.9,1.04,2.94-.05,.28-.19,.53-.34,.77-1.41,2.42-2.83,4.84-4.24,7.26,2.02-.09,4.01-.57,5.85-1.41,.43-.2,.88-.42,1.35-.36,.34,.04,.64,.23,.93,.4,.82,.51,1.64,1.02,2.46,1.52,.2,.13,.42,.27,.49,.5,.05,.17,0,.36-.04,.54-.27,.98-.53,1.96-.8,2.94,1.96,1.36,4.01,2.56,6.18,3.94,1.51,3.28,2.64,6.73,3.38,10.27,.13,.65,.26,1.32,.64,1.85,.38,.54,1.08,.91,1.71,.69,.54-.19,1.02-.79,1.54-.56,.2,.08,.33,.27,.45,.45,2.11,3.1,4.22,6.2,6.33,9.29,.14,.21,.29,.43,.32,.67,.04,.28-.06,.55-.16,.81-.75,1.93-1.77,3.75-3.09,5.3-.12,.3-.22,.61-.33,.91,.34,.24,.65,.52,.91,.83,1.09,1.25,1.64,2.87,2.26,4.41,1.27,3.16,2.89,6.18,4.84,8.98,3.7,.54,7.57,1.18,11.24,2.47,.84,.29,1.67,.62,2.55,.76,.88,.13,1.78,.06,2.67,0,2.65-.21,5.31-.42,7.96-.63,.56-.04,1.15-.1,1.61-.42,.32-.23,.54-.56,.76-.89,2.03-3.06,4.05-6.13,6.08-9.19,.12,.74,.24,1.47,.35,2.21,.03,.17,.06,.34,.15,.48,.12,.19,.33,.29,.53,.39,.86,.42,1.82,.84,2.74,.57,.31-.1,.6-.27,.88-.44,1.1-.69,2.17-1.43,3.2-2.21,.88,.91,2.4,.94,3.27,1.85,.46,.49,.68,1.16,.87,1.8,.52,1.7,1.04,3.41,1.56,5.11,1.39-.23,2.96-.17,4.52-.11,.21,.27,.11,.66,.05,.99-.07,.34-.04,.78,.28,.9,.12,.05,.26,.03,.4,.02,.81-.1,1.62-.19,2.43-.29,.19-.02,.38-.05,.54-.14,.21-.12,.33-.35,.44-.57,1.33-2.57,2.49-5.23,3.48-7.95,.05-.15,.11-.3,.07-.46Z"/><g><path d="M215.42,135.18l1.44,.48c-.29,.49-.64,1-1.05,1.52-.41,.52-.85,1.01-1.31,1.48-.46,.47-.93,.89-1.42,1.25-.14-.15-.32-.31-.55-.47-.23-.16-.42-.28-.59-.37,.47-.34,.92-.73,1.37-1.16,.44-.43,.85-.88,1.22-1.36,.37-.47,.67-.93,.89-1.38Zm-3.12-9.84h16.57v1.37h-16.57v-1.37Zm2.34,3.1h12.05v5.64h-12.05v-5.64Zm1.41,1.25v3.14h9.14v-3.14h-9.14Zm3.74,3.86h1.48v5.42c0,.42-.06,.73-.17,.95-.11,.22-.34,.38-.68,.49-.33,.1-.77,.16-1.32,.18-.55,.02-1.24,.03-2.08,.03-.04-.2-.1-.43-.2-.67-.1-.25-.19-.47-.29-.67,.44,.01,.86,.02,1.24,.02h1.61c.16-.01,.28-.04,.33-.09,.06-.05,.09-.14,.09-.27v-5.38Zm-.02-10.43h1.5v2.93h-1.5v-2.93Zm4.35,12.71l1.27-.63c.43,.42,.88,.87,1.34,1.37,.46,.49,.9,.98,1.3,1.45s.73,.9,.99,1.28l-1.37,.74c-.23-.38-.54-.81-.94-1.3-.4-.49-.83-.99-1.28-1.5-.46-.51-.89-.98-1.31-1.42Z"/><path d="M243.52,123.78l1.29,.4c-1.04,2.37-2.38,4.46-4.04,6.26-1.65,1.8-3.52,3.28-5.61,4.44-.05-.1-.13-.22-.24-.37-.11-.15-.22-.29-.33-.45-.11-.15-.22-.27-.32-.34,2.08-1.04,3.91-2.4,5.49-4.08,1.58-1.68,2.84-3.64,3.76-5.85Zm-8.83,5.11h9.82v1.27h-9.82v-1.27Zm.87-3.55h6.65v1.27h-6.65v-1.27Zm2.43,6.67h4.84v1.18h-4.84v7.33h-1.29v-7.68l.78-.84h.51Zm-.44,3.04h5.36v1.14h-5.36v-1.14Zm0,3.15h5.34v1.2h-5.34v-1.2Zm.93-14.92h1.33v6.4h-1.33v-6.4Zm3.8,8.72h1.37v8.25h-1.37v-8.25Zm3.04-7.79h5.66v1.35h-4.26v15.05h-1.41v-16.4Zm5.32,0h.27l.23-.06,1.03,.65c-.39,.91-.83,1.88-1.32,2.9-.49,1.02-.97,1.97-1.43,2.86,.68,.58,1.2,1.14,1.56,1.68,.35,.54,.6,1.05,.75,1.53,.15,.48,.22,.95,.22,1.41,0,.6-.07,1.11-.22,1.54-.15,.43-.4,.75-.75,.97-.33,.23-.76,.37-1.29,.44-.25,.03-.54,.04-.85,.04s-.63,0-.93-.02c-.01-.2-.05-.44-.12-.7-.07-.27-.17-.5-.29-.7,.32,.03,.61,.04,.89,.05,.28,0,.52,0,.72,0,.18,0,.34-.02,.49-.06,.15-.04,.29-.09,.4-.15,.22-.13,.37-.32,.46-.59,.09-.27,.13-.57,.11-.91,0-.61-.18-1.27-.55-1.99s-1.05-1.49-2.05-2.33c.25-.49,.51-1.02,.76-1.57s.5-1.1,.74-1.64c.24-.54,.46-1.06,.67-1.56,.2-.49,.38-.93,.53-1.31v-.46Z"/><path d="M258.84,125.26h1.39v5.28c0,.73-.02,1.54-.07,2.4-.04,.87-.13,1.76-.25,2.67-.12,.91-.3,1.8-.54,2.66-.24,.86-.56,1.66-.95,2.39-.09-.09-.21-.18-.35-.28-.15-.1-.29-.2-.45-.29-.15-.09-.29-.17-.4-.22,.37-.68,.66-1.42,.87-2.21,.22-.79,.38-1.61,.48-2.44,.11-.84,.18-1.65,.21-2.45,.03-.8,.05-1.54,.05-2.22v-5.28Zm.74,0h15.16v1.33h-15.16v-1.33Zm4.58,1.71l1.41,.4c-.34,.81-.75,1.63-1.23,2.46-.48,.83-1.02,1.61-1.62,2.36-.6,.74-1.23,1.39-1.92,1.95-.08-.09-.17-.2-.28-.33-.11-.13-.22-.26-.33-.39-.11-.13-.22-.23-.32-.32,.65-.51,1.24-1.1,1.8-1.79,.55-.68,1.05-1.4,1.48-2.15,.44-.75,.78-1.48,1.02-2.19Zm-1.42,3.78l1.23-1.23,.1,.04v11.02h-1.33v-9.82Zm2.74-.85h9.33v1.33h-9.33v-1.33Zm.48,3.15l1.14-.49c.3,.39,.6,.81,.9,1.26,.3,.45,.56,.89,.8,1.32s.42,.82,.54,1.16l-1.22,.57c-.11-.35-.29-.75-.52-1.2s-.49-.9-.78-1.36c-.29-.46-.57-.88-.86-1.26Zm.06-9.92h1.46v2.93h-1.46v-2.93Zm5.17,3.99h1.39v11.76c0,.44-.06,.78-.18,1.01-.12,.23-.33,.4-.62,.51-.3,.11-.72,.19-1.23,.22-.52,.03-1.18,.04-1.98,.03-.03-.19-.09-.42-.18-.67-.09-.26-.19-.49-.29-.69,.61,.01,1.16,.02,1.66,.03,.5,0,.83,0,1,0,.16-.01,.28-.05,.34-.1,.06-.06,.1-.16,.1-.31v-11.76Z"/></g><g><path d="M13.72,48.84l1.36,.32c-.39,1.19-.85,2.33-1.4,3.41-.55,1.08-1.16,2.08-1.82,2.98s-1.38,1.7-2.15,2.38c-.07-.09-.17-.19-.31-.31-.14-.11-.29-.23-.43-.35-.15-.12-.28-.21-.39-.28,.77-.61,1.48-1.34,2.13-2.19s1.23-1.78,1.73-2.8c.5-1.01,.93-2.07,1.28-3.17Zm4.5,2.75h.26l.25-.07,.9,.42c-.52,2.14-1.27,4.03-2.26,5.67-.99,1.64-2.13,3.03-3.44,4.17-1.31,1.14-2.7,2.06-4.17,2.74-.07-.11-.16-.24-.27-.38-.11-.14-.24-.28-.37-.43s-.25-.25-.37-.31c1.47-.62,2.84-1.46,4.11-2.52,1.26-1.05,2.36-2.33,3.29-3.83,.93-1.5,1.62-3.23,2.07-5.18v-.29Zm-5.03,0h5.49v1.29h-6.1l.61-1.29Zm4.74,4.37c.38,1.08,.9,2.1,1.53,3.06s1.37,1.82,2.22,2.56c.84,.74,1.77,1.32,2.76,1.74-.1,.09-.21,.2-.33,.34-.12,.14-.23,.27-.33,.41-.1,.14-.19,.27-.27,.39-1.03-.5-1.98-1.15-2.84-1.96-.86-.81-1.62-1.74-2.29-2.79s-1.21-2.17-1.64-3.37l1.19-.37Z"/><path d="M36.14,57.24h1.34c-.09,.79-.23,1.52-.41,2.18s-.44,1.26-.77,1.79c-.33,.53-.78,1.01-1.35,1.43-.57,.42-1.28,.78-2.14,1.08s-1.9,.55-3.13,.76c-.02-.11-.07-.24-.14-.37-.07-.14-.15-.27-.24-.42-.08-.14-.17-.26-.26-.35,1.14-.17,2.12-.38,2.92-.63,.8-.25,1.46-.55,1.97-.9,.52-.35,.92-.75,1.22-1.2,.29-.45,.52-.95,.66-1.51,.15-.56,.26-1.18,.34-1.86Zm-6.88,1.79h15.35v1.14h-15.35v-1.14Zm.14-2.74h15.03v1.16h-15.03v-1.16Zm.68-5.07h13.69v1.14h-13.69v-1.14Zm.83,2.53h12.09v1.1h-12.09v-1.1Zm1.33-4.47l1.12-.48c.31,.32,.6,.67,.88,1.07,.28,.4,.48,.76,.6,1.09l-1.19,.53c-.1-.32-.28-.69-.54-1.1-.26-.42-.55-.79-.87-1.1Zm3.99,2.58h1.29v5.25h-1.29v-5.25Zm1.63,7.5c.49,1.21,1.31,2.13,2.46,2.76,1.16,.63,2.66,1.03,4.52,1.2-.09,.09-.19,.21-.29,.35-.1,.14-.2,.29-.28,.43-.08,.15-.16,.28-.21,.39-1.29-.17-2.42-.45-3.39-.84-.97-.39-1.78-.92-2.43-1.58-.65-.66-1.17-1.49-1.56-2.49l1.17-.22Zm2.36-10.56l1.33,.41c-.27,.4-.56,.79-.86,1.17-.3,.39-.58,.71-.84,.99l-1.1-.37c.17-.2,.35-.43,.53-.69,.18-.25,.36-.52,.53-.78s.31-.51,.42-.72Z"/><path d="M49.42,54.5l.68-.95c.36,.15,.75,.32,1.15,.52s.78,.41,1.15,.62,.65,.42,.87,.61l-.71,1.05c-.23-.19-.51-.4-.86-.63-.35-.23-.72-.45-1.11-.66-.4-.21-.78-.4-1.16-.56Zm.41,8.96c.28-.44,.59-.97,.92-1.6,.33-.62,.66-1.28,1-1.96s.65-1.36,.94-2.01l1,.78c-.26,.6-.55,1.23-.86,1.89-.31,.66-.63,1.3-.95,1.94-.32,.63-.63,1.22-.93,1.77l-1.12-.8Zm.49-13.57l.71-.92c.37,.16,.76,.34,1.15,.55,.39,.21,.76,.43,1.11,.65,.35,.23,.63,.44,.85,.65l-.73,1.05c-.22-.22-.5-.44-.84-.68-.35-.24-.71-.47-1.1-.71-.39-.23-.77-.43-1.15-.6Zm6.56,10.56l1.29,.44c-.33,.45-.71,.9-1.13,1.34-.42,.44-.87,.86-1.33,1.25s-.9,.73-1.33,1.03c-.08-.09-.18-.19-.31-.3-.13-.11-.27-.22-.41-.32-.14-.11-.26-.19-.37-.25,.67-.4,1.33-.88,1.97-1.45,.65-.57,1.18-1.15,1.62-1.75Zm-3.23-1.9h11.54v1.19h-11.54v-1.19Zm1.75-8.25l1.29,.31v8.69h-1.29v-8.99Zm7.5-1.27l1.02,1.02c-.7,.23-1.5,.44-2.38,.65-.88,.2-1.79,.39-2.73,.56s-1.84,.32-2.73,.46c-.02-.16-.07-.34-.15-.54-.08-.2-.16-.37-.24-.5,.86-.14,1.74-.29,2.64-.47,.9-.18,1.74-.37,2.54-.57s1.48-.41,2.03-.61Zm-6.87,4.56h8.81v1.21h-8.81v-1.21Zm4.62,7.5l1.07-.61c.43,.32,.87,.67,1.33,1.06,.45,.39,.88,.78,1.28,1.17s.72,.75,.96,1.06l-1.14,.73c-.23-.32-.54-.68-.93-1.08-.39-.4-.81-.81-1.26-1.22-.45-.41-.89-.78-1.32-1.12Zm.49-6.9h1.26v5.2h-1.26v-5.2Z"/><path d="M70.46,49.71h1.1v12.87h-1.1v-12.87Zm.6,5.1h6.05v1.14h-6.05v-1.14Zm.1-5.1h6.53v11.54h-6.53v-1.14h5.41v-9.27h-5.41v-1.14Zm2.38,.56h1.04v10.34h-1.04v-10.34Zm4.47,.6h7.65v1.26h-7.65v-1.26Zm3.93,.58h1.31v11.37c0,.41-.06,.72-.18,.94-.12,.22-.33,.39-.62,.5-.32,.1-.74,.16-1.27,.19-.53,.02-1.19,.03-2,.03-.02-.11-.06-.25-.11-.41-.05-.16-.1-.31-.16-.47-.06-.15-.12-.29-.19-.4,.42,.01,.82,.02,1.19,.03,.37,0,.7,0,.99,0,.28,0,.48,0,.6,0,.17-.01,.29-.05,.35-.1,.06-.06,.09-.16,.09-.32v-11.36Z"/></g><g><polyline class="cls-3" points="116.19 44.7 98.65 69.36 0 69.36"/><path class="cls-1" d="M114.41,43.57c.67-.95,1.99-1.17,2.94-.5,.95,.67,1.17,1.99,.5,2.94s-1.99,1.17-2.94,.5c-.95-.67-1.17-1.99-.5-2.94Z"/></g></g></g></svg>