<?xml version="1.0" encoding="UTF-8"?><svg id="_レイヤー_2" xmlns="http://www.w3.org/2000/svg" width="201.43" height="236.07" xmlns:xlink="http://www.w3.org/1999/xlink" viewBox="0 0 201.43 236.07"><defs><style>.cls-1{fill:#fff;}.cls-2{fill:url(#_名称未設定グラデーション_3);}</style><linearGradient id="_名称未設定グラデーション_3" x1="0" y1="118.04" x2="201.43" y2="118.04" gradientUnits="userSpaceOnUse"><stop offset="0" stop-color="#8ab275"/><stop offset=".06" stop-color="#77a963"/><stop offset=".15" stop-color="#529741"/><stop offset=".22" stop-color="#3f923f"/><stop offset=".33" stop-color="#2d8d3d"/><stop offset=".45" stop-color="#218a3b"/><stop offset=".61" stop-color="#1a883b"/><stop offset="1" stop-color="#18883b"/><stop offset="1" stop-color="#6eb484"/><stop offset="1" stop-color="#bcdcc6"/><stop offset="1" stop-color="#ecf5ef"/><stop offset="1" stop-color="#fff"/></linearGradient></defs><g id="_文字"><g><path class="cls-2" d="M201.43,100.72c0,55.62-100.72,135.36-100.72,135.36,0,0-100.72-79.73-100.72-135.36S45.09,0,100.72,0s100.72,45.09,100.72,100.72Z"/><g><path class="cls-1" d="M71.67,70.97l2.87,.94c-.58,.98-1.28,1.99-2.1,3.02-.82,1.03-1.69,2.01-2.6,2.94-.92,.93-1.86,1.76-2.81,2.49-.28-.3-.64-.61-1.09-.92-.45-.32-.84-.56-1.17-.74,.93-.68,1.84-1.45,2.72-2.3,.88-.86,1.69-1.76,2.42-2.7,.73-.94,1.32-1.86,1.77-2.74Zm-6.19-19.56h32.92v2.72h-32.92v-2.72Zm4.64,6.15h23.93v11.21h-23.93v-11.21Zm2.79,2.49v6.23h18.16v-6.23h-18.16Zm7.44,7.66h2.94v10.76c0,.83-.11,1.46-.34,1.89-.23,.43-.68,.76-1.36,.98-.65,.2-1.53,.32-2.62,.36-1.09,.04-2.47,.06-4.13,.06-.08-.4-.21-.85-.4-1.34-.19-.49-.38-.94-.59-1.34,.88,.02,1.7,.04,2.47,.04h3.19c.33-.03,.55-.09,.66-.19,.11-.1,.17-.28,.17-.53v-10.68Zm-.04-20.73h2.98v5.81h-2.98v-5.81Zm8.65,25.26l2.53-1.25c.86,.83,1.74,1.74,2.66,2.72,.92,.98,1.78,1.94,2.59,2.89,.81,.94,1.46,1.79,1.96,2.55l-2.72,1.47c-.45-.76-1.08-1.62-1.87-2.59-.79-.97-1.64-1.96-2.55-2.98-.91-1.02-1.77-1.96-2.6-2.81Z"/><path class="cls-1" d="M127.51,48.32l2.57,.79c-2.06,4.71-4.74,8.85-8.02,12.44-3.28,3.59-7,6.53-11.16,8.81-.1-.2-.26-.45-.47-.74-.21-.29-.43-.59-.66-.89s-.44-.53-.64-.68c4.13-2.06,7.76-4.77,10.91-8.12,3.15-3.35,5.64-7.22,7.47-11.63Zm-17.55,10.16h19.52v2.53h-19.52v-2.53Zm1.74-7.06h13.21v2.53h-13.21v-2.53Zm4.83,13.25h9.63v2.34h-9.63v14.57h-2.57v-15.25l1.55-1.66h1.02Zm-.87,6.04h10.65v2.27h-10.65v-2.27Zm0,6.27h10.61v2.38h-10.61v-2.38Zm1.85-29.63h2.64v12.72h-2.64v-12.72Zm7.55,17.33h2.72v16.38h-2.72v-16.38Zm6.04-15.48h11.25v2.68h-8.46v29.9h-2.79V49.19Zm10.57,0h.53l.45-.11,2.04,1.28c-.78,1.81-1.66,3.73-2.62,5.76-.97,2.03-1.92,3.92-2.85,5.68,1.36,1.16,2.39,2.27,3.1,3.34,.7,1.07,1.2,2.08,1.49,3.04,.29,.96,.43,1.89,.43,2.79,0,1.18-.15,2.2-.43,3.06-.29,.86-.79,1.5-1.49,1.93-.65,.45-1.51,.74-2.57,.87-.5,.05-1.07,.08-1.7,.08s-1.25-.01-1.85-.04c-.03-.4-.11-.87-.25-1.4-.14-.53-.33-.99-.59-1.4,.63,.05,1.22,.08,1.77,.09,.55,.01,1.03,0,1.43-.02,.35,0,.68-.04,.98-.11s.57-.18,.79-.3c.43-.25,.73-.64,.91-1.17,.18-.53,.25-1.13,.23-1.81,0-1.21-.36-2.52-1.09-3.94-.73-1.42-2.09-2.96-4.08-4.62,.5-.98,1.01-2.02,1.51-3.11,.5-1.09,.99-2.18,1.47-3.27,.48-1.08,.92-2.11,1.32-3.1,.4-.98,.75-1.85,1.06-2.6v-.91Z"/></g><g><path class="cls-1" d="M24.14,99.64l1.51,.36c-.43,1.32-.95,2.58-1.56,3.78-.61,1.2-1.28,2.3-2.02,3.31-.74,1.01-1.53,1.89-2.38,2.64-.08-.1-.19-.21-.35-.34-.16-.13-.32-.25-.48-.39-.16-.13-.31-.24-.43-.31,.85-.68,1.64-1.49,2.37-2.43,.72-.94,1.36-1.98,1.92-3.1,.56-1.12,1.03-2.3,1.42-3.52Zm5,3.05h.28l.28-.08,1,.47c-.58,2.38-1.41,4.47-2.51,6.29-1.09,1.82-2.37,3.36-3.82,4.63-1.45,1.27-2.99,2.28-4.63,3.04-.08-.13-.18-.27-.3-.42-.13-.16-.26-.31-.41-.47-.14-.16-.28-.27-.41-.35,1.63-.69,3.15-1.62,4.55-2.79,1.4-1.17,2.62-2.59,3.65-4.25,1.03-1.67,1.8-3.58,2.3-5.74v-.32Zm-5.58,0h6.09v1.43h-6.77l.68-1.43Zm5.26,4.84c.43,1.19,.99,2.33,1.7,3.39,.7,1.07,1.52,2.01,2.46,2.84,.94,.82,1.96,1.47,3.06,1.93-.11,.1-.24,.23-.37,.38-.13,.15-.25,.3-.37,.45-.11,.15-.21,.3-.3,.43-1.14-.55-2.19-1.28-3.15-2.18-.96-.9-1.8-1.93-2.54-3.09-.74-1.16-1.34-2.41-1.82-3.74l1.32-.41Z"/><path class="cls-1" d="M45.24,108.96h1.49c-.1,.88-.25,1.69-.45,2.42-.2,.74-.49,1.4-.86,1.99-.37,.59-.87,1.12-1.5,1.58-.63,.47-1.42,.86-2.38,1.2-.96,.33-2.11,.61-3.47,.84-.03-.13-.08-.26-.16-.41-.08-.15-.17-.3-.26-.46-.09-.16-.19-.29-.29-.39,1.27-.19,2.35-.42,3.23-.7,.89-.28,1.61-.61,2.19-1,.57-.39,1.02-.83,1.35-1.33,.33-.5,.57-1.06,.74-1.68s.29-1.31,.38-2.06Zm-7.63,1.98h17.02v1.26h-17.02v-1.26Zm.15-3.03h16.66v1.28h-16.66v-1.28Zm.75-5.62h15.18v1.26h-15.18v-1.26Zm.92,2.81h13.4v1.23h-13.4v-1.23Zm1.47-4.96l1.24-.53c.34,.35,.66,.75,.97,1.19,.31,.44,.53,.84,.67,1.21l-1.32,.58c-.11-.35-.31-.76-.6-1.23-.29-.46-.61-.87-.96-1.23Zm4.43,2.87h1.43v5.82h-1.43v-5.82Zm1.81,8.31c.54,1.34,1.45,2.37,2.73,3.06,1.28,.7,2.95,1.14,5.01,1.33-.1,.1-.21,.23-.32,.39s-.22,.32-.31,.48-.17,.31-.24,.43c-1.43-.19-2.69-.5-3.76-.93-1.07-.43-1.97-1.02-2.7-1.75-.72-.74-1.3-1.66-1.72-2.76l1.3-.24Zm2.62-11.71l1.47,.45c-.3,.44-.62,.87-.95,1.3-.33,.43-.64,.79-.93,1.09l-1.23-.41c.19-.23,.38-.48,.58-.76,.2-.28,.4-.57,.58-.87,.19-.3,.35-.56,.47-.8Z"/><path class="cls-1" d="M56.19,105.92l.75-1.06c.4,.16,.83,.36,1.27,.57,.45,.22,.87,.45,1.27,.69,.4,.24,.72,.47,.96,.68l-.79,1.17c-.25-.21-.57-.45-.95-.7-.38-.25-.79-.5-1.23-.74-.44-.24-.87-.45-1.28-.62Zm.45,9.93c.31-.49,.65-1.08,1.02-1.77,.36-.69,.74-1.42,1.11-2.18,.38-.76,.72-1.5,1.04-2.23l1.11,.87c-.29,.67-.61,1.36-.95,2.09-.35,.73-.7,1.45-1.06,2.15s-.7,1.36-1.03,1.96l-1.24-.89Zm.55-15.04l.79-1.02c.41,.18,.84,.38,1.27,.61,.43,.23,.85,.47,1.23,.73,.39,.25,.7,.49,.94,.72l-.81,1.17c-.24-.24-.55-.49-.93-.75-.38-.26-.79-.52-1.23-.78-.43-.26-.86-.48-1.27-.67Zm7.28,11.71l1.43,.49c-.36,.5-.78,1-1.25,1.49-.47,.49-.96,.95-1.47,1.39s-1,.81-1.48,1.14c-.09-.1-.2-.21-.35-.33-.14-.12-.3-.24-.45-.36-.16-.12-.29-.21-.41-.27,.74-.44,1.47-.97,2.19-1.6,.72-.63,1.31-1.28,1.79-1.94Zm-3.58-2.11h12.8v1.32h-12.8v-1.32Zm1.94-9.14l1.43,.34v9.63h-1.43v-9.97Zm8.31-1.41l1.13,1.13c-.78,.25-1.66,.49-2.64,.72s-1.99,.43-3.03,.62-2.05,.36-3.03,.51c-.03-.18-.08-.37-.17-.59-.09-.22-.18-.41-.26-.56,.95-.15,1.93-.32,2.92-.52,.99-.19,1.93-.41,2.82-.63,.89-.23,1.64-.45,2.25-.68Zm-7.62,5.05h9.77v1.34h-9.77v-1.34Zm5.13,8.31l1.19-.68c.48,.35,.97,.74,1.47,1.18,.5,.43,.98,.87,1.42,1.3,.45,.43,.8,.83,1.06,1.18l-1.26,.81c-.25-.35-.59-.75-1.03-1.2-.43-.45-.9-.9-1.4-1.35-.5-.45-.98-.87-1.46-1.24Zm.55-7.65h1.4v5.77h-1.4v-5.77Z"/><path class="cls-1" d="M85,102.6c-.13,.98-.29,2-.48,3.07-.19,1.07-.44,2.11-.74,3.11-.38,1.29-.79,2.38-1.25,3.24s-.95,1.52-1.48,1.96c-.53,.44-1.08,.66-1.66,.66s-1.09-.2-1.6-.6c-.52-.4-.94-.98-1.26-1.74-.33-.76-.49-1.66-.49-2.69s.21-2,.63-2.92c.42-.92,1.01-1.73,1.75-2.44,.75-.71,1.62-1.27,2.63-1.69,1.01-.41,2.08-.62,3.22-.62s2.1,.18,2.99,.55c.89,.36,1.64,.86,2.27,1.5,.63,.63,1.11,1.37,1.45,2.21,.34,.84,.51,1.73,.51,2.69,0,1.32-.28,2.48-.84,3.49-.56,1.01-1.36,1.82-2.41,2.45-1.05,.63-2.32,1.04-3.82,1.24l-.89-1.4c.3-.04,.59-.08,.87-.11,.28-.04,.53-.08,.75-.13,.6-.14,1.19-.35,1.76-.65,.57-.3,1.08-.67,1.54-1.13,.45-.46,.81-1.01,1.08-1.64,.27-.63,.41-1.36,.41-2.18,0-.77-.13-1.48-.38-2.14-.25-.66-.62-1.24-1.11-1.74-.49-.5-1.09-.9-1.79-1.19-.7-.29-1.51-.43-2.41-.43-1.03,0-1.96,.19-2.8,.57-.84,.38-1.55,.87-2.13,1.48-.58,.61-1.03,1.28-1.35,2-.31,.72-.47,1.43-.47,2.12,0,.79,.1,1.44,.31,1.95,.21,.51,.46,.88,.75,1.12,.3,.24,.59,.36,.88,.36s.61-.15,.92-.44c.31-.3,.63-.77,.96-1.43,.33-.66,.65-1.52,.96-2.57,.28-.9,.51-1.87,.71-2.88,.19-1.02,.34-2.02,.42-3l1.58,.02Z"/><path class="cls-1" d="M97.8,105.69l1,.34c-.23,.74-.5,1.5-.81,2.27-.31,.77-.66,1.53-1.05,2.27-.38,.74-.78,1.43-1.2,2.06-.41,.63-.84,1.18-1.26,1.63-.08-.2-.19-.43-.35-.68-.16-.25-.3-.46-.42-.64,.4-.4,.8-.88,1.21-1.44,.4-.56,.79-1.17,1.15-1.82,.36-.65,.69-1.32,.99-2.01,.3-.68,.54-1.35,.74-1.99Zm-3.64-.47h8.41v1.32h-8.41v-1.32Zm7.33-5.41l.94,1.11c-.67,.25-1.43,.48-2.3,.69-.87,.21-1.77,.39-2.7,.54-.93,.15-1.83,.28-2.7,.38-.03-.16-.08-.35-.16-.57-.08-.21-.16-.4-.24-.57,.83-.11,1.69-.25,2.58-.41,.89-.16,1.74-.34,2.54-.54,.8-.2,1.47-.41,2.03-.64Zm-3.62,1.41h1.4v15.72h-1.4v-15.72Zm1.3,5.69c.11,.11,.28,.3,.51,.55,.23,.25,.48,.53,.75,.85,.28,.31,.55,.63,.82,.94,.27,.31,.51,.6,.73,.86,.21,.26,.36,.45,.45,.57l-.87,1.17c-.15-.25-.36-.57-.64-.96-.28-.39-.57-.8-.89-1.23-.31-.43-.62-.83-.91-1.2-.29-.37-.52-.66-.68-.88l.72-.68Zm4.05-5.52h7.01v14.61h-1.43v-13.25h-4.2v13.38h-1.38v-14.74Zm.51,11.84h5.86v1.36h-5.86v-1.36Z"/><path class="cls-1" d="M113.9,100.94h15.27v15.87h-1.45v-14.5h-12.42v14.5h-1.4v-15.87Zm.75,13.29h13.76v1.43h-13.76v-1.43Zm.04-6.73h13.72v1.41h-13.72v-1.41Zm5.98-5.92h1.43v13.38h-1.43v-13.38Z"/><path class="cls-1" d="M133.52,107.2h1.36v2.43c0,.54-.03,1.13-.08,1.77-.06,.64-.15,1.29-.29,1.95-.14,.66-.34,1.3-.6,1.93-.26,.63-.6,1.21-1.02,1.73-.09-.08-.2-.16-.35-.25-.14-.09-.29-.19-.44-.27-.15-.09-.28-.15-.4-.19,.53-.68,.92-1.41,1.19-2.21s.44-1.58,.52-2.36c.08-.78,.12-1.49,.12-2.13v-2.41Zm.17-6.26h13.59v5.33h-13.59v-5.33Zm.38,10.33h14.7v1.06h-14.7v-1.06Zm.17-4.07h14.08v1.07h-14.08v-1.07Zm.62,8.33c.89-.1,1.97-.23,3.22-.39,1.26-.16,2.54-.32,3.86-.48l.04,1.17c-1.24,.16-2.48,.32-3.7,.48-1.23,.16-2.31,.3-3.25,.42l-.17-1.21Zm.13-13.61v1.23h10.93v-1.23h-10.93Zm0,2.13v1.24h10.93v-1.24h-10.93Zm.94,5.2h10.75v1h-10.75v-1Zm.58,2.32h1.38v4.32l-1.38,.11v-4.43Zm1.11-11.93h1.38v6.28h-1.38v-6.28Zm3.28,11.93c.39,.79,.96,1.48,1.72,2.05,.75,.58,1.67,1.04,2.74,1.4,1.07,.35,2.28,.59,3.63,.72-.1,.1-.2,.22-.31,.37-.11,.14-.2,.3-.29,.45-.09,.16-.16,.3-.23,.42-1.42-.19-2.68-.5-3.78-.92-1.1-.43-2.04-.99-2.83-1.7-.79-.7-1.4-1.53-1.84-2.49l1.19-.3Zm.87-11.93h1.38v6.28h-1.38v-6.28Zm4.92,12.65l1,.85c-.41,.2-.86,.4-1.35,.6-.48,.2-.96,.39-1.43,.57s-.91,.33-1.33,.45l-.72-.68c.4-.15,.84-.33,1.31-.54,.47-.21,.93-.42,1.38-.65,.45-.23,.83-.43,1.14-.6Z"/><path class="cls-1" d="M151.32,100.47h15.76v16.51h-1.4v-15.23h-13.03v15.23h-1.34v-16.51Zm.83,14.44h14.31v1.28h-14.31v-1.28Zm6.94-5.45l1.13,.4c-.48,.54-1.06,1.05-1.74,1.54-.69,.48-1.4,.92-2.16,1.31-.75,.39-1.5,.73-2.24,1.02-.05-.09-.13-.19-.23-.31-.1-.12-.2-.24-.3-.36-.1-.12-.2-.21-.28-.27,.74-.25,1.48-.54,2.21-.88,.74-.33,1.42-.71,2.05-1.12,.63-.41,1.15-.85,1.56-1.32Zm-5.49-4.2h11.14v.9h-11.14v-.9Zm1.09-2.07h9.05v.9h-9.05v-.9Zm.11,3.85h8.82v3.2h-8.82v-3.2Zm1.21,.85v1.51h6.35v-1.51h-6.35Zm2.22,2.45h1.28v4.03h-1.28v-4.03Zm.25-8.18h1.3v3.64h-1.3v-3.64Zm1.23,7.82c.36,.48,.84,.93,1.41,1.37,.58,.43,1.22,.82,1.92,1.15,.7,.33,1.41,.59,2.11,.78-.13,.11-.26,.26-.41,.44-.15,.18-.27,.35-.36,.5-.72-.24-1.43-.55-2.15-.94-.72-.39-1.38-.84-1.98-1.34-.6-.5-1.11-1.03-1.51-1.58l.96-.38Zm3.92-.09l.92,.55c-.43,.35-.89,.69-1.39,1.02-.5,.33-.97,.6-1.4,.83l-.75-.51c.28-.18,.58-.37,.9-.59,.33-.22,.64-.45,.94-.68,.3-.23,.56-.44,.77-.61Z"/><path class="cls-1" d="M170.11,103.07c.35-.01,.68-.03,.97-.05,.29-.02,.53-.03,.71-.05,.3-.04,.74-.08,1.31-.14,.57-.06,1.23-.12,1.97-.19,.74-.07,1.54-.14,2.39-.22,.85-.08,1.72-.15,2.58-.23,.69-.06,1.34-.12,1.96-.16,.62-.04,1.19-.08,1.72-.11,.53-.03,1-.05,1.41-.07v1.51c-.35,0-.75,0-1.21,.02-.45,.01-.9,.04-1.34,.08-.44,.04-.82,.11-1.15,.21-.67,.21-1.27,.54-1.8,.97-.53,.43-.99,.93-1.37,1.5-.38,.57-.66,1.15-.86,1.75-.2,.6-.29,1.19-.29,1.75,0,.73,.13,1.37,.38,1.91,.25,.55,.59,1.01,1.03,1.39,.43,.38,.93,.69,1.48,.92,.55,.24,1.14,.42,1.76,.54,.62,.12,1.24,.19,1.86,.2l-.55,1.56c-.7-.03-1.41-.12-2.11-.29-.7-.17-1.38-.41-2.02-.74-.64-.32-1.21-.73-1.72-1.22-.5-.49-.9-1.06-1.19-1.72-.29-.65-.43-1.4-.43-2.24,0-.98,.17-1.89,.52-2.72,.35-.84,.79-1.57,1.33-2.2,.54-.63,1.1-1.11,1.68-1.45-.4,.05-.9,.11-1.5,.17-.6,.06-1.23,.13-1.91,.2-.68,.07-1.36,.15-2.05,.24-.69,.09-1.32,.17-1.91,.25-.59,.08-1.09,.17-1.49,.25l-.17-1.64Zm12.31,2.62c.14,.2,.3,.46,.5,.76,.19,.31,.39,.62,.58,.94,.19,.32,.35,.63,.47,.91l-.96,.45c-.21-.46-.45-.93-.72-1.39-.26-.46-.54-.88-.83-1.27l.96-.41Zm2.05-.79c.15,.2,.33,.45,.53,.75,.2,.3,.4,.61,.59,.93,.19,.32,.37,.63,.52,.91l-.98,.47c-.23-.46-.47-.92-.74-1.38s-.55-.87-.84-1.26l.92-.43Z"/><path class="cls-1" d="M32.42,136l1.04,.36c-.31,.75-.71,1.5-1.2,2.23-.48,.74-1.01,1.4-1.58,2.01-.57,.6-1.15,1.1-1.72,1.49-.08-.1-.17-.22-.28-.35-.11-.13-.23-.26-.34-.39-.11-.13-.22-.23-.32-.32,.57-.33,1.13-.76,1.69-1.3,.56-.54,1.08-1.13,1.56-1.78,.48-.65,.87-1.3,1.16-1.95Zm-4.32-4.34h17.14v1.3H28.1v-1.3Zm.4,3.62h8.82v1.24h-8.82v-1.24Zm.55-7.07h7.92v1.28h-7.92v-1.28Zm3.34-1.87h1.34v6.18h-1.34v-6.18Zm0,6.99h1.34v10.35h-1.34v-10.35Zm1.19,3.86c.18,.09,.43,.25,.76,.47,.33,.23,.69,.47,1.07,.74,.38,.26,.73,.51,1.05,.74,.31,.23,.55,.4,.7,.51l-.75,1.17c-.19-.18-.44-.4-.75-.66-.31-.26-.65-.54-1.01-.83s-.7-.56-1.03-.8c-.33-.25-.59-.44-.79-.57l.75-.75Zm9.37-3.32l1.28,.47c-.55,1.28-1.23,2.5-2.02,3.65-.79,1.15-1.69,2.2-2.69,3.15-1,.95-2.08,1.76-3.23,2.44-.11-.18-.26-.37-.45-.58s-.38-.4-.57-.55c1.13-.6,2.18-1.34,3.15-2.22,.97-.88,1.84-1.86,2.61-2.95,.77-1.09,1.41-2.22,1.91-3.4Zm-4.77-7.52h1.41c-.01,1.8,.03,3.5,.14,5.1,.11,1.6,.27,3.06,.49,4.38,.22,1.32,.49,2.46,.81,3.43,.32,.97,.68,1.71,1.08,2.23,.4,.52,.84,.78,1.32,.78,.26,0,.46-.24,.57-.71,.12-.47,.21-1.27,.27-2.4,.15,.14,.34,.28,.56,.41,.22,.14,.42,.24,.59,.3-.09,.97-.21,1.73-.36,2.28-.15,.55-.37,.94-.65,1.17-.28,.23-.65,.34-1.1,.34-.63,0-1.19-.21-1.69-.63-.5-.42-.93-1.02-1.31-1.79s-.7-1.69-.96-2.75-.48-2.24-.66-3.53c-.18-1.29-.3-2.66-.39-4.11-.08-1.45-.13-2.96-.14-4.51Zm2.64,1.15l1-.74c.39,.29,.78,.61,1.17,.97,.39,.36,.75,.72,1.08,1.07s.6,.69,.8,1.01l-1.07,.81c-.19-.3-.44-.64-.76-1.01-.32-.37-.68-.74-1.06-1.11-.39-.37-.77-.71-1.15-1.01Z"/><path class="cls-1" d="M46.73,139.28c.53-.19,1.13-.41,1.82-.67,.68-.26,1.41-.53,2.19-.83,.77-.3,1.54-.59,2.31-.88l.28,1.3c-1.07,.45-2.14,.9-3.22,1.33-1.08,.43-2.05,.82-2.9,1.16l-.47-1.41Zm.34-8.39h5.73v1.34h-5.73v-1.34Zm2.28-4.41h1.36v12.29h-1.36v-12.29Zm2.98,6.9h11.9v1.28h-11.9v-1.28Zm.66-4.79h10.88v1.28h-10.88v-1.28Zm1.07,7.86h8.92v7.16h-1.41v-5.88h-6.16v5.94h-1.34v-7.22Zm.62-6.16l1.26-.3c.24,.47,.45,.98,.62,1.55,.18,.57,.29,1.06,.34,1.47l-1.34,.36c-.04-.43-.14-.93-.31-1.5-.17-.57-.36-1.1-.57-1.57Zm.02,11.12h7.54v1.3h-7.54v-1.3Zm3-15.02h1.41v2.7h-1.41v-2.7Zm3.3,3.53l1.43,.4c-.21,.53-.43,1.07-.66,1.63-.23,.56-.44,1.03-.64,1.42l-1.21-.36c.13-.28,.26-.6,.4-.96,.14-.36,.27-.73,.39-1.1,.12-.37,.22-.71,.29-1.03Z"/><path class="cls-1" d="M71.35,127.5c-.05,.31-.09,.63-.11,.95-.03,.32-.04,.64-.06,.95-.03,.53-.05,1.18-.08,1.96-.03,.78-.05,1.61-.08,2.48-.03,.87-.04,1.74-.06,2.61-.01,.87-.02,1.65-.02,2.34s.13,1.24,.4,1.66c.26,.41,.63,.71,1.09,.89,.46,.18,1,.26,1.6,.26,.85,0,1.63-.11,2.32-.33,.69-.22,1.31-.52,1.85-.89,.54-.37,1.02-.79,1.44-1.25,.42-.46,.8-.94,1.14-1.43l1.07,1.28c-.33,.45-.73,.92-1.2,1.4-.47,.48-1.03,.93-1.67,1.35-.64,.41-1.38,.75-2.21,1.02-.84,.26-1.77,.4-2.8,.4-.89,0-1.68-.14-2.38-.41-.69-.28-1.23-.72-1.62-1.34-.39-.62-.58-1.43-.58-2.45,0-.57,0-1.19,.02-1.88,.01-.68,.03-1.39,.06-2.12,.02-.73,.04-1.44,.06-2.14s.03-1.34,.04-1.93c.01-.59,.02-1.08,.02-1.47,0-.35-.01-.69-.04-1.02-.03-.33-.06-.63-.11-.91l1.9,.02Z"/><path class="cls-1" d="M85.39,129.67c.36-.01,.69-.03,.98-.05,.29-.02,.52-.03,.7-.05,.3-.04,.74-.08,1.31-.14,.57-.06,1.23-.12,1.97-.19,.74-.07,1.54-.14,2.39-.22,.85-.08,1.72-.15,2.58-.23,.69-.06,1.34-.12,1.96-.16,.62-.04,1.19-.08,1.72-.11,.53-.03,1-.05,1.41-.07v1.51c-.35-.01-.75-.01-1.21,0-.45,.01-.9,.04-1.34,.08-.44,.04-.82,.12-1.15,.22-.67,.21-1.27,.54-1.8,.97s-.99,.93-1.37,1.49c-.38,.56-.66,1.14-.86,1.75-.2,.61-.29,1.19-.29,1.74,0,.74,.13,1.39,.38,1.93,.25,.55,.59,1.01,1.03,1.39s.93,.69,1.49,.92c.56,.24,1.15,.41,1.76,.53,.62,.11,1.23,.18,1.85,.21l-.55,1.56c-.69-.03-1.39-.12-2.1-.29-.71-.17-1.39-.41-2.03-.74-.64-.32-1.21-.73-1.72-1.22-.5-.49-.9-1.06-1.19-1.72-.29-.65-.43-1.4-.43-2.24,0-.98,.17-1.89,.52-2.72,.35-.84,.79-1.57,1.33-2.2,.54-.63,1.1-1.11,1.68-1.45-.4,.05-.9,.11-1.49,.17-.59,.06-1.23,.13-1.91,.2-.69,.07-1.37,.15-2.05,.24-.68,.09-1.32,.17-1.91,.25-.6,.08-1.1,.17-1.5,.25l-.17-1.64Z"/><path class="cls-1" d="M106.85,129.03c-.03,.15-.05,.34-.07,.57-.02,.23-.04,.45-.06,.68-.02,.23-.03,.42-.03,.58-.01,.39-.02,.83,0,1.33,0,.5,.02,1.01,.04,1.55,.02,.53,.05,1.07,.1,1.59,.1,1.04,.27,1.96,.51,2.74s.53,1.4,.88,1.84c.35,.44,.74,.66,1.18,.66,.24,0,.47-.11,.7-.33,.23-.22,.44-.52,.65-.89,.21-.37,.4-.79,.57-1.24,.17-.46,.31-.92,.42-1.39l1.19,1.34c-.38,1.07-.76,1.91-1.14,2.54-.38,.62-.77,1.07-1.17,1.35-.4,.28-.81,.41-1.23,.41-.59,0-1.16-.22-1.72-.65-.55-.43-1.03-1.14-1.43-2.11-.4-.97-.69-2.27-.87-3.89-.06-.55-.11-1.15-.14-1.79-.03-.64-.05-1.25-.06-1.83,0-.58,0-1.05,0-1.41,0-.21,0-.49-.02-.83-.01-.34-.05-.62-.11-.85l1.83,.04Zm9.82,.53c.34,.43,.66,.93,.97,1.5,.31,.57,.59,1.18,.85,1.83,.26,.65,.49,1.32,.7,2.01s.38,1.38,.51,2.06c.13,.69,.23,1.34,.29,1.97l-1.51,.62c-.08-.85-.21-1.72-.4-2.61s-.42-1.75-.7-2.58c-.28-.84-.6-1.62-.96-2.37-.36-.74-.77-1.38-1.23-1.92l1.47-.51Z"/><path class="cls-1" d="M132.29,127.22c-.03,.16-.05,.35-.07,.55-.02,.2-.03,.44-.05,.72,0,.19,0,.47,0,.85,0,.38,0,.8,0,1.27v2.74c0,.63,.01,1.29,.04,1.98,.03,.69,.06,1.36,.09,2.02,.04,.65,.07,1.25,.09,1.79,.03,.54,.04,.97,.04,1.28,0,.44-.1,.86-.31,1.26-.21,.4-.55,.73-1.04,.99-.48,.26-1.14,.39-1.97,.39-1.36,0-2.39-.24-3.11-.71-.72-.47-1.07-1.16-1.07-2.06,0-.58,.17-1.08,.52-1.51,.35-.43,.84-.76,1.5-1.01,.65-.25,1.43-.37,2.34-.37,.99,0,1.93,.12,2.8,.35,.87,.23,1.67,.52,2.4,.88,.73,.35,1.38,.72,1.94,1.1,.57,.38,1.03,.73,1.4,1.03l-.87,1.34c-.43-.4-.92-.8-1.48-1.21-.56-.4-1.17-.77-1.83-1.11-.66-.34-1.37-.61-2.13-.82-.76-.21-1.57-.31-2.42-.31-.91,0-1.59,.15-2.06,.45-.47,.3-.71,.67-.71,1.11,0,.28,.09,.53,.26,.76,.18,.23,.46,.42,.85,.56,.39,.14,.89,.21,1.51,.21,.36,0,.7-.05,1-.14,.3-.09,.54-.26,.73-.5,.18-.24,.27-.57,.27-1,0-.36,0-.84-.03-1.42-.02-.58-.04-1.21-.07-1.87-.03-.66-.05-1.3-.07-1.91-.02-.62-.03-1.13-.03-1.55v-2.64c0-.44,0-.86,0-1.26,0-.4,0-.77,0-1.09,0-.15,0-.35-.02-.58s-.03-.42-.06-.55h1.6Zm-7.31,6.05c.34,.05,.72,.1,1.13,.15,.41,.05,.84,.09,1.28,.11,.44,.03,.86,.05,1.26,.07,.4,.02,.76,.03,1.07,.03,.92,0,1.81-.02,2.67-.07,.86-.04,1.71-.11,2.54-.19,.84-.08,1.66-.19,2.48-.31l-.02,1.41c-.63,.09-1.25,.16-1.88,.22-.62,.06-1.24,.1-1.87,.14-.62,.04-1.26,.07-1.9,.08-.65,.02-1.33,.03-2.05,.03-.43,0-.92-.01-1.48-.04-.56-.02-1.12-.06-1.7-.09-.57-.04-1.08-.08-1.54-.13l-.02-1.41Zm.09-4c.31,.05,.68,.1,1.09,.15,.41,.05,.85,.1,1.31,.14,.46,.04,.9,.08,1.32,.09,.42,.02,.79,.03,1.1,.03,1.19,0,2.42-.04,3.67-.13,1.25-.09,2.49-.23,3.7-.43l-.02,1.38c-.69,.08-1.45,.15-2.26,.23-.82,.08-1.66,.14-2.52,.19-.86,.05-1.71,.08-2.55,.08-.44,0-.96-.02-1.56-.06-.6-.04-1.2-.08-1.78-.13-.58-.05-1.08-.09-1.48-.13l-.02-1.4Z"/><path class="cls-1" d="M142.15,129.88c.52,0,1.1,0,1.75-.03,.65-.02,1.35-.04,2.08-.07,.74-.03,1.48-.04,2.23-.06,.75-.01,1.48-.03,2.18-.04s1.34-.02,1.93-.02h3.29c.5,0,.94,0,1.32,0,.38,0,.69,0,.91,0l-.02,1.39c-.53-.02-1.23-.05-2.12-.07s-2.02-.03-3.4-.03c-.82,0-1.67,0-2.55,.03s-1.78,.04-2.67,.07c-.89,.03-1.76,.06-2.59,.1-.84,.04-1.61,.09-2.31,.14l-.04-1.45Zm9.9,5.49c0,.83-.12,1.53-.37,2.09-.25,.57-.58,.99-1.02,1.26-.43,.28-.94,.41-1.52,.41-.39,0-.77-.07-1.14-.2-.37-.13-.7-.33-1-.6-.3-.27-.53-.6-.7-1-.17-.4-.25-.84-.25-1.35,0-.63,.15-1.19,.45-1.68,.3-.49,.71-.88,1.22-1.17,.51-.29,1.06-.43,1.65-.43,.74,0,1.35,.17,1.84,.5,.48,.33,.85,.79,1.1,1.36,.25,.57,.38,1.22,.38,1.95,0,.63-.09,1.27-.27,1.92-.18,.65-.48,1.28-.9,1.89-.42,.6-.99,1.15-1.72,1.65s-1.64,.91-2.74,1.23l-1.26-1.24c.85-.2,1.62-.46,2.3-.77,.68-.31,1.25-.7,1.72-1.15,.46-.45,.82-.98,1.06-1.58,.25-.6,.37-1.29,.37-2.07,0-.85-.18-1.47-.55-1.85-.36-.38-.8-.57-1.32-.57-.33,0-.63,.08-.92,.24s-.52,.39-.71,.69c-.18,.3-.27,.66-.27,1.07,0,.59,.19,1.05,.57,1.38,.38,.33,.83,.49,1.35,.49,.39,0,.72-.11,1-.33,.28-.22,.47-.55,.59-1,.12-.45,.13-1,.03-1.67l1.04,.53Zm.11-8.11c0,.06,0,.18-.03,.34s-.03,.32-.04,.48c0,.16-.02,.28-.03,.37-.01,.24-.02,.57-.02,.98v1.36c0,.49,0,.99,0,1.49,0,.5,.01,.97,.02,1.41,0,.44,0,.81,0,1.11l-1.45-.72v-2.05c0-.47,0-.94,0-1.4,0-.46-.02-.89-.03-1.28-.01-.39-.03-.69-.04-.91-.01-.25-.03-.49-.06-.73-.03-.23-.04-.39-.06-.46h1.72Z"/><path class="cls-1" d="M168.62,142.28c-.34,0-.63-.11-.86-.34-.23-.23-.35-.53-.35-.9s.12-.68,.36-.91c.24-.23,.52-.35,.85-.35s.61,.12,.85,.35c.24,.23,.36,.54,.36,.91s-.12,.68-.36,.9c-.24,.23-.52,.34-.85,.34Zm-.62-4.66l-.38-7.31-.04-2.22h2.07l-.04,2.22-.38,7.31h-1.24Z"/></g></g></g></svg>