<?xml version="1.0" encoding="UTF-8"?><svg id="_レイヤー_2" xmlns="http://www.w3.org/2000/svg" width="253" height="217" xmlns:xlink="http://www.w3.org/1999/xlink" viewBox="0 0 253 217"><defs><style>.cls-1{fill:#5e4a3e;}.cls-2{fill:#fff;filter:url(#drop-shadow-1);}</style><filter id="drop-shadow-1" filterUnits="userSpaceOnUse"><feOffset dx="7" dy="7"/><feGaussianBlur result="blur" stdDeviation="5"/><feFlood flood-color="#000" flood-opacity=".1"/><feComposite in2="blur" operator="in"/><feComposite in="SourceGraphic"/></filter></defs><g id="_文字"><g><path class="cls-2" d="M230.05,82.05s-16.81-.19-36.96,.42C184.23,40.25,146.79,8.55,101.94,8.55,50.49,8.55,8.79,50.25,8.79,101.69s41.7,93.15,93.15,93.15,89.95-38.59,92.96-87.32l35.15-25.47Z"/><g><path class="cls-1" d="M42.72,83.34l-.14-1.29v-.05s.03-.05,.08-.05,.36,.11,.92,.34c.56,.23,1.18,.53,1.88,.89h14.52l1.67-1.64c1.33,1.11,2,1.79,2,2.01s-.19,.34-.58,.34h-18c-.09,.05-.14,.28-.14,.69v3.4c0,5.12-1.79,9.12-5.37,12.03-.27,0-.41-.15-.41-.44,0-.13,.1-.34,.3-.63,2.17-2.83,3.26-5.61,3.26-8.33v-7.26Zm21.18-4.69h-20.33c-.46,0-1.07,.13-1.84,.38l-1.34-1.12,.19-.3c1.04,.16,2.29,.26,3.75,.27h7.54v-1.42l-.14-1.23v-.03c0-.11,.06-.16,.19-.16,1.95,.18,2.94,.39,2.96,.63,0,.09-.14,.21-.41,.37-.27,.16-.41,.32-.41,.51v1.34h6.74l1.59-1.64c1.39,1.1,2.08,1.85,2.08,2.27,0,.09-.19,.14-.58,.14Zm-18.09,14.14c-.15,.05-.27,.08-.37,.08s-.15-.1-.15-.32,.06-.42,.19-.62c1.52-2.21,2.46-4.57,2.82-7.07,1.9,.37,3,.79,3.29,1.26l-1.42,.52c-.22,.57-.5,1.14-.85,1.73h3.75v-2.22l-.14-1.21v-.14s.09-.05,.27-.05,.71,.06,1.58,.19c.87,.13,1.3,.27,1.3,.41,0,.09-.14,.21-.41,.37-.27,.16-.41,.32-.41,.51v2.14h3.01l1.62-1.86c1.57,1.44,2.36,2.18,2.36,2.22,0,.2-.22,.3-.66,.3h-6.33v4.11h2.69l1.62-1.86c1.57,1.44,2.36,2.18,2.36,2.22,0,.2-.22,.3-.66,.3h-6v4.49h5.21l1.51-1.86c1.57,1.35,2.36,2.08,2.36,2.19,0,.22-.22,.33-.66,.33h-17.32l-1.62,.19c-.6-.6-.9-.96-.9-1.07,0-.07,.05-.11,.16-.11s.47,.05,1.07,.15c.6,.1,1.6,.16,2.99,.18h5.04v-4.49h-3.54l-1.62,.19-.82-.93c-.06-.05-.08-.1-.08-.15s.05-.07,.15-.07,.44,.05,1.01,.14c.58,.09,1.56,.15,2.95,.16h1.95v-4.11h-4.17c-.8,1.22-1.85,2.48-3.12,3.75Zm1.86-13.78c.04-.13,.14-.19,.31-.19s.4,.12,.67,.36c1.55,1.37,2.33,2.2,2.33,2.49,0,.9-.36,1.34-1.07,1.34-.18,0-.41-.05-.69-.14-.18-.07-.42-.75-.71-2.03l-.85-1.84Zm8.39,3.92c-.13,.04-.27,.05-.41,.05-.27,0-.41-.15-.41-.44,0-.15,.08-.32,.25-.52,.22-.44,.54-1.53,.96-3.26,1.79,.31,2.76,.77,2.9,1.37l-1.21,.27c-.82,1.1-1.52,1.94-2.08,2.52Z"/><path class="cls-1" d="M74.15,82.24c1.24,1.17,1.86,1.88,1.86,2.14,0,.15-.23,.22-.69,.22h-3.43v7.75c.97-.37,1.77-.69,2.4-.96,.63-.27,1.01-.41,1.14-.41l.03,.03c.09,.04,.19,.07,.3,.11,.11,.04,.15,.09,.11,.16-.46,.71-2.88,2.34-7.26,4.88-.4,.88-.63,1.32-.67,1.32s-.08,0-.1-.03c-.48-.2-1.13-1.22-1.97-3.07,.68-.16,2-.58,3.97-1.26v-8.52h-1.29l-1.62,.33-1.07-1.43c.31,.04,.55,.1,.71,.18s.94,.13,2.33,.15h.93v-5.62l-.14-1.23c-.02-.13,.07-.19,.27-.19s.71,.07,1.53,.21c.82,.14,1.23,.28,1.23,.42,0,.09-.14,.22-.42,.37-.28,.16-.42,.32-.42,.51v5.54h.74l1.51-1.59Zm1.59,5.1l-1.48,.9c-.71-.57-1.15-.93-1.31-1.1,.02-.02,.23-.05,.64-.1,.41-.05,1.05-.23,1.9-.56l1.4-.6v-6.96l-.16-1.21c-.02-.13,.07-.19,.26-.19s.7,.06,1.53,.19c.83,.13,1.25,.27,1.25,.41,0,.09-.14,.21-.41,.37-.27,.16-.41,.32-.41,.51v6.03l3.4-1.45v-6.82l-.11-1.21c-.02-.13,.05-.19,.19-.19s.65,.07,1.51,.21c.86,.14,1.29,.27,1.29,.4l-.85,.88v5.89l3.54-1.51c.18-.16,.43-.42,.74-.78,.31-.36,.52-.53,.63-.53,.31,0,.78,.25,1.4,.74s.93,.85,.93,1.07c0,.09-.19,.27-.56,.53-.38,.27-.56,.46-.56,.59v.36c0,4-.07,6.46-.22,7.37-.49,1.37-1.35,2.06-2.58,2.08l-.58-.85c-.48-.69-1.11-1.05-1.89-1.07-.26-.11-.38-.23-.38-.36s.11-.26,.33-.41l2.49,.38c.31-.11,.47-.31,.47-.6,.18-1.24,.27-3.65,.27-7.23-.04-.27-.14-.45-.3-.52l-3.73,1.62v7.37l.16,2.06s0,.14-.03,.3c-.04,.37-.62,.55-1.75,.55-.37,0-.55-.29-.55-.86s.05-1.35,.14-2.32v-6.22l-3.4,1.45v10.06c0,1.17,.58,1.75,1.75,1.75h7.97c.84,0,1.33-.85,1.48-2.55l.16-1.92c.16-1.08,.31-1.62,.42-1.62s.21,.53,.29,1.59l.16,3.23,.38,1.15c.22,.2,.33,.39,.33,.58s-.02,.34-.06,.47c-.27,.77-.99,1.15-2.14,1.15h-10.28c-1.7,0-2.55-.89-2.55-2.66v-10.33l-1.15,.49Z"/><path class="cls-1" d="M111.45,94.76l.08-1.01h-8.85l.11,1.01c-.05,.37-.7,.55-1.95,.55-.38,0-.56-.24-.52-.71l.11-1.56v-10.6l-.14-1.29c0-.07,.03-.11,.08-.11s.36,.12,.92,.36c.56,.24,1.18,.54,1.88,.9h1.86l.38-3.78h-8.55l-1.86,.41-1.29-1.12c-.05-.22,0-.36,.16-.41,1.04,.18,2.29,.28,3.75,.3h7.92l.14-1.18c-.09-.82-.14-1.26-.14-1.32s.08-.08,.23-.08,.68,.06,1.58,.19c.89,.13,1.34,.26,1.34,.41l-.82,.88-.14,1.1h6.03l1.67-1.75c1.59,1,2.38,1.75,2.38,2.25-.02,.22-.21,.33-.58,.33h-9.65l-.38,3.78h3.54c.24-.11,.55-.4,.93-.88,.38-.47,.63-.71,.74-.71h.03c1.63,.84,2.44,1.49,2.44,1.95,0,.09-.19,.27-.58,.55-.38,.27-.58,.5-.58,.69v9.15l.16,1.73c-.06,.37-.7,.55-1.95,.55-.35,0-.52-.18-.52-.55Zm-14.17,3.64c.11,.4,.16,.68,.16,.82,0,.4-.65,.6-1.95,.6-.31,0-.49-.21-.55-.63l.14-2.27v-13.48c-.09-.82-.14-1.26-.14-1.32s.08-.08,.23-.08,.68,.06,1.58,.19c.9,.13,1.34,.27,1.34,.41l-.82,.88v13.73l17.51,.03,1.29-1.64c1.19,1.01,1.9,1.71,2.14,2.11,0,.22-.2,.33-.6,.33h-20.33v.33Zm5.34-12.52h8.93v-2.44c0-.16-.05-.32-.16-.47h-8.74c-.02,.05-.03,.16-.03,.3v2.6Zm8.93,.69h-8.93v2.82h8.93v-2.82Zm0,3.51h-8.93v2.99h8.93v-2.99Z"/><path class="cls-1" d="M122.77,99.15v.25c0,.57-.08,.86-.25,.88-.42,0-1.18-.89-2.27-2.66,1.13-.51,2.35-1.24,3.64-2.19v-6.82c0-.26-.05-.46-.14-.6h-1.7l-1.45,.19-.6-1.37c.64,.09,1.28,.18,1.92,.27h1.29c.22-.13,.51-.39,.88-.79,.36-.4,.6-.6,.71-.6,.31,0,.79,.25,1.44,.74s.97,.85,.97,1.07c0,.09-.19,.27-.56,.53-.37,.27-.56,.49-.56,.67v6.06c1.22,1.9,3.93,2.85,8.11,2.85s7.95-.16,11.29-.47c-.66,1.02-1.11,1.92-1.37,2.69h-1.53c-9.77,0-15.51-1.4-17.21-4.19l-2.6,3.51Zm-1.56-21.81c-.11-.05-.18-.17-.22-.36-.07-.35,.02-.47,.27-.36,2.98,1.04,4.68,2.3,5.1,3.78,.04,.13,.05,.33,.05,.62s-.12,.64-.37,1.05c-.25,.42-.46,.63-.64,.63-.27,0-.56-.32-.85-.96-1.06-2.36-2.17-3.83-3.34-4.41Zm8.99,10.3c-.6,.13-1.11,.24-1.51,.33l-1.23-1.04,.19-.3c1.08,.27,1.98,.41,2.71,.41h4.25l.33-4.3h-4.3c-.6,.13-1.11,.24-1.51,.33l-1.23-1.12,.19-.3c.84,.16,1.74,.3,2.71,.41h9.73l1.4-1.7c1.48,.91,2.22,1.6,2.22,2.06,0,.22-.19,.33-.58,.33h-6.47l-.33,4.3h4.66l1.4-1.78c1.48,.91,2.22,1.6,2.22,2.06,0,.22-.19,.33-.58,.33h-7.86c-.09,.33-.19,.65-.3,.96,1.48,.2,3.32,1.2,5.51,2.99,1.06,.95,1.59,1.79,1.59,2.52,0,.97-.31,1.45-.93,1.45-.38,0-.73-.25-1.04-.74-2.08-3.12-3.85-4.98-5.29-5.56-.04-.02-.06-.03-.08-.03-1.31,3.05-3.91,5.02-7.78,5.92-.24,.05-.36-.07-.36-.38s.1-.5,.3-.58c3.31-1.24,5.38-3.43,6.22-6.55h-4.25Zm-.47-11.37c.02-.16,.11-.25,.29-.25s.41,.08,.7,.25c2.23,1.1,3.35,2.3,3.37,3.62,0,1-.23,1.51-.69,1.51-.15,0-.33-.06-.56-.18-.23-.12-.6-.78-1.11-1.99l-2-2.96Zm8.55,5.65c-.38,.09-.61,.03-.67-.18-.06-.21,.01-.46,.23-.75,.91-1.75,1.57-3.37,1.97-4.85,1.88,.97,2.86,1.65,2.93,2.06-.09,.07-.59,.11-1.51,.11-.71,1.32-1.7,2.52-2.96,3.62Z"/><path class="cls-1" d="M150.14,82.38c-.31-.26-.74-.73-1.29-1.41-.55-.69-.82-1.19-.82-1.52s.05-.49,.15-.49,.22,.07,.37,.22c.88,.95,1.78,1.42,2.71,1.42h1.37c3.49,0,6.92-.42,10.3-1.26,.77-.2,1.32-.38,1.64-.55,.33-.16,.66-.35,1-.55,.34-.2,.64-.3,.92-.3,.68,0,1.41,.32,2.19,.96,.33,.27,.49,.49,.49,.66s-.05,.31-.14,.44c-.15,.24-1.04,.36-2.69,.36h-.14c-5.85,3.07-8.77,6.37-8.77,9.89,0,2.54,1.42,4.36,4.25,5.45l.11,.03,2.17,.14,.16,.03c1.22,.71,1.84,1.31,1.84,1.78s-.66,.71-1.97,.71c-.46,0-.99-.03-1.59-.08-4.48-1.04-6.71-3.73-6.71-8.06,0-3.22,2.66-6.47,7.97-9.76-1.3,.05-5,.78-11.1,2.17-.31,.07-.72,.11-1.22,.11s-.91-.13-1.22-.38Zm16.2,5.17c-.14-.02-.3-.11-.48-.26-.17-.15-.27-.34-.29-.57l-.13-.85c-.12-.74-.31-1.31-.58-1.71-.27-.41-.4-.66-.41-.75v-.03c.04-.25,.17-.36,.41-.33,.07,.01,.15,.05,.23,.12,1.77,1.45,2.6,2.57,2.49,3.35-.11,.79-.53,1.13-1.25,1.03Zm1.5-5.77c1.77,1.45,2.6,2.57,2.49,3.35-.11,.79-.54,1.13-1.28,1.02-.13-.02-.28-.1-.45-.26-.17-.15-.28-.34-.32-.57l-.13-.85c-.12-.74-.31-1.31-.58-1.71s-.39-.65-.38-.75c.04-.25,.17-.36,.41-.33,.07,.01,.15,.04,.24,.09Z"/><path class="cls-1" d="M49.66,124.8h-6.36l.11,.71c-.04,.37-.63,.55-1.78,.55-.31,0-.49-.21-.55-.63l.11-1.15v-8.19l-.03-.27c-.77,.68-1.29,1.01-1.56,1.01s-.42-.14-.44-.41c0-.07,.07-.18,.22-.33,2.08-1.95,3.83-4.67,5.23-8.14,2.3,.31,3.56,.71,3.78,1.21l-1.86,.58c-.4,.53-.79,1.03-1.18,1.51l2.63-.03,1.59-1.64c1.55,1.11,2.33,1.91,2.33,2.38,0,.11-.18,.16-.55,.16l-4.41,3.7h2.08l1.56-1.45c1.53,.99,2.3,1.64,2.3,1.95l-1.15,1.21v6.44l.16,1.56c-.07,.37-.54,.55-1.4,.55h-.41c-.37-.02-.55-.21-.55-.58,0-.11,.04-.34,.11-.69Zm-8.11,2.58c.05-.24,.16-.36,.33-.36s.32,.19,.47,.58c.04,.09,.06,.25,.06,.47s0,.47-.03,.74c-.04,2.58-.65,4.06-1.84,4.47-.22,.07-.41,.11-.58,.11-.53,0-.79-.25-.79-.74,0-.31,.2-.73,.6-1.26,.82-1.06,1.42-2.39,1.78-4Zm.47-12.39l1.95,.82h1.86l2.06-3.7h-3.26c-.97,1.15-1.84,2.11-2.6,2.88Zm3.34,4.99v-3.34h-2.06s-.04,1.13-.06,3.34h2.11Zm0,4.14v-3.45h-2.11l.03,3.45h2.08Zm-1.18,7.21l.14-1.4c0-.69-.18-1.54-.55-2.55-.07-.2-.11-.32-.11-.36,.07-.16,.21-.23,.41-.19,.2,.04,.58,.46,1.15,1.26,.58,1.11,.9,1.81,.96,2.08,.06,.27,.08,.55,.08,.84s-.13,.61-.38,.99c-.26,.37-.52,.56-.79,.56h-.14c-.51-.16-.77-.58-.77-1.23Zm3.15-.93l.03-.55c0-.69-.22-1.63-.66-2.82-.07-.2-.11-.32-.11-.36,.07-.16,.2-.25,.38-.25s.59,.4,1.23,1.21c.68,1.19,1.04,1.88,1.08,2.07,.05,.19,.07,.42,.07,.69s-.1,.58-.31,.93-.46,.53-.75,.53h-.11c-.57-.16-.85-.65-.85-1.45Zm.22-10.41h2.14v-2.74c0-.26-.05-.46-.16-.6h-1.95l-.03,3.34Zm0,4.14h2.14v-3.45h-2.14v3.45Zm2.96,5.65v-.66c-.02-.42-.15-.95-.38-1.59l-.38-.96c.05-.18,.18-.27,.38-.27s.62,.39,1.26,1.16c.64,.78,.99,1.27,1.06,1.48,.06,.21,.1,.46,.1,.75s-.1,.61-.29,.96c-.19,.35-.43,.53-.73,.55h-.11c-.57-.16-.87-.64-.9-1.43Zm9.37,.16c.11,1.46,.16,2.25,.16,2.36-.04,.37-.68,.55-1.92,.55-.29,0-.48-.21-.55-.63l.11-2.27v-4.27h-1.95c-.53,.04-.96,.11-1.3,.23-.34,.12-.53,.18-.56,.18-.95-.79-1.42-1.23-1.42-1.34,1.02,.16,2.28,.26,3.78,.27h1.45v-4.63h-1.42c-.53,.04-.96,.11-1.3,.23-.34,.12-.53,.18-.56,.18-.95-.79-1.43-1.23-1.43-1.34,1.02,.16,2.28,.26,3.78,.27h.93v-4.22h-1.62c-.53,.04-.96,.11-1.3,.23-.34,.12-.53,.18-.56,.18-.95-.88-1.42-1.32-1.42-1.34,1.06,.16,2.32,.26,3.78,.27h4.99l1.53-1.75c1.24,1.13,1.95,1.8,2.14,2,0,.27-.2,.41-.6,.41h-4.74v4.22h1.04l1.59-1.75c1.28,1.13,1.99,1.8,2.14,2,0,.27-.2,.41-.6,.41h-4.17v4.63h1.86l1.59-1.75c1.28,1.13,1.99,1.8,2.14,2,0,.27-.2,.41-.6,.41h-4.99v4.27Zm-6.33-20.8c-.09-.09-.12-.22-.1-.38,.03-.16,.18-.24,.47-.22,.28,.02,.83,.37,1.63,1.07,1.3,1.17,1.95,2.05,1.95,2.64s-.23,1.12-.69,1.58c-.18,.18-.47,.27-.85,.27h-.11c-.26-.02-.45-.35-.58-.99-.38-1.75-.96-3.08-1.73-3.97Zm6.3,5.48c-.4,.04-.61-.07-.63-.33-.02-.18,.07-.39,.27-.63,.77-1.86,1.21-3.55,1.34-5.07,2.38,.69,3.56,1.23,3.56,1.62l-1.48,.05c-.69,1.52-1.64,2.95-2.85,4.3-.07,.04-.15,.05-.22,.05Z"/><path class="cls-1" d="M69.22,111.21l-.14-1.29c0-.07,.03-.11,.08-.11s.36,.11,.92,.34c.56,.23,1.18,.53,1.88,.89h6.71v-1.53l-.14-1.23c-.02-.13,.05-.19,.19-.19,1.95,.18,2.94,.39,2.96,.63,0,.09-.14,.22-.41,.37-.27,.16-.41,.32-.41,.51v1.45h5.73l1.59-1.64c1.39,1.11,2.08,1.79,2.08,2.01s-.19,.34-.58,.34h-18.11c-.09,.05-.14,.28-.14,.69v3.4h4.25v-1.86l-.14-1.23c-.02-.11,.04-.16,.18-.16s.67,.07,1.59,.21c.92,.14,1.38,.26,1.38,.37l-.82,.9v1.78h4.69v-1.86l-.11-1.21c-.02-.13,.05-.19,.19-.19,.07,0,.58,.07,1.53,.21s1.43,.27,1.43,.4l-.85,.88v1.78h2.44l1.67-1.75c1.39,1.08,2.08,1.79,2.08,2.14-.02,.22-.21,.33-.58,.33h-5.62v2c.09,1.17,.14,1.85,.14,2.06v.3c-.13,.37-.71,.55-1.75,.55h-.16c-.31,0-.47-.4-.47-1.21h-4.55c.04,.22,.06,.44,.08,.66-.04,.37-.69,.55-1.95,.55-.35,0-.52-.26-.52-.77l.14-2.16v-1.97h-4.27v1.89c0,6.87-1.69,11.66-5.07,14.39-.27,0-.41-.15-.41-.44-.07-.07,.03-.28,.3-.63,1.97-2.48,2.96-6.79,2.96-12.91v-7.65Zm5.23,12.58l-1.62,.22-1.26-1.23c1.46,.18,2.37,.27,2.74,.27h9.92l1.56-1.32c1.53,.93,2.3,1.62,2.3,2.06l-.55,.49c-.15,.16-.36,.4-.63,.71-1.15,1.37-2.53,2.58-4.14,3.62,2.43,.97,5.3,1.56,8.6,1.78-.71,.89-1.21,1.71-1.48,2.44-3.27-.6-6.17-1.7-8.69-3.29-2.87,1.53-6.34,2.63-10.41,3.29h-.11c-.33,0-.49-.16-.49-.47,0-.15,.09-.24,.27-.27,3.85-.68,7.04-1.8,9.56-3.37-1.85-1.35-3.47-3-4.88-4.93h-.71Zm6.77,4.11c1.43-1.06,2.58-2.29,3.48-3.7-.09-.15-.15-.28-.16-.41h-8.33c1.28,1.7,2.95,3.07,5.01,4.11Zm-3.34-8.33h4.69v-3.01h-4.69v3.01Z"/><path class="cls-1" d="M97.77,119.9c-.55-.07-1.05-.37-1.51-.88-.44-.66-.66-1.2-.66-1.62s.07-.63,.21-.63,.23,.02,.29,.07c.05,.05,.18,.27,.37,.66,.19,.39,.5,.59,.92,.59,.22,0,.64-.09,1.26-.27l2.71-.82c.8-1.41,1.21-3.08,1.21-5.01,0-.95-.27-1.63-.79-2.06-.33-.27-.5-.43-.52-.47-.02-.05-.03-.12-.03-.19,0-.18,.13-.27,.38-.27s.59,.1,1.01,.3c1.83,.79,2.74,1.44,2.74,1.97,0,.27-.11,.53-.32,.75-.21,.23-.35,.39-.41,.49-.06,.1-.11,.25-.15,.45l-1.04,3.32c1.3-.33,2.28-.49,2.96-.49s1.14,.16,1.4,.47c.84,1.17,1.26,2.37,1.26,3.59,0,.24,0,.5-.03,.79-.33,4.42-.95,7.43-1.86,9.02-.62,1.06-1.14,1.74-1.56,2.06-.42,.29-.8,.44-1.15,.44-.66,0-.99-.19-.99-.58l.05-.69c0-.37-.6-.94-1.81-1.73l-1.51-.99c-.37-.24-.55-.42-.55-.55s.13-.19,.38-.19,.88,.26,1.88,.77c1,.51,1.77,.77,2.32,.77,.66,0,1.29-1.06,1.9-3.18,.61-2.12,.92-4.07,.92-5.85s-.46-2.67-1.37-2.67l-.44,.03c-.75,0-1.53,.16-2.36,.49-.4,.97-1,2.3-1.78,3.99-.79,1.69-1.64,3.82-2.58,6.4l-.27,.47c-.57,.84-1.09,1.26-1.56,1.26-.16,0-.3-.05-.41-.14-.37-.26-.55-.7-.55-1.33s.09-1.05,.27-1.25c.47-.57,.98-1.28,1.51-2.14l1.15-2.19,2.17-4.3c-1.79,.9-2.81,1.34-3.07,1.34Zm11.34-6.25c0-.46,.14-.69,.41-.69,.18,0,.4,.08,.66,.25,1.59,.97,3,2.23,4.25,3.8,1.24,1.56,2.1,2.94,2.58,4.14,.48,1.2,.71,2.06,.71,2.58s-.17,1.01-.52,1.47c-.73,.9-1.4,1.34-2,1.34h-.03c-.44,0-.66-.25-.66-.74,0-.16,.03-.36,.08-.58l-.08-.3c-.09-.53-.56-.8-1.4-.82l-2.25,.25c-.31,0-.47-.11-.47-.33,0-.16,.17-.27,.52-.33,1.48-.27,2.52-.49,3.11-.64,.59-.16,.89-.36,.89-.62,0-1.04-.54-2.42-1.62-4.14-1.08-1.72-2.42-3.15-4.03-4.3-.11-.05-.16-.16-.16-.33Zm6.02,.5c-.14,.04-.32,.02-.54-.05s-.38-.21-.49-.41l-.45-.73c-.4-.63-.8-1.08-1.2-1.35-.4-.27-.63-.45-.67-.53v-.03c-.07-.25,0-.4,.24-.46,.07-.02,.16-.01,.26,.01,2.2,.64,3.4,1.35,3.6,2.11,.21,.77-.04,1.25-.75,1.44Zm-.87-5.89c2.2,.64,3.4,1.35,3.6,2.11,.21,.77-.05,1.25-.78,1.44-.12,.03-.29,.01-.51-.06-.22-.07-.39-.21-.52-.4l-.45-.73c-.4-.63-.8-1.08-1.2-1.35s-.62-.45-.64-.54c-.07-.25,.02-.4,.24-.46,.07-.02,.15-.02,.25-.01Z"/><path class="cls-1" d="M121.94,131.71v.25c0,.57-.08,.86-.25,.88-.38-.05-1.14-.79-2.27-2.22,1.72-.64,3.09-1.45,4.11-2.44v-7.59c0-.26-.05-.46-.14-.6h-1.29l-1.62,.44-1.12-1.32,.27-.3c.84,.26,1.62,.38,2.33,.38h.88c.22-.13,.51-.41,.88-.85,.37-.44,.6-.66,.71-.66,.31,0,.79,.25,1.44,.74s.97,.85,.97,1.07c0,.09-.19,.27-.56,.53-.37,.27-.56,.49-.56,.67v6.82c1.22,1.9,4.01,2.89,8.36,2.96,.91,.02,2.4,.03,4.47,.03s4.42-.12,7.07-.36c-.66,1.02-1.11,1.92-1.37,2.69h-1.53c-10.07,0-16.03-1.48-17.89-4.44-.62,1-1.58,2.11-2.88,3.32Zm-1.26-21.57c-.16-.07-.25-.21-.25-.42s.04-.32,.11-.32,.14,0,.19,.03c2.98,1.04,4.68,2.3,5.1,3.78,.04,.13,.06,.33,.06,.62s-.12,.64-.37,1.06c-.25,.42-.46,.63-.64,.63-.27,0-.56-.32-.85-.96-1.1-2.43-2.21-3.9-3.34-4.41Zm8.91,6.77l-.16-1.04c-.02-.11,.01-.16,.1-.16s.46,.16,1.14,.49c.68,.33,1.14,.52,1.4,.58h6.25l1.62-1.53c1.46,.93,2.19,1.56,2.19,1.89l-.93,1.23v.71l.16,1.78c-.09,.48-.67,.71-1.73,.71-.51-.02-.77-.18-.77-.49,0-.37,.04-.72,.11-1.07h-.96v2.8h2.3l1.64-1.59c1.46,1.08,2.19,1.74,2.19,1.97,0,.18-.11,.28-.33,.3h-5.81v2.6h3.23l1.78-1.78c1.46,1.08,2.19,1.8,2.19,2.16,0,.18-.11,.28-.33,.3h-6.88v.74l.16,1.26c-.05,.37-.72,.55-2,.55-.31,0-.49-.21-.55-.63l.14-1.18v-.74h-5.7c-.49,0-1.28,.13-2.36,.38l-1.75-1.15,.3-.19c.37,.18,1.34,.27,2.93,.27h1.48v-2.6h-.36s-.57,.13-1.64,.38l-1.75-1.15,.3-.19c.91,.18,1.89,.27,2.93,.27h5.62v-2.8h-3.86l.11,.9c-.07,.38-.77,.58-2.08,.58-.18,0-.33-.23-.44-.69l.11-1.86v-2.03Zm15.32-2.06h-15.56c-.4,0-.95,.08-1.64,.25l-1.51-1.1,.19-.11c.37,.18,1.3,.27,2.79,.27h2.38c.38-.84,.7-1.72,.96-2.63h-1.62l-1.64,.19c-.91-.73-1.37-1.11-1.37-1.12,.04-.09,.06-.12,.08-.08,.79,.22,1.78,.34,2.99,.36h1.73c.09-.42,.17-.85,.25-1.29l.19-1.21v-.14s.07-.03,.22-.03,.66,.19,1.53,.58,1.32,.64,1.32,.77c0,.09-.16,.18-.48,.27-.32,.09-.51,.22-.56,.38l-.16,.63h2.71c.24-.11,.55-.38,.95-.81,.39-.43,.64-.64,.75-.64,.31,0,.77,.25,1.37,.74,.6,.49,.9,.85,.9,1.07,0,.09-.19,.27-.56,.53-.37,.27-.56,.49-.56,.67v1.75h1.1l1.51-1.59c1.39,1.08,2.08,1.74,2.08,1.97,0,.18-.11,.28-.33,.3Zm-5.89,4.44v-1.32c0-.18-.06-.36-.16-.52h-6.96c-.04,.07-.05,.19-.05,.36v1.48h7.18Zm-3.26,4.19h-2.82v2.6h2.82v-2.6Zm2.74-9.32v-2.33c0-.05-.05-.16-.14-.33h-3.56l-.74,2.66h4.44Z"/><path class="cls-1" d="M154.8,118.56c3.03-1.42,5.02-2.14,5.96-2.14s1.78,.05,2.51,.16c1.63,.55,2.71,1.87,3.26,3.97,.04,.35,.05,.7,.05,1.07,0,4.84-3.33,8.54-9.97,11.1-.24,.09-.48,.13-.74,.12-.26,0-.38-.1-.38-.26,0-.4,.22-.69,.66-.85,5.5-2.69,8.25-5.96,8.25-9.84,0-.37-.03-.76-.08-1.18-.22-1.77-.81-2.72-1.78-2.85-.35-.04-.63-.05-.84-.05h-.48c-1.33,0-2.28,.2-2.84,.59-.56,.39-1.63,1.13-3.22,2.21-.64,.44-1.24,.66-1.81,.66-.84,0-1.26-.53-1.26-1.59,0-.62,.08-1.02,.25-1.21,.91-1.41,1.63-2.11,2.14-2.11,.18,0,.27,.1,.27,.3-.48,.22-.71,.64-.71,1.26v.16c.18,.26,.44,.41,.77,.47Zm8.52-6c-.05,.02-.16,.03-.33,.03s-.55-.06-1.15-.19c-.88,.07-1.75,.35-2.63,.82-.88,.48-1.35,.71-1.43,.71-.24,0-.37-.08-.41-.25,.04-.13,.14-.26,.3-.41,.51-.47,1.26-.94,2.25-1.4-1.55-.4-3.19-1.27-4.91-2.6-.16-.18-.24-.34-.23-.48s.04-.21,.1-.23c.24-.09,.47-.05,.71,.11,1.72,1,3.81,1.51,6.27,1.51,.15,0,.33,0,.55,.03,.22,.02,.55,.17,1,.45,.45,.28,.67,.63,.67,1.04s-.26,.7-.77,.86Z"/></g></g></g></svg>