<?xml version="1.0" encoding="UTF-8"?><svg id="_レイヤー_2" xmlns="http://www.w3.org/2000/svg" width="296" height="262" xmlns:xlink="http://www.w3.org/1999/xlink" viewBox="0 0 296 262"><defs><style>.cls-1{fill:#5e4a3e;}.cls-2{fill:#fff;filter:url(#drop-shadow-1);}</style><filter id="drop-shadow-1" filterUnits="userSpaceOnUse"><feOffset dx="7" dy="7"/><feGaussianBlur result="blur" stdDeviation="5"/><feFlood flood-color="#000" flood-opacity=".1"/><feComposite in2="blur" operator="in"/><feComposite in="SourceGraphic"/></filter></defs><g id="_文字"><g><path class="cls-2" d="M157.71,8.79c-63.83,0-115.57,51.74-115.57,115.57,0,2.86,.11,5.69,.31,8.5L8.32,171.4l40.12-9.33c15.63,45.31,58.65,77.86,109.27,77.86,63.83,0,115.57-51.74,115.57-115.57S221.54,8.79,157.71,8.79Z"/><g><path class="cls-1" d="M90.62,97.24c-.29,0-.44-.16-.44-.47,0-.15,.08-.26,.25-.33,4.53-2.48,8.07-5.85,10.6-10.11,2.85,.27,4.27,.56,4.25,.85l-1.89,.41c4.22,4.17,8.04,6.63,11.45,7.4-.6,.88-1.11,1.72-1.53,2.52-3.95-2.5-7.5-5.57-10.66-9.21-3.34,4.24-7.23,7.19-11.65,8.85-.15,.05-.27,.08-.38,.08Zm19.43-.52h-6.41v5.1h2.49l1.67-1.75c1.79,1.32,2.69,2.05,2.69,2.21s-.2,.23-.6,.23h-6.25v5.89h6.11l1.78-1.73c1.75,1.15,2.63,1.88,2.63,2.19,0,.24-.21,.37-.63,.38l-19.54-.03c-.53,.04-.96,.11-1.27,.23-.32,.12-.51,.18-.56,.18l-1.34-1.23c.07-.09,.14-.18,.19-.27,1.04,.16,2.29,.26,3.75,.27h6.69v-5.89h-3.92c-.53,.02-.96,.09-1.27,.21-.32,.12-.51,.18-.56,.18-.46-.42-.9-.83-1.34-1.23,.02-.18,.08-.23,.19-.14,1.04,.18,2.29,.28,3.75,.3h3.15v-5.1h-3.84l-1.86,.41-1.29-1.12c-.05-.22,0-.36,.16-.41,1.04,.18,2.29,.28,3.75,.3h7.92l1.67-1.75,2.66,2.25c-.02,.22-.21,.33-.58,.33Z"/><path class="cls-1" d="M116.87,101.08c-.16,.07-.3,.11-.41,.11-.26,0-.38-.18-.38-.55,0-.13,.07-.29,.22-.49,2.36-3.43,4.05-7.97,5.07-13.62,2.23,.35,3.34,.76,3.34,1.23l-1.34,.49c-.48,1.74-1.1,3.39-1.86,4.96,.82,.13,1.23,.24,1.23,.34s-.14,.23-.42,.38c-.28,.16-.42,.32-.42,.51v13.48c.09,1.15,.14,1.94,.14,2.36,0,.37-.57,.55-1.7,.55-.38,0-.59-.22-.63-.66l.14-2.25v-10.99c-.9,1.5-1.88,2.88-2.96,4.14Zm16.66,6.74c.09,1.21,.14,1.96,.14,2.27,0,.47-.66,.71-1.97,.71-.31,0-.49-.22-.55-.66l.14-2.33v-3.18h-1.78c-.31,.02-.64,.1-.99,.23-.35,.14-.53,.2-.55,.18l-1.4-1.18,.19-.22c1.08,.18,2.25,.28,3.51,.3h1.01v-8.17c-1.02,2.65-3.6,5.9-7.73,9.76h-.19c-.31,0-.47-.09-.47-.27,0-.22,.16-.51,.49-.88,3.12-3.38,5.29-7.07,6.49-11.07h-3.81c-.55,.02-.98,.09-1.3,.22-.32,.13-.52,.19-.59,.19l-1.32-1.12c-.05-.05-.08-.13-.08-.22s.07-.12,.22-.08c1.06,.18,2.34,.28,3.84,.3h4.44v-4.44l-.14-1.37c.04-.05,.08-.08,.14-.08h.14c1.75,.11,2.73,.32,2.93,.63l-.85,.9v4.36h4.8l1.48-1.89c1.55,1.53,2.33,2.35,2.33,2.45s-.21,.15-.63,.15l-7.18,.03c1.39,3.82,4.1,7.08,8.14,9.78l-1.78,2.77c-3.54-4.17-5.92-8.09-7.12-11.78v9.84h1.1l1.45-1.67c.66,.64,1.3,1.27,1.92,1.89-.05,.31-.26,.47-.6,.47h-3.86v3.18Z"/><path class="cls-1" d="M156.17,109.16c-.18,.02-.35,.03-.49,.03-.58,0-.88-.15-.88-.47,0-.24,.35-.45,1.04-.63,2.92-.84,5.1-2.21,6.52-4.11,1.22-1.64,1.84-3.83,1.84-6.55,0-1.9-.49-3.32-1.48-4.27-1.46-1.44-3.09-2.16-4.88-2.16h-.33c-.33,0-.62,.03-.88,.08-.84,5.04-1.67,8.44-2.49,10.19-.82,1.75-1.63,2.97-2.41,3.66-.79,.69-1.41,1.03-1.86,1.03h-.3c-1.04,0-1.87-.75-2.49-2.25-.88-1.22-1.31-2.21-1.31-2.96v-.03c0-1.66,.44-3.31,1.33-4.95,.89-1.63,2.22-3.08,4-4.33,1.78-1.25,3.74-1.89,5.88-1.9,2.9,0,5.2,.82,6.88,2.47,1.66,1.97,2.49,3.97,2.49,6,0,3.05-1.02,5.59-3.06,7.63-2.04,2.04-4.41,3.21-7.11,3.52Zm-1.12-17.95c-1.39,.27-2.65,.91-3.78,1.92-1.13,1.01-1.96,2.03-2.49,3.08-.53,1.05-.79,2.43-.79,4.15s.56,2.77,1.67,3.15h.16c.62,0,1.23-.41,1.84-1.23,1.48-1.94,2.61-5.63,3.4-11.07Z"/><path class="cls-1" d="M192.15,96.58v4.58l.16,1.23c0,.53-.65,.79-1.95,.79-.31,0-.47-.2-.47-.6l.03-1.23h-13.54v5.92c0,1.01,.4,1.51,1.21,1.51h14.17c.79,0,1.28-1.18,1.48-3.53l.16-1.92c.16-1.08,.31-1.62,.42-1.62s.21,.53,.29,1.59l.16,4.22,.38,1.15c.22,.2,.33,.39,.33,.58s-.02,.34-.05,.47c-.27,.77-.99,1.15-2.14,1.15h-15.89c-1.74,0-2.6-.91-2.6-2.74v-12.58l-.06-.66c-.9,.69-1.85,1.36-2.88,2-.38,.02-.59-.08-.63-.29-.04-.21,.08-.44,.36-.7,3.75-3.01,6.52-6.41,8.33-10.19,2.16,.68,3.23,1.17,3.23,1.48l-1.59,.49c-.62,.8-1.09,1.41-1.4,1.81h6.06l1.7-1.67c1.57,1.13,2.36,1.78,2.36,1.95,0,.22-.24,.37-.71,.44-1.74,1.75-3.29,3.26-4.66,4.52h4.91l1.67-1.4c1.3,.99,2,1.67,2.11,2.06l-.96,1.21Zm-16.83-2.55l1.62,.69h6.41c.66-.82,1.61-2.32,2.85-4.49h-7.1c-1.11,1.35-2.38,2.62-3.78,3.81Zm7.02,6.47v-4.93h-5.92c0,.2,0,.31-.03,.33v4.6h5.95Zm7.59,0v-4.38c0-.18-.04-.37-.11-.55h-5.4v4.93h5.51Z"/><path class="cls-1" d="M201.41,97.87c-.55-.07-1.05-.37-1.51-.88-.44-.66-.66-1.2-.66-1.62s.07-.63,.21-.63,.23,.02,.29,.07c.05,.05,.18,.27,.37,.66,.19,.39,.5,.59,.92,.59,.22,0,.64-.09,1.26-.27l2.71-.82c.8-1.41,1.21-3.08,1.21-5.01,0-.95-.27-1.63-.79-2.06-.33-.27-.5-.43-.52-.47-.02-.05-.03-.12-.03-.19,0-.18,.13-.27,.38-.27s.59,.1,1.01,.3c1.83,.79,2.74,1.44,2.74,1.97,0,.27-.11,.53-.32,.75-.21,.23-.35,.39-.41,.49-.06,.1-.11,.25-.15,.45l-1.04,3.32c1.3-.33,2.28-.49,2.96-.49s1.14,.16,1.4,.47c.84,1.17,1.26,2.37,1.26,3.59,0,.24,0,.5-.03,.79-.33,4.42-.95,7.43-1.86,9.02-.62,1.06-1.14,1.74-1.56,2.06-.42,.29-.8,.44-1.15,.44-.66,0-.99-.19-.99-.58l.05-.69c0-.37-.6-.94-1.81-1.73l-1.51-.99c-.37-.24-.55-.42-.55-.55s.13-.19,.38-.19,.88,.26,1.88,.77c1,.51,1.77,.77,2.32,.77,.66,0,1.29-1.06,1.9-3.18,.61-2.12,.92-4.07,.92-5.85s-.46-2.67-1.37-2.67l-.44,.03c-.75,0-1.53,.16-2.36,.49-.4,.97-1,2.3-1.78,3.99-.79,1.69-1.64,3.82-2.58,6.4l-.27,.47c-.57,.84-1.09,1.26-1.56,1.26-.16,0-.3-.05-.41-.14-.37-.26-.55-.7-.55-1.33s.09-1.05,.27-1.25c.47-.57,.98-1.28,1.51-2.14l1.15-2.19,2.17-4.3c-1.79,.9-2.81,1.34-3.07,1.34Zm11.34-6.25c0-.46,.14-.69,.41-.69,.18,0,.4,.08,.66,.25,1.59,.97,3,2.23,4.25,3.8,1.24,1.56,2.1,2.94,2.58,4.14,.48,1.2,.71,2.06,.71,2.58s-.17,1.01-.52,1.47c-.73,.9-1.4,1.34-2,1.34h-.03c-.44,0-.66-.25-.66-.74,0-.16,.03-.36,.08-.58l-.08-.3c-.09-.53-.56-.8-1.4-.82l-2.25,.25c-.31,0-.47-.11-.47-.33,0-.16,.17-.27,.52-.33,1.48-.27,2.52-.49,3.11-.64,.59-.16,.89-.36,.89-.62,0-1.04-.54-2.42-1.62-4.14-1.08-1.72-2.42-3.15-4.03-4.3-.11-.05-.16-.16-.16-.33Zm6.02,.5c-.14,.04-.32,.02-.54-.05-.22-.07-.38-.21-.49-.41l-.45-.73c-.4-.63-.8-1.08-1.2-1.35-.4-.27-.63-.45-.67-.53v-.03c-.07-.25,0-.4,.24-.46,.07-.02,.16-.01,.26,.02,2.2,.64,3.4,1.35,3.6,2.11,.21,.77-.04,1.25-.75,1.44Zm-.87-5.89c2.2,.64,3.4,1.35,3.6,2.11,.21,.77-.05,1.25-.78,1.44-.12,.03-.29,.01-.51-.06-.22-.07-.39-.21-.52-.4l-.45-.73c-.4-.63-.8-1.08-1.2-1.35s-.62-.45-.64-.54c-.07-.25,.02-.4,.24-.46,.07-.02,.15-.02,.25-.01Z"/><path class="cls-1" d="M76.36,126.32c-.15-.15-.22-.31-.22-.48s.11-.26,.34-.26,.71,.22,1.44,.66c1.74,1.11,2.6,2.2,2.6,3.26,0,.66-.32,1.01-.96,1.07h-.05c-.38,0-.7-.31-.96-.93-.51-1.26-1.24-2.37-2.19-3.32Zm3.95,13.4l.44,2.06c0,1.35-.51,2.03-1.53,2.03h-.22c-.51,0-.77-.28-.77-.85,0-.11,.06-.58,.18-1.41,.12-.83,.18-1.7,.18-2.62-.46-.8-1.04-1.47-1.75-2-.15-.29-.28-.58-.41-.85,.6,.18,1.02,.27,1.26,.27,.51,0,.9-.2,1.18-.6,1.22-1.17,2.48-4.09,3.75-8.77,.05-.2,.15-.35,.29-.45,.14-.1,.25-.16,.34-.16,.09,0,.19,.03,.3,.11,.11,.08,.16,.22,.16,.4-1.94,6.05-3.07,10.33-3.4,12.85Zm-2.25-19.54c-.13-.13-.2-.28-.21-.47,0-.18,.1-.27,.33-.27s.71,.22,1.44,.66c1.74,1.11,2.6,2.2,2.6,3.26,0,.66-.32,1.01-.96,1.07h-.06c-.38,0-.7-.31-.96-.93-.51-1.26-1.24-2.37-2.19-3.32Zm5.45,9.43c0-.07,.08-.11,.23-.11s1.04,.28,2.64,.85h12.52l1.32-1.51c1.3,1.11,1.95,1.76,1.95,1.95s-.19,.27-.58,.27h-15.59c-.09,.05-.14,.28-.14,.69v3.48h12.93l1.43-1.51c1.3,1.11,1.95,1.82,1.95,2.11,0,.11-.19,.16-.58,.16h-7.97c.66,.99,1.41,1.83,2.25,2.52,1.02-.82,1.86-1.63,2.52-2.41,1.5,.73,2.36,1.28,2.58,1.64-.02,.05-.11,.08-.26,.08s-.42-.04-.78-.11c-.95,.71-2,1.21-3.15,1.48,1.57,1.02,3.42,1.63,5.54,1.81-.48,.86-.95,1.72-1.43,2.58-3.65-1.37-6.39-3.9-8.22-7.59h-2.38v4.44c.97-.13,1.8-.25,2.49-.37,.69-.12,1.14-.18,1.33-.19,.19,0,.3,.05,.33,.16,.03,.12-.01,.25-.12,.4-2.7,1.26-5.22,2.04-7.54,2.33v.6c0,.29-.07,.44-.22,.44-.26-.02-.79-.98-1.59-2.88h.74c.4,0,1.22-.07,2.47-.22v-4.71h-2.36c-.26,3.96-1.59,6.62-4,7.97-.27,0-.41-.15-.41-.44,0-.13,.1-.34,.3-.63,1.3-1.99,1.95-4.41,1.95-7.26v-4.74l-.14-1.29Zm5.4-9.02l-.11-1.29c0-.09,.06-.14,.19-.14h.05c1.97,.29,2.96,.58,2.96,.85,0,.09-.14,.2-.42,.33-.28,.13-.42,.28-.42,.47v.88h1.86v-1.1l-.11-1.29c0-.09,.06-.14,.19-.14h.08c1.95,.29,2.93,.58,2.93,.85,0,.09-.14,.2-.42,.33-.28,.13-.42,.28-.42,.47v.88h1.26c.24-.11,.56-.41,.96-.89,.4-.48,.66-.73,.77-.73,.33,0,.82,.25,1.48,.75,.66,.5,.99,.91,.99,1.22l-1.15,1.26v3.4l.16,2.27c-.04,.37-.56,.55-1.56,.55h-.41c-.38-.02-.56-.13-.52-.33,.04-.2,.06-.35,.06-.44h-10.39c.07,.15,.11,.32,.11,.52s-.66,.3-1.97,.3c-.4,0-.58-.23-.55-.69l.14-2.16v-4.91l-.16-1.29c-.02-.11,0-.16,.08-.16l2.88,1.32h1.48v-1.1Zm10.41,12.99h-10.06c-.44,0-1.04,.13-1.81,.38l-1.37-1.12,.22-.3c1.02,.16,2.27,.26,3.73,.27h6.49l1.42-1.51c1.28,1.11,1.92,1.82,1.92,2.11,0,.11-.18,.16-.55,.16Zm-10.41-11.15h-2.03c-.02,.05-.03,.19-.03,.41v1.86h2.06v-2.27Zm0,5.59v-2.58h-2.06v2.58h2.06Zm2.25-5.59v2.27h1.86v-2.27h-1.86Zm0,3.01v2.58h1.86v-2.58h-1.86Zm4.11-.74h2.06v-1.7c0-.24-.05-.43-.14-.58h-1.92v2.27Zm0,3.32h2.06v-2.58h-2.06v2.58Z"/><path class="cls-1" d="M119.82,143.81h-.16c-.15,0-.65-.59-1.51-1.78-2.14-4.59-4.93-7.41-8.39-8.47-.53-.18-.79-.64-.79-1.38s.45-1.46,1.34-2.15c2.03-1.55,4.17-4.1,6.41-7.65,.18-.4,.27-.78,.27-1.14s-.16-.61-.48-.75c-.32-.15-.57-.23-.75-.25-.11-.13-.16-.23-.16-.3-.05-.26,.13-.42,.55-.49,.09-.02,.22-.03,.38-.03,.51,0,1.14,.2,1.89,.6,1.35,.75,2.03,1.5,2.03,2.25v.05c0,.22-.25,.44-.74,.67-.49,.23-.96,.57-1.4,1.03-2.83,3.16-5.12,5.48-6.88,6.96-.48,.4-.71,.74-.71,1.01s.15,.48,.44,.6c2.1,1.06,3.98,2.35,5.63,3.86,1.65,1.52,2.92,2.99,3.79,4.41,.27,.46,.41,.86,.41,1.21,0,1.15-.39,1.73-1.18,1.73Z"/><path class="cls-1" d="M139.93,135.78h-6.36l.11,.71c-.04,.37-.63,.55-1.78,.55-.31,0-.49-.21-.55-.63l.11-1.15v-8.19l-.03-.27c-.77,.68-1.29,1.01-1.56,1.01s-.42-.14-.44-.41c0-.07,.07-.18,.22-.33,2.08-1.95,3.83-4.67,5.23-8.14,2.3,.31,3.56,.71,3.78,1.21l-1.86,.58c-.4,.53-.79,1.03-1.18,1.51l2.63-.03,1.59-1.64c1.55,1.11,2.33,1.91,2.33,2.38,0,.11-.18,.16-.55,.16l-4.41,3.7h2.08l1.56-1.45c1.53,.99,2.3,1.64,2.3,1.95l-1.15,1.21v6.44l.16,1.56c-.07,.37-.54,.55-1.4,.55h-.41c-.37-.02-.55-.21-.55-.58,0-.11,.04-.34,.11-.69Zm-8.11,2.58c.05-.24,.16-.36,.33-.36s.32,.19,.47,.58c.04,.09,.06,.25,.06,.47s0,.47-.03,.74c-.04,2.58-.65,4.06-1.84,4.47-.22,.07-.41,.11-.58,.11-.53,0-.79-.25-.79-.74,0-.31,.2-.73,.6-1.26,.82-1.06,1.42-2.39,1.78-4Zm.47-12.39l1.95,.82h1.86l2.06-3.7h-3.26c-.97,1.15-1.84,2.11-2.6,2.88Zm3.34,4.99v-3.34h-2.06s-.04,1.13-.06,3.34h2.11Zm0,4.14v-3.45h-2.11l.03,3.45h2.08Zm-1.18,7.21l.14-1.4c0-.69-.18-1.54-.55-2.55-.07-.2-.11-.32-.11-.36,.07-.16,.21-.23,.41-.19,.2,.04,.58,.46,1.15,1.26,.58,1.11,.9,1.81,.96,2.08,.06,.27,.08,.55,.08,.84s-.13,.61-.38,.99c-.26,.37-.52,.56-.79,.56h-.14c-.51-.16-.77-.58-.77-1.23Zm3.15-.93l.03-.55c0-.69-.22-1.63-.66-2.82-.07-.2-.11-.32-.11-.36,.07-.16,.2-.25,.38-.25s.59,.4,1.23,1.21c.68,1.19,1.04,1.88,1.08,2.07,.05,.19,.07,.42,.07,.69s-.1,.58-.31,.93-.46,.53-.75,.53h-.11c-.57-.16-.85-.65-.85-1.45Zm.22-10.41h2.14v-2.74c0-.26-.05-.46-.16-.6h-1.95l-.03,3.34Zm0,4.14h2.14v-3.45h-2.14v3.45Zm2.96,5.65v-.66c-.02-.42-.15-.95-.38-1.59l-.38-.96c.05-.18,.18-.27,.38-.27s.62,.39,1.26,1.16c.64,.78,.99,1.27,1.06,1.48,.06,.21,.1,.46,.1,.75s-.1,.61-.29,.96c-.19,.35-.43,.53-.73,.55h-.11c-.57-.16-.87-.64-.9-1.43Zm9.37,.16c.11,1.46,.16,2.25,.16,2.36-.04,.37-.68,.55-1.92,.55-.29,0-.48-.21-.55-.63l.11-2.27v-4.27h-1.95c-.53,.04-.96,.11-1.3,.23-.34,.12-.53,.18-.56,.18-.95-.79-1.42-1.23-1.42-1.34,1.02,.16,2.28,.26,3.78,.27h1.45v-4.63h-1.42c-.53,.04-.96,.11-1.3,.23-.34,.12-.53,.18-.56,.18-.95-.79-1.43-1.23-1.43-1.34,1.02,.16,2.28,.26,3.78,.27h.93v-4.22h-1.62c-.53,.04-.96,.11-1.3,.23-.34,.12-.53,.18-.56,.18-.95-.88-1.42-1.32-1.42-1.34,1.06,.16,2.32,.26,3.78,.27h4.99l1.53-1.75c1.24,1.13,1.95,1.8,2.14,2,0,.27-.2,.41-.6,.41h-4.74v4.22h1.04l1.59-1.75c1.28,1.13,1.99,1.8,2.14,2,0,.27-.2,.41-.6,.41h-4.17v4.63h1.86l1.59-1.75c1.28,1.13,1.99,1.8,2.14,2,0,.27-.2,.41-.6,.41h-4.99v4.27Zm-6.33-20.8c-.09-.09-.12-.22-.1-.38,.03-.16,.18-.24,.47-.22,.28,.02,.83,.37,1.63,1.07,1.3,1.17,1.95,2.05,1.95,2.64s-.23,1.12-.69,1.58c-.18,.18-.47,.27-.85,.27h-.11c-.26-.02-.45-.35-.58-.99-.38-1.75-.96-3.08-1.73-3.97Zm6.3,5.48c-.4,.04-.61-.07-.63-.33-.02-.18,.07-.39,.27-.63,.77-1.86,1.21-3.55,1.34-5.07,2.38,.69,3.56,1.23,3.56,1.62l-1.48,.05c-.69,1.52-1.64,2.95-2.85,4.3-.07,.04-.15,.05-.22,.05Z"/><path class="cls-1" d="M169.28,133.28c0-.29,.11-.44,.33-.44,.09,0,.34,.07,.75,.21,.41,.14,1.13,.21,2.17,.21s2.05-.15,3.04-.45c1-.3,1.7-.73,2.12-1.29,.42-.56,.63-1.16,.63-1.79,0-1.81-1.24-2.71-3.73-2.71-.62,0-1.29,.05-2.01,.14-.72,.09-1.79,.53-3.19,1.32l-1.56,.9c-.24,.13-.84,.47-1.81,1.01l.58,1.62c.99,2.76,1.65,4.54,2,5.34l1.12,2.49c.29,.62,.44,1.13,.44,1.53s-.16,.85-.48,1.36c-.32,.5-.7,.75-1.14,.75-.33,0-.64-.37-.93-1.1l-.33-1.01c-.24-2.72-.94-5.59-2.11-8.6-.33-.9-.49-1.43-.49-1.59l-1.7,.99c-.2,.05-.47,.2-.81,.42-.34,.23-.58,.34-.73,.34-.73,0-1.42-.37-2.07-1.11-.65-.74-.97-1.33-.97-1.77s.07-.66,.22-.66,.33,.17,.55,.52c.22,.35,.54,.52,.96,.52,.71,0,1.42-.11,2.11-.33s1.26-.41,1.7-.58c-.04-.04-.28-.45-.74-1.23l-1.32-2.3c-.48-.82-.71-1.51-.71-2.06,0-1.1,.63-1.64,1.89-1.64,.77,0,1.37,.07,1.79,.22,.43,.15,.68,.26,.75,.34,.07,.08,.11,.16,.11,.22s0,.11-.03,.15c-.09,.18-.25,.27-.47,.27l-1.15-.03c-.26,0-.38,.15-.38,.45s.58,1.95,1.75,4.95c.4-.16,.97-.45,1.7-.85l1.67-.9c1.48-.8,2.79-1.28,3.92-1.43,.66-.09,1.38-.14,2.16-.14s1.7,.17,2.74,.51c1.04,.34,1.81,.78,2.3,1.32,.49,.54,.74,1.22,.74,2.04v.03c0,1.68-.77,2.98-2.3,3.89-1.26,.77-2.75,1.15-4.45,1.15s-3.11-.25-4.21-.74c-.29-.2-.44-.36-.44-.47Zm4.8-9.04c0,.53-.43,.8-1.29,.82-.33,0-.58-.1-.77-.3-.16-.09-.39-.25-.69-.47-.29-.22-.78-.39-1.45-.52-.68-.13-1.19-.23-1.53-.31-.35-.08-.53-.12-.55-.12s-.04,0-.05-.03c0-.18,.11-.29,.33-.33l2.27,.27,.82,.14c0-.16-.14-.4-.42-.71-.28-.31-1.02-.81-2.21-1.51-.22-.13-.33-.25-.33-.37s.15-.18,.45-.18,1.02,.2,2.16,.59c1.14,.39,1.85,.67,2.12,.84,.75,.51,1.12,1.24,1.12,2.19Z"/><path class="cls-1" d="M188.05,130.87c-.55-.07-1.05-.37-1.51-.88-.44-.66-.66-1.2-.66-1.62s.07-.63,.21-.63,.23,.02,.29,.07c.05,.05,.18,.27,.37,.66,.19,.39,.5,.59,.92,.59,.22,0,.64-.09,1.26-.27l2.71-.82c.8-1.41,1.21-3.08,1.21-5.01,0-.95-.27-1.63-.79-2.06-.33-.27-.5-.43-.52-.47-.02-.05-.03-.12-.03-.19,0-.18,.13-.27,.38-.27s.59,.1,1.01,.3c1.83,.79,2.74,1.44,2.74,1.97,0,.27-.11,.53-.32,.75-.21,.23-.35,.39-.41,.49-.06,.1-.11,.25-.15,.45l-1.04,3.32c1.3-.33,2.28-.49,2.96-.49s1.14,.16,1.4,.47c.84,1.17,1.26,2.37,1.26,3.59,0,.24,0,.5-.03,.79-.33,4.42-.95,7.43-1.86,9.02-.62,1.06-1.14,1.74-1.56,2.06-.42,.29-.8,.44-1.15,.44-.66,0-.99-.19-.99-.58l.05-.69c0-.37-.6-.94-1.81-1.73l-1.51-.99c-.37-.24-.55-.42-.55-.55s.13-.19,.38-.19,.88,.26,1.88,.77c1,.51,1.77,.77,2.32,.77,.66,0,1.29-1.06,1.9-3.18,.61-2.12,.92-4.07,.92-5.85s-.46-2.67-1.37-2.67l-.44,.03c-.75,0-1.53,.16-2.36,.49-.4,.97-1,2.3-1.78,3.99-.79,1.69-1.64,3.82-2.58,6.4l-.27,.47c-.57,.84-1.09,1.26-1.56,1.26-.16,0-.3-.05-.41-.14-.37-.26-.55-.7-.55-1.33s.09-1.05,.27-1.25c.47-.57,.98-1.28,1.51-2.14l1.15-2.19,2.17-4.3c-1.79,.9-2.81,1.34-3.07,1.34Zm11.34-6.25c0-.46,.14-.69,.41-.69,.18,0,.4,.08,.66,.25,1.59,.97,3,2.23,4.25,3.8,1.24,1.56,2.1,2.94,2.58,4.14,.48,1.2,.71,2.06,.71,2.58s-.17,1.01-.52,1.47c-.73,.9-1.4,1.34-2,1.34h-.03c-.44,0-.66-.25-.66-.74,0-.16,.03-.36,.08-.58l-.08-.3c-.09-.53-.56-.8-1.4-.82l-2.25,.25c-.31,0-.47-.11-.47-.33,0-.16,.17-.27,.52-.33,1.48-.27,2.52-.49,3.11-.64,.59-.16,.89-.36,.89-.62,0-1.04-.54-2.42-1.62-4.14-1.08-1.72-2.42-3.15-4.03-4.3-.11-.05-.16-.16-.16-.33Z"/><path class="cls-1" d="M221.92,126.13l-1.97,.77c-.84,1.28-2.04,3.97-3.59,8.08-.62,1.66-1.21,2.49-1.78,2.49-.31,0-.61-.28-.89-.85-.28-.57-.42-1.09-.42-1.56s.06-.8,.19-.99c.88-1.26,1.69-2.48,2.44-3.67,.75-1.19,1.46-2.25,2.14-3.18l-.14-.03c-.13,0-.72,.11-1.78,.34-1.06,.23-1.73,.34-2.01,.34s-.53-.15-.75-.44c-.68-.91-1.01-1.73-1.01-2.44,0-.24,.03-.36,.08-.36,.18,0,.36,.12,.52,.36,.27,.48,.94,.76,2,.85h.21c.12,0,.71-.03,1.77-.1,1.06-.06,1.61-.11,1.64-.15,.46-.84,.69-1.9,.69-3.18,0-.55-.08-.93-.23-1.14-.16-.21-.41-.42-.75-.64-.35-.22-.52-.4-.52-.55,0-.26,.16-.38,.48-.38s.73,.1,1.22,.3c1.41,.55,2.18,1.14,2.33,1.78,.02,.05,.03,.16,.03,.33s-.06,.45-.19,.85c-.13,.4-.19,.61-.19,.63-.4,.53-.73,1.11-.99,1.73,.58-.02,1.05-.2,1.4-.55,.35-.35,.6-.61,.75-.78,.15-.17,.31-.32,.48-.45,.16-.13,.39-.19,.67-.19s.68,.06,1.19,.18c.51,.12,.89,.4,1.12,.84,.07,.15,.11,.27,.11,.38,0,.35-.28,.58-.85,.69-.31,.05-.87,.17-1.69,.36-.81,.18-1.37,.29-1.69,.33Zm5.75,3.29c.26,0,.37,.13,.36,.38,0,.15-.09,.47-.26,.96-.17,.49-.26,1.25-.26,2.26s.08,2.3,.25,3.85c1.99,.58,3.25,1.13,3.78,1.63,.53,.5,.79,.95,.79,1.33,0,.8-.34,1.21-1.01,1.21h-.11c-.38,0-.87-.32-1.47-.97-.59-.65-1.23-1.08-1.9-1.3-.2,1.52-.5,2.55-.9,3.1-.62,.82-2.03,1.23-4.22,1.23-1.28,0-2.37-.3-3.26-.9-.9-.6-1.34-1.33-1.34-2.19v-.03c0-1.15,.41-2.08,1.22-2.8s1.84-1.07,3.08-1.07,2.35,.07,3.32,.22c-.04-1.15-.05-1.75-.05-1.81v-.03c0-.46,.08-1.23,.23-2.32,.15-1.09,.58-1.96,1.27-2.62l.33-.11s.09-.03,.16-.03Zm-4.58,11.98c1.77,0,2.66-.65,2.66-1.95v-.52c0-.31-.03-.61-.08-.9-.57-.27-1.44-.41-2.63-.41-1.57,0-2.61,.44-3.12,1.32-.11,.18-.16,.5-.16,.96s.17,.77,.52,.93c.71,.38,1.6,.58,2.66,.58h.16Zm6.7-13.67c.54,0,1.07,.04,1.6,.11-.18-.47-.34-.84-.47-1.1-.38-.9-1.35-1.74-2.9-2.52-.37-.18-.55-.42-.55-.7s.16-.42,.49-.42c.2,0,.41,.05,.63,.16,1.1,.49,2.16,1.15,3.21,1.97,1.5,1.17,2.25,2.2,2.25,3.1,0,.11-.01,.22-.04,.33-.03,.11-.09,.39-.18,.84-.09,.45-.31,.67-.66,.67-.26,0-.61-.26-1.07-.77-.2-.2-.74-.42-1.62-.64-.88-.23-1.35-.37-1.41-.44-.06-.06-.1-.12-.1-.18,0-.27,.27-.41,.81-.41Z"/><path class="cls-1" d="M116.76,172.37c-.16,0-.25-.11-.25-.34s.07-.43,.22-.62c2.01-2.39,3.36-5.07,4.06-8.03,2.34,.84,3.56,1.42,3.67,1.73-.15,.2-.74,.33-1.78,.38-1.33,2.83-3.22,5.11-5.67,6.82-.13,.04-.21,.05-.25,.05Zm2.27-16.3c-.06-.05-.08-.1-.08-.15s.08-.07,.23-.07,.49,.05,1.01,.14c.52,.09,1.48,.15,2.86,.16h4.91v-2.69l-.14-1.21v-.14s.09-.05,.27-.05,.71,.06,1.58,.19c.87,.13,1.3,.27,1.3,.41,0,.09-.14,.21-.41,.37-.27,.16-.41,.32-.41,.51v2.6h5.26l1.48-1.86c1.57,1.44,2.36,2.18,2.36,2.22,0,.2-.22,.3-.66,.3h-8.44v3.59h7.81s.52-.62,1.51-1.86c1.57,1.35,2.36,2.08,2.36,2.19,0,.22-.22,.33-.66,.33h-8.08l-.03,13.87c0,.4-.22,.82-.66,1.25-.44,.43-.91,.64-1.43,.64-.18,0-.36-.07-.52-.22-1.46-1.3-2.96-1.98-4.49-2.06-.26-.05-.38-.15-.38-.27s.11-.19,.33-.19l4.41,.44c.37,0,.55-.15,.55-.44,0-4.6,0-8.94,.03-13.02h-3.32v4.41c-.27,5.74-2.69,9.45-7.23,11.15-.15,.05-.28,.08-.41,.08s-.23-.07-.32-.21-.04-.37,.12-.7c3.76-2.28,5.65-5.92,5.65-10.91v-3.84h-6.55l-1.62,.19c-.4-.6-.6-.96-.6-1.07,0-.07,.07-.1,.21-.1,.14,0,.49,.06,1.07,.15,.58,.09,1.56,.15,2.95,.16h7.1c0-.88,0-2.07,.03-3.59h-6.49l-1.62,.19-.82-.93Zm15.87,7.76c-.02-.29,.08-.44,.3-.44,.38,.02,1.07,.47,2.06,1.34,2.5,2.23,3.75,3.84,3.75,4.84s-.49,1.95-1.48,2.86h-.03c-.29,0-.53-.32-.71-.96-.95-3.32-2.22-5.78-3.81-7.37-.05-.05-.08-.15-.08-.27Z"/><path class="cls-1" d="M148.58,161.05c-.27,3.18-.41,4.85-.41,5.01,0,1.95,.72,3.63,2.17,5.01,1.28-2.58,2.43-4.59,3.45-6.03,.37-.51,.66-.77,.89-.77s.33,.11,.31,.34c-.02,.23-.22,.69-.6,1.38-1.59,2.85-2.39,4.79-2.41,5.81v.05l.36,.96c.24,.64,.37,1.06,.38,1.25,.02,.19-.1,.38-.36,.56-.26,.18-.52,.28-.79,.3-.69-.05-1.35-.37-1.97-.96-2.06-1.95-3.1-5-3.1-9.13,0-.53,.02-1.07,.05-1.62l.22-3.29,.03-.25c-.04-.89-.31-1.57-.81-2.03-.5-.46-.75-.75-.75-.88,.02-.27,.33-.41,.93-.41s1.3,.47,2.08,1.4c.38,.49,.58,.97,.58,1.43v.16l-.25,1.67Zm16.61,10.39h-.19c-.48-.05-.74-.58-.79-1.59,.02-.05,.03-.12,.03-.19,0-.55-.95-1.03-2.85-1.45l-.63-.11c-.27-.05-.43-.15-.47-.3l-.03-.05c.11,.02,.17-.06,.19-.23,.02-.17,.27-.23,.75-.18,.48,.05,1.53,.28,3.14,.69l.08-.6c.07-.68,.11-1.4,.11-2.16,0-2.56-1.25-4.78-3.75-6.66-.27-.2-.29-.41-.05-.62,.24-.21,.39-.32,.47-.32,.22,.02,.43,.12,.63,.3,2.05,1.72,3.45,3.44,4.22,5.18,.6,1.72,.9,3.57,.9,5.56,0,.37,0,.73-.03,1.1v.38c0,.07-.18,.3-.53,.69-.36,.38-.72,.58-1.08,.58h-.11Z"/><path class="cls-1" d="M192.15,162.58v4.58l.16,1.23c0,.53-.65,.79-1.95,.79-.31,0-.47-.2-.47-.6l.03-1.23h-13.54v5.92c0,1,.4,1.51,1.21,1.51h14.17c.79,0,1.28-1.18,1.48-3.54l.16-1.92c.16-1.08,.31-1.62,.42-1.62s.21,.53,.29,1.59l.16,4.22,.38,1.15c.22,.2,.33,.39,.33,.58s-.02,.34-.05,.47c-.27,.77-.99,1.15-2.14,1.15h-15.89c-1.74,0-2.6-.91-2.6-2.74v-12.58l-.06-.66c-.9,.69-1.85,1.36-2.88,2-.38,.02-.59-.08-.63-.29-.04-.21,.08-.44,.36-.7,3.75-3.01,6.52-6.41,8.33-10.19,2.16,.68,3.23,1.17,3.23,1.48l-1.59,.49c-.62,.8-1.09,1.41-1.4,1.81h6.06l1.7-1.67c1.57,1.13,2.36,1.78,2.36,1.95,0,.22-.24,.37-.71,.44-1.74,1.75-3.29,3.26-4.66,4.52h4.91l1.67-1.4c1.3,.99,2,1.67,2.11,2.06l-.96,1.21Zm-16.83-2.55l1.62,.69h6.41c.66-.82,1.61-2.32,2.85-4.49h-7.1c-1.11,1.35-2.38,2.62-3.78,3.81Zm7.02,6.47v-4.93h-5.92c0,.2,0,.31-.03,.33v4.6h5.95Zm7.59,0v-4.38c0-.18-.04-.37-.11-.55h-5.4v4.93h5.51Z"/></g></g></g></svg>