<?xml version="1.0" encoding="UTF-8"?><svg id="_レイヤー_2" xmlns="http://www.w3.org/2000/svg" width="290" height="318" xmlns:xlink="http://www.w3.org/1999/xlink" viewBox="0 0 290 318"><defs><style>.cls-1{fill:#5e4a3e;}.cls-2{fill:#fff;filter:url(#drop-shadow-1);}</style><filter id="drop-shadow-1" filterUnits="userSpaceOnUse"><feOffset dx="7" dy="7"/><feGaussianBlur result="blur" stdDeviation="5"/><feFlood flood-color="#000" flood-opacity=".1"/><feComposite in2="blur" operator="in"/><feComposite in="SourceGraphic"/></filter></defs><g id="_文字"><g><path class="cls-2" d="M170.43,40l-3.55-31.09s-5.92,12.61-13.1,27.92c-5.25-.65-10.6-.99-16.03-.99C66.09,35.85,8,93.94,8,165.6s58.09,129.75,129.75,129.75,129.75-58.09,129.75-129.75c0-60.37-41.23-111.11-97.07-125.6Z"/><g><path class="cls-1" d="M77.62,97.38v13.32h-4.91v2.41h-1.59v-15.73h6.5Zm-1.62,1.7h-3.29v9.95h3.29v-9.95Zm12,2.52h7.73v1.59h-17.59v-1.59h2.88v-5.26l2.25,.14c-.03,.19-.16,.33-.52,.38v4.74h3.51v-6.91l2.27,.14c-.03,.19-.16,.33-.52,.36v2.36h5.89v1.51h-5.89v2.55Zm4.74,7.97v-5.51l2.19,.14c-.03,.19-.16,.33-.52,.38v15.57h-1.67v-1.15h-11.89v1.15h-1.62v-16.09l2.14,.14c-.03,.19-.16,.33-.52,.38v4.99h11.89Zm-11.89,7.86h11.89v-6.39h-11.89v6.39Zm4.58-5.59c-.06,.19-.19,.27-.47,.27-.14,.47-.27,.9-.47,1.34,.74,.63,1.53,1.48,1.95,2.03l-1.01,.77c-.33-.49-.88-1.12-1.45-1.73-.58,.96-1.26,1.81-2.08,2.41-.25-.25-.66-.58-.99-.77,1.37-.96,2.38-2.69,2.82-4.66l1.7,.33Zm.05-3.32c-.33-.49-.88-1.12-1.45-1.7-.47,.88-1.1,1.62-1.81,2.17-.25-.19-.69-.55-.99-.74,1.26-.93,2.14-2.55,2.52-4.41l1.7,.36c-.06,.16-.19,.27-.49,.27-.11,.41-.25,.85-.41,1.26,.77,.66,1.53,1.48,1.95,2.03l-1.01,.77Zm6.03,8.3c-.44-.63-1.26-1.53-2.08-2.33-.6,.99-1.37,1.81-2.3,2.38-.25-.25-.66-.6-.99-.79,1.53-.88,2.63-2.52,3.04-4.55l1.7,.33c-.03,.16-.19,.25-.47,.25-.11,.44-.25,.88-.44,1.32,.99,.85,2.03,1.89,2.58,2.6l-1.04,.79Zm-.11-7.84c-.44-.58-1.18-1.43-1.95-2.14-.52,.88-1.18,1.62-1.97,2.14-.27-.22-.69-.58-1.01-.77,1.4-.9,2.36-2.47,2.71-4.38l1.7,.33c-.03,.16-.19,.25-.47,.27-.11,.44-.22,.88-.41,1.29,.9,.79,1.89,1.81,2.41,2.44l-1.01,.82Z"/><path class="cls-1" d="M100.09,118.85c-.42-.02-.71-.16-.86-.41-.16-.26-.24-.41-.25-.47s-.01-.16-.01-.3,0-.34,.03-.59,.23-.71,.63-1.38l.33-.55c2.56-4.26,4.59-8.47,6.08-12.63,.79-2.16,1.18-3.47,1.18-3.95,0-.04-.03-.19-.08-.47-.05-.27-.16-.44-.33-.49l-.77-.08c-.31,0-.48-.1-.49-.3,0-.2,.38-.3,1.15-.3s1.53,.24,2.27,.71c.75,.48,1.12,.9,1.12,1.27s-.11,.69-.33,.95c-.51,.6-.79,.95-.85,1.04-.9,1.64-1.64,3.12-2.23,4.43-.59,1.31-1.24,2.65-1.93,4.04,1.44-1.66,2.9-2.5,4.36-2.52,1.33,.2,2.19,.6,2.56,1.21,.37,.6,.57,1.42,.59,2.44l-.05,3.26v.38c0,.24,.09,.64,.27,1.21,.33,.95,1.21,1.42,2.63,1.42,1.99,0,3.63-1.77,4.91-5.32,.16-.46,.43-.69,.81-.69s.56,.16,.56,.49-.21,1.02-.62,2.07c-.41,1.05-1.16,2.17-2.26,3.36-1.22,1.21-2.66,1.81-4.3,1.81h-.05c-1.28,0-2.27-.39-2.96-1.18-.69-.79-1.04-1.84-1.04-3.18l.16-3.92c.02-.11,.03-.19,.03-.25,0-1.04-.54-1.56-1.62-1.56-1.41,0-2.84,1.08-4.3,3.23l-.9,1.43-2.03,4.06-.16,.41c-.35,.88-.76,1.32-1.23,1.32Z"/><path class="cls-1" d="M130.09,97.12c-.27-.05-.41-.2-.4-.44,0-.24,.16-.36,.45-.36s.7,.08,1.23,.25c1.43,.49,2.17,1.03,2.25,1.62v.33c0,.18-.1,.42-.31,.71-.21,.29-.34,.61-.4,.96-.04,.53-.08,1.06-.14,1.59,1.19-.38,2.33-1.14,3.43-2.27,.46-.4,.72-.63,.79-.67,.07-.05,.35-.13,.82-.25s.79-.18,.96-.18,.29,0,.38,.03c.79,.2,1.18,.43,1.18,.69s-.81,.94-2.43,2.04c-1.62,1.11-3.38,1.8-5.3,2.1-.6,4.38-1.96,8.94-4.08,13.67-.4,1.28-.85,1.92-1.33,1.92s-.83-.22-1.03-.67-.3-.9-.3-1.36,.16-.9,.49-1.32l1.4-2.6c1.5-3.31,2.48-6.49,2.93-9.54-.9-.02-1.84-.23-2.82-.63-.79-.35-1.31-.92-1.56-1.73-.02-.05-.03-.1-.03-.14,0-.24,.09-.35,.27-.34,.18,0,.63,.22,1.33,.64,.7,.42,1.26,.68,1.69,.77,.42,.09,.85,.14,1.29,.14,.11-.93,.16-1.92,.16-2.97s-.23-1.69-.69-1.93l-.25-.05Zm7.86,12.69c.24,0,.36,.14,.36,.41,0,.07-.23,.32-.69,.74-.66,.68-.99,1.48-.99,2.43s.09,1.52,.27,1.74c.66,.71,2.27,1.07,4.85,1.07,.26,0,.52,0,.79-.01,.27,0,.66-.1,1.15-.26,.49-.16,1-.25,1.51-.25s1.03,.2,1.55,.6c.52,.4,.78,.72,.78,.96s-.06,.39-.19,.47c-.62,.33-2.22,.49-4.8,.49-3.65,0-5.95-.76-6.88-2.27-.33-.53-.49-1.06-.49-1.59s.21-1.26,.63-2.18c.42-.92,1-1.64,1.73-2.15,.16-.13,.3-.19,.41-.19Zm5.45-4.55c-.64-.26-1.11-.38-1.41-.38s-1.93,.32-4.89,.96c-.29-.02-.44-.18-.44-.49,0-.26,.25-.48,.74-.69,2.39-.93,4.22-1.4,5.49-1.4s2.1,.14,2.48,.41c.77,.51,1.15,.96,1.15,1.34,0,.55-.63,.91-1.88,1.08-1.25,.17-2.38,.67-3.38,1.49-.53,.44-.86,.66-.99,.66-.18,0-.27-.12-.27-.36,0-.13,.43-.52,1.3-1.19,.87-.67,1.57-1.15,2.1-1.44Zm1.6-3.98c-.15,.01-.32-.04-.52-.16-.2-.11-.34-.28-.41-.49l-.3-.8c-.27-.7-.57-1.21-.92-1.56-.34-.34-.53-.56-.55-.65v-.03c-.02-.26,.09-.39,.33-.41,.07,0,.16,.02,.25,.07,2.03,1.05,3.08,1.97,3.13,2.76s-.28,1.21-1.01,1.27Zm.27-5.95c2.03,1.05,3.08,1.97,3.13,2.76s-.29,1.22-1.04,1.27c-.13,0-.29-.04-.49-.16-.2-.11-.34-.28-.43-.49l-.3-.8c-.27-.7-.57-1.21-.92-1.56-.34-.34-.52-.56-.53-.65-.02-.26,.09-.39,.33-.41,.07,0,.16,0,.25,.04Z"/><path class="cls-1" d="M159.36,113.05l.16,1.59c-.06,.37-.69,.55-1.89,.55-.33,0-.49-.24-.49-.71,0-.16,.02-.36,.05-.58h-4.11c.07,.69,.11,1.78,.11,3.26v.27c-.06,.37-.69,.55-1.89,.55-.02,.02-.04,.03-.05,.03-.09,0-.25-.23-.47-.69l.11-3.45v-15.73l-.14-1.21v-.11c0-.05,.02-.08,.05-.08h.11l2.71,1.12h3.29l1.15-1.45c1.44,.73,2.23,1.41,2.36,2.03l-1.07,.96v13.65Zm-6.3-8.03h4.17v-5.73c0-.26-.05-.46-.16-.6h-4v6.33Zm0,8.08h4.17v-7.32h-4.17v7.32Zm8.88-8.41l-1.15,.19c-.38-.4-.77-.79-1.15-1.18l2.52,.33h4.19v-3.89h-3.67l-1.62,.19c-.26-.44-.5-.82-.74-1.15,1.3,.2,2.43,.3,3.4,.3h2.63v-2.9l-.14-1.21v-.14s.09-.05,.27-.05,.71,.06,1.58,.19c.87,.13,1.3,.27,1.3,.41,0,.09-.14,.21-.41,.37-.27,.16-.41,.32-.41,.51v2.82h2.69l1.48-1.73,2.36,2.08c0,.2-.22,.3-.66,.3h-5.86v3.89h4.03s.06-.02,.14-.05l1.37-1.67c1.57,1.35,2.36,2.04,2.36,2.06,0,.22-.22,.33-.66,.33h-3.81v3.56h.79l1.32-1.48c1.41,1.1,2.11,1.74,2.11,1.95,0,.15-.22,.22-.66,.22h-3.56v8.71c0,1.39-.92,2.08-2.77,2.08l-1.07-.85c-.88-.69-2.28-1.08-4.22-1.15-.26-.11-.38-.22-.38-.34s.11-.25,.33-.4l4.66,.44c.84-.04,1.26-.24,1.26-.6v-7.89h-8l-1.45,.19-.77-1.21,3.12,.33h7.1v-3.56h-7.84Zm-.63,5.43c0-.16,.13-.25,.38-.25,.62,.02,1.84,.69,3.64,2.03,.53,.38,.79,1.06,.79,2.01s-.24,1.44-.71,1.44h-.03c-.26,0-.52-.29-.79-.88-1-1.99-2.03-3.27-3.07-3.84-.16-.09-.24-.26-.22-.52Z"/><path class="cls-1" d="M180.21,113.32l-.03-2.85c0-.49,.06-1.55,.19-3.17,.13-1.62,.44-3.25,.93-4.89,.49-1.64,.74-2.59,.74-2.85l-.93-1.62c-.07-.15-.08-.35-.03-.6,.09-.16,.21-.25,.37-.25s.48,.15,.97,.44c1.21,.73,1.81,1.59,1.81,2.58,0,.37-.46,1.18-1.37,2.44-.71,1.85-1.07,3.98-1.07,6.41,0,1.43,.21,2.77,.63,4.03,.82-1.64,1.87-3.11,3.15-4.38,.02-.02,.07-.03,.16-.03,.18,0,.26,.09,.23,.27-.03,.18-.25,.59-.67,1.23-.95,1.44-1.62,3.13-2,5.07-.02,.09-.05,.18-.08,.27,.22,.4,.33,.88,.33,1.43,0,1.19-.35,1.78-1.04,1.78-.31,0-.68-.3-1.11-.89s-.74-1.44-.92-2.53c-.18-1.1-.27-1.73-.27-1.89Zm10.6-4.58c.26,0,.38,.14,.38,.41,0,.09-.24,.33-.71,.71-.77,.75-1.15,1.5-1.15,2.25,0,1.83,1,2.74,2.99,2.74l3.32-.22c.44,0,.8-.11,1.08-.33,.28-.22,.6-.33,.95-.33h.36c.4,0,.93,.19,1.59,.56,.66,.37,.99,.71,.99,1s-.17,.51-.51,.66c-.34,.15-1.16,.29-2.48,.44-1.32,.15-2.39,.22-3.22,.22s-1.48-.02-1.96-.05c-2.08-.11-3.52-.91-4.3-2.41-.24-.46-.36-1-.36-1.64s.29-1.37,.86-2.18c.58-.81,1.17-1.38,1.79-1.71,.15-.07,.27-.11,.38-.11Zm4.71-7.1c-1.68,.35-2.86,.52-3.54,.52-1.28,0-2.31-.42-3.1-1.26l-.25-.3s.03-.08,.15-.18c.12-.1,.24-.15,.37-.15s.26,.06,.41,.19c.31,.26,1.15,.38,2.51,.38s2.48-.26,3.37-.77c.89-.51,1.41-.77,1.58-.77,.42,0,.86,.18,1.33,.55,.47,.37,.7,.73,.7,1.1,0,.27-.24,.48-.71,.6l-4.06,2.85-.63,.38c-.26,0-.38-.07-.38-.22-.02-.15,.04-.26,.16-.36,.53-.38,1.22-1.24,2.08-2.58Z"/><path class="cls-1" d="M49.5,136.1c-1.5-1.39-2.27-2.32-2.3-2.78-.04-.47,0-.7,.08-.7s.34,.17,.74,.51c.4,.34,.75,.56,1.04,.66,.29,.1,.82,.23,1.59,.4l2.88-.36c5.26-.55,8.07-.89,8.41-1.01,.53-.49,.88-.74,1.04-.74s.42,.09,.77,.27l.27,.16c1.08,.58,1.62,1.05,1.62,1.4,0,.07-.02,.11-.05,.11h-.11s.06,.07,.06,.16-.18,.3-.55,.63l-.3,.25c-.13,.11-.19,.18-.19,.22-1.17,7.58-5.28,12.82-12.33,15.7-.31,.13-.61,.19-.89,.19s-.52-.19-.7-.58c-.02-.04-.03-.1-.03-.19,0-.26,.3-.49,.9-.71,6.34-2.41,9.93-7.52,10.77-15.32l-.6,.05c-3.78,.35-6.8,.83-9.04,1.45l-2.08,.58c-.31,0-.64-.12-.99-.36Z"/><path class="cls-1" d="M72.93,150.33c-.51,.38-.85,.58-1.01,.58-.26,0-.38-.11-.38-.33,0-.07,.04-.16,.11-.25,3.56-3.12,5.34-7.69,5.34-13.7,0-1.02-.1-1.73-.3-2.11-.2-.38-.47-.63-.81-.74-.34-.11-.52-.2-.55-.27-.03-.07-.04-.14-.04-.19,0-.22,.12-.33,.36-.33,.71,0,1.56,.28,2.53,.85,.98,.57,1.51,.99,1.6,1.26,.04,.09,.06,.17,.06,.25s-.03,.15-.08,.23c-.05,.08-.16,.22-.3,.42-.15,.2-.23,.4-.25,.6-.31,6.27-2.4,10.84-6.28,13.73Zm20.47-11.84c.24-.4,.47-.6,.69-.6,.27,0,.42,.14,.44,.41,0,.07-.03,.16-.08,.25-1.86,4.31-4.96,8.04-9.29,11.18-.6,.8-1.12,1.21-1.56,1.23-.15,0-.26-.05-.33-.16-.86-.91-1.29-1.63-1.29-2.15s.03-.9,.08-1.14c.29-1.24,.44-3.77,.44-7.59v-.03c0-3.34-.11-6.09-.33-8.25-.05-.53-.27-.88-.66-1.04-.18-.07-.27-.17-.27-.3,0-.22,.22-.34,.66-.36,.8,0,1.68,.29,2.63,.88,.55,.33,.82,.61,.82,.85,0,.18-.18,.4-.53,.66-.36,.26-.55,.56-.59,.9-.07,.71-.11,2.64-.11,5.78,.09,2.45,.14,5.05,.14,7.81,0,.18,.08,.38,.25,.6,3.38-1.57,6.35-4.55,8.91-8.93Z"/><path class="cls-1" d="M109.79,140.68c-2.65,.13-5.11,.61-7.37,1.45h-.44c-.26,0-.52-.08-.79-.25-.99-.73-1.58-1.23-1.78-1.51-.42-.64-.64-1.1-.66-1.37,0-.2,.14-.31,.41-.33,.15,0,.24,.02,.29,.07,.05,.05,.19,.19,.42,.42,.44,.44,1.85,.66,4.22,.66,.82,0,1.77-.03,2.85-.08,5.65-.29,9.22-.81,10.71-1.56,.09-.05,.23-.08,.42-.08s.46,.07,.81,.22c1.13,.48,1.7,.91,1.7,1.32,0,.15-.2,.37-.59,.67-.39,.3-.8,.46-1.22,.48-1.43-.18-2.77-.27-4.04-.27s-2.38,.03-3.33,.08l-1.62,.08Z"/><path class="cls-1" d="M125.51,134.1c.02-.27,.16-.41,.44-.41,.16,0,.38,.07,.66,.22,1.04,.62,2.08,1.48,3.12,2.56,1.04,1.09,1.56,1.91,1.56,2.47s-.13,1.03-.38,1.41c-.26,.38-.52,.58-.79,.58s-.53-.1-.77-.32c-.24-.21-.4-.49-.49-.84-.24-1.22-.56-2.22-.96-2.97-.4-.76-1.09-1.5-2.06-2.23-.2-.09-.31-.25-.33-.47Zm5.86,17.04c-.11,.04-.36,.05-.74,.05s-.58-.16-.58-.47c0-.15,.38-.39,1.15-.74,6.19-2.67,9.95-7.46,11.26-14.39,.02-.15,.03-.28,.03-.41,0-.71-.33-1.17-.99-1.37-.35-.11-.52-.24-.52-.38,0-.22,.15-.33,.44-.33s.73,.11,1.32,.33c1.86,.75,2.79,1.41,2.79,1.97,0,.13-.09,.32-.26,.56-.17,.25-.3,.51-.37,.78-1.57,6.81-6.08,11.61-13.54,14.39Zm.93-19.24c.07,0,.24,.08,.49,.25,1.06,.62,2.11,1.48,3.15,2.56,1.04,1.09,1.56,1.9,1.56,2.44s-.16,1.06-.49,1.58c-.18,.27-.42,.41-.71,.41-.2,0-.43-.09-.7-.26-.27-.17-.43-.46-.51-.86-.26-1.22-.58-2.22-.99-2.99-.4-.77-1.1-1.52-2.08-2.25-.18-.07-.27-.23-.27-.47-.04-.27,.15-.41,.55-.41Z"/><path class="cls-1" d="M158.37,131.34c-.51-.07-.77-.21-.77-.42s.42-.32,1.25-.32,1.62,.22,2.37,.67c.75,.45,1.12,.8,1.12,1.06,0,.18-.18,.4-.53,.66-.36,.26-.54,.55-.56,.88-.07,.69-.11,2.17-.11,4.44,1.7,.18,3.43,.59,5.21,1.23,1.77,.64,3.12,1.32,4.06,2.03,.4,.31,.6,.9,.6,1.78s-.35,1.32-1.04,1.32c-.51-.02-.93-.23-1.26-.63-1.41-1.68-2.56-2.78-3.45-3.3-.9-.52-2.27-.98-4.11-1.38,.02,6.12,.11,9.46,.27,10.03,.16,.57,.25,1.01,.25,1.32,0,.69-.22,1.21-.66,1.56-.16,.13-.37,.19-.6,.19s-.5-.17-.79-.52c-.48-.51-.71-1.3-.71-2.36,0-.33,.06-.87,.19-1.62,.13-.75,.19-3.11,.19-7.08s-.07-6.79-.22-8.45c-.06-.66-.28-1.01-.69-1.07Z"/><path class="cls-1" d="M184.02,142.13c0-.31,.19-.47,.56-.47s.63,.03,.78,.08l4.58,1.62c2.01-1.44,4.09-3.79,6.25-7.04h-2.55c-1.48,0-4.93,.46-10.36,1.37h-.03c-.64,0-1.38-.39-2.23-1.18-.85-.79-1.27-1.4-1.27-1.84,0-.11,.04-.21,.11-.32,.07-.1,.18-.15,.33-.15s.42,.19,.82,.58c.64,.6,1.62,.91,2.93,.93l11.87-1.32,.6-.14c.51-.46,.79-.69,.85-.7,.06,0,.16-.01,.33-.01s.4,.09,.71,.27l.27,.16c1.22,.73,1.85,1.22,1.86,1.45,0,.15-.07,.29-.22,.44-.13,.26-.53,.63-1.21,1.12l-8.11,7.07c2.08,1.08,3.38,2.04,3.89,2.88,.22,.35,.33,.75,.33,1.21,0,1.11-.37,1.67-1.12,1.67-.31,0-.62-.1-.92-.3-.3-.2-.53-.47-.7-.79-.73-1.63-1.94-2.95-3.62-3.97-1.39-.86-2.76-1.53-4.11-2-.4-.22-.61-.43-.63-.63Z"/><path class="cls-1" d="M211.81,131.34c-.51-.07-.77-.21-.77-.42s.42-.32,1.25-.32,1.62,.22,2.37,.67c.75,.45,1.12,.8,1.12,1.06,0,.18-.18,.4-.53,.66-.36,.26-.54,.55-.56,.88-.07,.69-.11,2.17-.11,4.44,1.7,.18,3.43,.59,5.21,1.23,1.77,.64,3.12,1.32,4.06,2.03,.4,.31,.6,.9,.6,1.78s-.35,1.32-1.04,1.32c-.51-.02-.93-.23-1.26-.63-1.41-1.68-2.56-2.78-3.45-3.3-.9-.52-2.27-.98-4.11-1.38,.02,6.12,.11,9.46,.27,10.03,.16,.57,.25,1.01,.25,1.32,0,.69-.22,1.21-.66,1.56-.16,.13-.37,.19-.6,.19s-.5-.17-.79-.52c-.48-.51-.71-1.3-.71-2.36,0-.33,.06-.87,.19-1.62,.13-.75,.19-3.11,.19-7.08s-.07-6.79-.22-8.45c-.06-.66-.28-1.01-.69-1.07Z"/><path class="cls-1" d="M56.49,184.01c-.18,.02-.35,.03-.49,.03-.58,0-.88-.16-.88-.47,0-.24,.35-.45,1.04-.63,2.92-.84,5.1-2.21,6.52-4.11,1.22-1.64,1.84-3.83,1.84-6.55,0-1.9-.49-3.32-1.48-4.27-1.46-1.44-3.09-2.16-4.88-2.16h-.33c-.33,0-.62,.03-.88,.08-.84,5.04-1.67,8.44-2.49,10.19-.82,1.75-1.63,2.97-2.41,3.66-.79,.69-1.41,1.03-1.86,1.03h-.3c-1.04,0-1.87-.75-2.49-2.25-.88-1.22-1.31-2.21-1.31-2.96v-.03c0-1.66,.44-3.31,1.33-4.95,.89-1.63,2.22-3.08,4-4.33,1.78-1.25,3.74-1.89,5.88-1.9,2.9,0,5.2,.82,6.88,2.47,1.66,1.97,2.49,3.97,2.49,6,0,3.05-1.02,5.59-3.06,7.63-2.04,2.04-4.41,3.21-7.11,3.52Zm-1.12-17.95c-1.39,.27-2.65,.91-3.78,1.92-1.13,1-1.96,2.03-2.49,3.08-.53,1.05-.79,2.43-.79,4.15s.56,2.77,1.67,3.15h.16c.62,0,1.23-.41,1.84-1.23,1.48-1.94,2.61-5.63,3.4-11.07Z"/><path class="cls-1" d="M90.63,181.6c0,.84-.4,1.26-1.21,1.26h-.05c-.24,0-.84-.41-1.81-1.23-.4-.73-1.49-1.32-3.26-1.75-.02,.46-.03,.9-.03,1.34-1.17,2.23-2.64,3.34-4.41,3.34-.13,0-.26,0-.38-.03-2.47-.2-4.08-1.39-4.85-3.56-.07-.18-.11-.37-.11-.55,0-.69,.47-1.35,1.41-1.96,.94-.61,1.94-.92,3-.92s2.09,.08,3.1,.25c-.16-1.32-.25-2.7-.25-4.15s.05-2.78,.14-3.97c.09-1.2,.14-2.13,.14-2.81s-.06-1.53-.19-2.55c-.09-.58-.58-1-1.48-1.23-.48-.13-.7-.28-.69-.47v-.03c0-.27,.2-.42,.6-.44,.93,0,1.85,.18,2.77,.53,.91,.36,1.4,.65,1.47,.88,.06,.23,.1,.4,.1,.51s-.06,.26-.19,.44c-.13,.18-.21,.43-.23,.74-.03,.31-.08,.84-.16,1.58-.08,.74-.14,1.3-.18,1.69,1.95-.16,3.57-.7,4.85-1.62,.26-.18,.49-.28,.71-.3,.64,0,1.3,.21,1.97,.63,.37,.26,.55,.5,.55,.73s-.15,.46-.44,.69c-.29,.23-2.43,.58-6.41,1.05l-1.32,.11c-.04,.49-.05,1.39-.05,2.7s.13,3.2,.38,5.69c3.14,.62,5.3,1.56,6.47,2.82l.05,.6Zm-11.81-2.41c-1.57,.16-2.36,.7-2.36,1.62,0,.13,.02,.26,.05,.38,.22,1.13,1.25,1.7,3.1,1.7s2.78-.79,2.79-2.38c-.07-.38-.14-.77-.19-1.15-.69-.11-1.57-.16-2.63-.16h-.77Z"/><path class="cls-1" d="M105.32,171.38c3.03-1.42,5.02-2.14,5.96-2.14s1.78,.05,2.51,.16c1.63,.55,2.71,1.87,3.26,3.97,.04,.35,.05,.7,.05,1.07,0,4.84-3.33,8.54-9.97,11.1-.24,.09-.48,.13-.74,.12-.26,0-.38-.1-.38-.26,0-.4,.22-.69,.66-.85,5.5-2.69,8.25-5.96,8.25-9.84,0-.37-.03-.76-.08-1.18-.22-1.77-.81-2.72-1.78-2.85-.35-.04-.63-.05-.84-.05h-.48c-1.33,0-2.28,.2-2.84,.59-.56,.39-1.63,1.13-3.22,2.21-.64,.44-1.24,.66-1.81,.66-.84,0-1.26-.53-1.26-1.59,0-.62,.08-1.02,.25-1.21,.91-1.41,1.63-2.11,2.14-2.11,.18,0,.27,.1,.27,.3-.48,.22-.71,.64-.71,1.26v.16c.18,.26,.44,.41,.77,.47Zm8.52-6c-.05,.02-.16,.03-.33,.03s-.55-.06-1.15-.19c-.88,.07-1.75,.35-2.63,.82-.88,.48-1.35,.71-1.43,.71-.24,0-.37-.08-.41-.25,.04-.13,.14-.26,.3-.41,.51-.47,1.26-.94,2.25-1.4-1.55-.4-3.19-1.27-4.91-2.6-.16-.18-.24-.34-.23-.48s.04-.21,.1-.23c.24-.09,.47-.05,.71,.11,1.72,1,3.81,1.51,6.27,1.51,.15,0,.33,0,.55,.03,.22,.02,.55,.17,1,.45,.45,.28,.67,.63,.67,1.04s-.26,.7-.77,.86Z"/><path class="cls-1" d="M135.6,167.98l-1.97,.77c-.84,1.28-2.04,3.97-3.59,8.08-.62,1.66-1.21,2.49-1.78,2.49-.31,0-.61-.28-.89-.85-.28-.57-.42-1.09-.42-1.56s.06-.8,.19-.99c.88-1.26,1.69-2.48,2.44-3.67,.75-1.19,1.46-2.25,2.14-3.18l-.14-.03c-.13,0-.72,.11-1.78,.34-1.06,.23-1.73,.34-2.01,.34s-.53-.15-.75-.44c-.68-.91-1.01-1.73-1.01-2.44,0-.24,.03-.36,.08-.36,.18,0,.36,.12,.52,.36,.27,.48,.94,.76,2,.85h.21c.12,0,.71-.03,1.77-.1,1.06-.06,1.61-.11,1.64-.15,.46-.84,.69-1.9,.69-3.18,0-.55-.08-.93-.23-1.14-.16-.21-.41-.42-.75-.64-.35-.22-.52-.4-.52-.55,0-.26,.16-.38,.48-.38s.73,.1,1.22,.3c1.41,.55,2.18,1.14,2.33,1.78,.02,.05,.03,.16,.03,.33s-.06,.45-.19,.85c-.13,.4-.19,.61-.19,.63-.4,.53-.73,1.11-.99,1.73,.58-.02,1.05-.2,1.4-.55,.35-.35,.6-.61,.75-.78,.15-.17,.31-.32,.48-.45,.16-.13,.39-.19,.67-.19s.68,.06,1.19,.18c.51,.12,.89,.4,1.12,.84,.07,.15,.11,.27,.11,.38,0,.35-.28,.58-.85,.69-.31,.05-.87,.17-1.69,.36-.81,.18-1.37,.29-1.69,.33Zm5.75,3.29c.26,0,.37,.13,.36,.38,0,.15-.09,.47-.26,.96-.17,.49-.26,1.25-.26,2.26s.08,2.3,.25,3.85c1.99,.58,3.25,1.13,3.78,1.63,.53,.5,.79,.95,.79,1.33,0,.8-.34,1.21-1.01,1.21h-.11c-.38,0-.87-.32-1.47-.97-.59-.65-1.23-1.08-1.9-1.3-.2,1.52-.5,2.55-.9,3.1-.62,.82-2.03,1.23-4.22,1.23-1.28,0-2.37-.3-3.26-.9-.9-.6-1.34-1.33-1.34-2.19v-.03c0-1.15,.41-2.08,1.22-2.8s1.84-1.07,3.08-1.07,2.35,.07,3.32,.22c-.04-1.15-.05-1.75-.05-1.81v-.03c0-.46,.08-1.23,.23-2.32,.15-1.09,.58-1.96,1.27-2.62l.33-.11s.09-.03,.16-.03Zm-4.58,11.98c1.77,0,2.66-.65,2.66-1.95v-.52c0-.31-.03-.61-.08-.9-.57-.27-1.44-.41-2.63-.41-1.57,0-2.61,.44-3.12,1.32-.11,.18-.16,.5-.16,.96s.17,.77,.52,.93c.71,.38,1.6,.58,2.66,.58h.16Zm6.7-13.67c.54,0,1.07,.04,1.6,.11-.18-.47-.34-.84-.47-1.1-.38-.9-1.35-1.74-2.9-2.52-.37-.18-.55-.42-.55-.7s.16-.42,.49-.42c.2,0,.41,.05,.63,.16,1.1,.49,2.16,1.15,3.21,1.97,1.5,1.17,2.25,2.2,2.25,3.1,0,.11-.01,.22-.04,.33-.03,.11-.09,.39-.18,.84-.09,.45-.31,.67-.66,.67-.26,0-.61-.26-1.07-.77-.2-.2-.74-.42-1.62-.64-.88-.23-1.35-.37-1.41-.44-.06-.06-.1-.12-.1-.18,0-.27,.27-.41,.81-.41Z"/><path class="cls-1" d="M170.13,167.21h1.37l1.84-1.78c1.55,1.13,2.4,1.85,2.55,2.14,0,.18-.2,.27-.6,.27h-5.15v14.91c.11,1.46,.16,2.25,.16,2.36-.05,.37-.7,.55-1.95,.55-.31,0-.49-.21-.55-.63,.04-.58,.07-1.18,.11-1.78h-9.43c.09,1.15,.14,1.77,.14,1.86-.06,.37-.7,.55-1.95,.55-.31,0-.49-.21-.55-.63l.14-2.27v-14.91h-2.47c-.53,.04-.96,.11-1.3,.23-.34,.12-.53,.18-.56,.18l-1.53-1.12v-.11s.04-.07,.11-.11c1.04,.16,2.3,.26,3.78,.27h1.97v-4.66l-.14-1.21c-.02-.13,.05-.19,.22-.19s.69,.06,1.59,.19c.89,.13,1.34,.27,1.34,.41l-.82,.88v4.58c3.16,0,6.32,0,9.48,.03v-4.69l-.14-1.21c-.02-.13,.05-.19,.22-.19s.69,.06,1.59,.19c.9,.13,1.34,.27,1.34,.41l-.82,.88v4.6Zm-2.19,.63h-9.48v6.55h9.48v-6.55Zm0,7.21h-9.48v7.54h9.48v-7.54Z"/><path class="cls-1" d="M188.4,163.32c.37-.64,.87-1.1,1.52-1.4,.65-.29,1.24-.44,1.78-.44s.82,.12,.84,.36c0,.2-.26,.35-.79,.44-.58,.16-.88,.75-.88,1.75,0,.48,.06,.93,.19,1.37l1.01,1.78c2.14-.51,3.21-1.11,3.21-1.81,0-.16-.1-.39-.29-.69-.19-.29-.29-.48-.29-.58-.02-.26,.11-.38,.4-.38s.64,.11,1.08,.33c1.41,.71,2.11,1.41,2.11,2.08,0,.62-.64,1.11-1.9,1.45-1.27,.35-2.46,.66-3.58,.93l1.23,2.19c.6,1.08,1.41,2.82,2.41,5.23,.13,.31,.19,.78,.19,1.4s-.24,1.01-.71,1.18c-.05,.02-.11,.03-.16,.03-.57,0-1.14-.37-1.73-1.1-1.17-.91-2.71-1.37-4.63-1.37-4.04,0-6.06,.95-6.06,2.85,0,2.14,2.19,3.37,6.58,3.7,.75,.05,1.16,.08,1.23,.08,.71-.09,1.21-.2,1.49-.32,.28-.12,.54-.18,.77-.18s.42,.04,.59,.11c.16,.07,.5,.37,1,.9,.5,.53,.75,.8,.75,.82,0,.16-.16,.33-.49,.49-.33,.16-.93,.25-1.79,.25s-1.87-.05-3-.16c-6.12-.6-9.18-2.69-9.18-6.25,0-2.47,2.63-3.71,7.89-3.73,1.74,0,3.37,.4,4.9,1.21-.62-2.52-1.53-4.87-2.71-7.04-2.74,.6-4.81,.9-6.21,.9s-2.35-.18-2.86-.55c-1.04-.77-1.58-1.49-1.62-2.16-.02-.22,.02-.35,.11-.38,.18,0,.33,.12,.44,.36,.49,.8,1.16,1.22,2,1.23h1.32c.58,0,.96-.03,1.12-.08,1.92-.18,3.55-.4,4.91-.66-.49-.77-1-1.48-1.52-2.14s-.78-1.13-.78-1.41,.04-.49,.11-.62Z"/><path class="cls-1" d="M208.6,172.72c-.55-.07-1.05-.37-1.51-.88-.44-.66-.66-1.2-.66-1.62s.07-.63,.21-.63,.23,.02,.29,.07c.05,.05,.18,.27,.37,.66,.19,.39,.5,.59,.92,.59,.22,0,.64-.09,1.26-.27l2.71-.82c.8-1.41,1.21-3.08,1.21-5.01,0-.95-.27-1.63-.79-2.06-.33-.27-.5-.43-.52-.47-.02-.05-.03-.12-.03-.19,0-.18,.13-.27,.38-.27s.59,.1,1.01,.3c1.83,.79,2.74,1.44,2.74,1.97,0,.27-.11,.53-.32,.75-.21,.23-.35,.39-.41,.49-.06,.1-.11,.25-.15,.45l-1.04,3.32c1.3-.33,2.28-.49,2.96-.49s1.14,.16,1.4,.47c.84,1.17,1.26,2.37,1.26,3.59,0,.24,0,.5-.03,.79-.33,4.42-.95,7.43-1.86,9.02-.62,1.06-1.14,1.74-1.56,2.06-.42,.29-.8,.44-1.15,.44-.66,0-.99-.19-.99-.58l.05-.69c0-.37-.6-.94-1.81-1.73l-1.51-.99c-.37-.24-.55-.42-.55-.55s.13-.19,.38-.19,.88,.26,1.88,.77c1,.51,1.77,.77,2.32,.77,.66,0,1.29-1.06,1.9-3.18,.61-2.12,.92-4.07,.92-5.85s-.46-2.67-1.37-2.67l-.44,.03c-.75,0-1.53,.16-2.36,.49-.4,.97-1,2.3-1.78,3.99-.79,1.69-1.64,3.82-2.58,6.4l-.27,.47c-.57,.84-1.09,1.26-1.56,1.26-.16,0-.3-.05-.41-.14-.37-.26-.55-.7-.55-1.33s.09-1.05,.27-1.25c.47-.57,.98-1.28,1.51-2.14l1.15-2.19,2.17-4.3c-1.79,.9-2.81,1.34-3.07,1.34Zm11.34-6.25c0-.46,.14-.69,.41-.69,.18,0,.4,.08,.66,.25,1.59,.97,3,2.23,4.25,3.8,1.24,1.56,2.1,2.94,2.58,4.14,.48,1.2,.71,2.06,.71,2.58s-.17,1.01-.52,1.47c-.73,.9-1.4,1.34-2,1.34h-.03c-.44,0-.66-.25-.66-.74,0-.16,.03-.36,.08-.58l-.08-.3c-.09-.53-.56-.8-1.4-.82l-2.25,.25c-.31,0-.47-.11-.47-.33,0-.16,.17-.27,.52-.33,1.48-.27,2.52-.49,3.11-.64,.59-.16,.89-.36,.89-.62,0-1.04-.54-2.42-1.62-4.14-1.08-1.72-2.42-3.15-4.03-4.3-.11-.05-.16-.16-.16-.33Zm6.02,.5c-.14,.04-.32,.02-.54-.05s-.38-.21-.49-.41l-.45-.73c-.4-.63-.8-1.08-1.2-1.35-.4-.27-.63-.45-.67-.53v-.03c-.07-.25,0-.4,.24-.46,.07-.02,.16-.01,.26,.01,2.2,.64,3.4,1.35,3.6,2.11,.21,.77-.04,1.25-.75,1.44Zm-.87-5.89c2.2,.64,3.4,1.35,3.6,2.11,.21,.77-.05,1.25-.78,1.44-.12,.03-.29,.01-.51-.06-.22-.07-.39-.21-.52-.4l-.45-.73c-.4-.63-.8-1.08-1.2-1.35s-.62-.45-.64-.54c-.07-.25,.02-.4,.24-.46,.07-.02,.15-.02,.25-.01Z"/><path class="cls-1" d="M39.87,205.56c0,1.11-.34,1.67-1.01,1.67-.53,0-.94-.26-1.23-.79-.55-1.04-.98-1.77-1.3-2.19-.32-.42-1.17-.83-2.56-1.23-.18-.02-.31-.07-.4-.16-.08-.09-.12-.16-.12-.22v-.11c0-.26,.18-.38,.55-.38h.16l.33,.03c1.28,.11,2.7,.64,4.27,1.59,.42,.26,.74,.51,.97,.75,.23,.25,.34,.6,.34,1.06Zm-4.33,7.21c.2-.02,.32,.02,.36,.11,.04,.09,.2,.39,.49,.9,.29,.51,.65,.77,1.07,.77,.79,0,1.32-.09,1.62-.27,6.72-3.74,11.21-8.46,13.45-14.14,.2-.49,.38-.74,.55-.74,.31,0,.47,.17,.49,.52,0,.22-.03,.42-.08,.6-2.12,6.05-6.52,11.28-13.21,15.7-.26,.07-.6,.27-1.03,.59s-.74,.48-.95,.48c0,.18-.05,.27-.16,.27-.27,0-.85-.48-1.74-1.45-.89-.97-1.33-1.87-1.33-2.71,0-.37,.15-.58,.47-.63Zm7.34-12.41c0,1.11-.34,1.67-1.01,1.67-.53,0-.93-.27-1.21-.82-.55-1.04-.98-1.77-1.3-2.19-.32-.42-1.18-.83-2.59-1.23-.33-.04-.49-.2-.49-.49,.02-.26,.2-.38,.55-.38h.16l.3,.03c1.32,.13,2.75,.66,4.3,1.59,.42,.26,.74,.51,.96,.77,.22,.26,.33,.61,.33,1.07Zm8.03-1.67c0,.64-.31,.96-.92,.96s-1-.24-1.16-.71l-.25-.82c-.18-.62-.52-1.2-1.01-1.73-.49-.53-.74-.83-.74-.9v-.05c0-.26,.22-.38,.66-.38,.07,0,.16,.04,.27,.11,1.94,1.17,2.98,2.21,3.12,3.12,.02,.15,.03,.28,.03,.41Zm3.48-.85c0,.73-.37,1.1-1.12,1.1-.51,0-.85-.24-1.01-.71l-.25-.82c-.16-.57-.49-1.13-.99-1.69-.49-.56-.74-.87-.74-.95,0-.26,.16-.38,.49-.38,.07,0,.16,.02,.27,.05,2.23,1.22,3.34,2.36,3.34,3.4Z"/><path class="cls-1" d="M79.25,216.08c0,.33-.26,.49-.77,.49h-.16l-.58-.03c-1.77-.73-4.03-1.1-6.77-1.1-.35,0-.7,0-1.07,.03l-1.07,.03c-1.19,.18-2.07,.36-2.64,.53-.58,.17-1.64,.53-3.19,1.06-.38,0-.84-.14-1.37-.41-.97-.51-1.65-1.21-2.06-2.08-.07-.16-.11-.3-.11-.41,0-.29,.14-.44,.41-.44,.15,0,.33,.16,.56,.47,.23,.31,.7,.49,1.41,.55,2.78-.22,5.56-.45,8.36-.69l-.03-.08c1.04-.8,1.83-3.51,2.36-8.11-.42-.07-.91-.11-1.48-.11s-1.36,.1-2.37,.3c-1.01,.2-1.73,.36-2.15,.48-.42,.12-.84,.25-1.26,.4-.42,.15-.69,.22-.82,.22-.44,0-.9-.28-1.4-.85-.49-.57-.89-1.21-1.18-1.95-.05-.15-.08-.26-.08-.33,0-.27,.15-.42,.44-.44,.05,0,.17,.1,.36,.3,.51,.57,1.63,.85,3.37,.85,.6,0,1.57-.1,2.9-.3,1.33-.2,2.46-.37,3.37-.49,.51-.66,.91-.99,1.19-.99s.75,.27,1.41,.82,.99,.92,.99,1.12-.2,.52-.59,.96c-.39,.44-.92,1.7-1.58,3.78l-.9,2.88v1.23c.57,.05,1.08,.08,1.53,.08s.95-.05,1.47-.14c.52-.09,.84-.14,.95-.14,.29,0,.79,.31,1.49,.95s1.06,1.15,1.06,1.55Z"/><path class="cls-1" d="M87.96,198.54c.46,0,1.28,.48,2.47,1.42,3.43-.11,7.27-.48,11.51-1.12l1.23-.99c.11-.09,.21-.14,.3-.14s.21,.04,.36,.11c1.37,.99,2.06,1.69,2.06,2.11,0,.15-.11,.36-.34,.63-.23,.27-.37,.63-.42,1.07-1.11,8.57-5.27,13.76-12.47,15.56-.15,.04-.27,.05-.36,.05-.33,0-.49-.19-.49-.58,0-.22,.32-.47,.96-.74,6.54-2.94,9.81-7.73,9.81-14.36,0-.38,0-.79-.03-1.21-4.6,.13-8.65,.46-12.14,.99v1.48c.15,.93,.22,1.42,.22,1.45,.24,.99,.36,1.56,.36,1.73,0,.79-.19,1.37-.58,1.75-.15,.15-.27,.21-.36,.19-1,0-1.51-.62-1.51-1.86,.09-.82,.14-1.92,.14-3.29l-.25-1.42c-.18-.95-.32-1.48-.4-1.6-.08-.12-.24-.25-.47-.4-.23-.15-.34-.27-.34-.38s.05-.21,.16-.32c.11-.1,.3-.15,.58-.15Z"/><path class="cls-1" d="M121.36,216.35c-.91,0-1.38-.23-1.4-.69,0-.11,.1-.19,.3-.25,.33,0,1.2-.14,2.6-.41,4.93-.88,7.4-2.82,7.4-5.84,0-2.23-1.02-3.34-3.07-3.34-2.21,0-4.52,.62-6.93,1.86-.38,.2-.78,.45-1.19,.75-.41,.3-.79,.45-1.12,.45s-.87-.32-1.6-.96c-.24-.22-.58-.61-1.04-1.18-.46-.57-.69-1-.69-1.3s.11-.45,.33-.45c.16,0,.29,.07,.38,.22l.25,.3c.47,.64,1.1,.96,1.86,.96,.35,0,1.29-.23,2.82-.69l3.73-1.12c.99-.29,1.9-.45,2.74-.47,3.74,.02,5.62,1.54,5.62,4.58v.52c-.02,3.84-3.27,6.16-9.76,6.96-.48,.05-.89,.08-1.23,.08Z"/><path class="cls-1" d="M155.23,214.11c.95,.02,1.82,.29,2.6,.82,.42,.31,.63,.61,.63,.9,0,.07-.02,.16-.05,.25-.18,.31-1.06,.57-2.63,.78-1.57,.21-2.62,.31-3.15,.31h-.88c-4.49,0-7.49-.85-8.99-2.55-.57-.64-.85-1.58-.85-2.82,0-1.44,1.63-3.37,4.88-5.78-.35-.37-.73-1.5-1.15-3.4-.42-1.9-.69-3.16-.79-3.78-.11-.62-.26-1.08-.44-1.37-.18-.29-.45-.58-.79-.85-.35-.27-.52-.49-.52-.66,0-.26,.19-.38,.56-.38s1.08,.16,2.11,.49c1.03,.33,1.61,.63,1.73,.89,.12,.26,.18,.49,.18,.67s-.05,.39-.14,.62c-.09,.23-.14,.93-.14,2.1,0,2.79,.28,4.44,.85,4.93,3.76-1.68,5.86-2.69,6.3-3.04,.42-.37,.63-.63,.63-.79s-.21-.36-.62-.58-.64-.36-.7-.42c-.06-.06-.08-.14-.08-.22s.06-.17,.16-.27c.11-.1,.26-.15,.47-.15s.53,.12,.99,.36c1,.49,1.85,1.29,2.52,2.38,.2,.31,.3,.57,.3,.77,0,.38-.4,.6-1.21,.66l-.66,.11c-4.93,1.26-8.31,2.65-10.14,4.17-1.81,1.52-2.71,2.66-2.71,3.44s.2,1.37,.6,1.77c.89,1.02,3.07,1.53,6.52,1.53,1.48,0,2.74-.2,3.78-.6,.44-.18,.71-.27,.82-.27Z"/><path class="cls-1" d="M166.63,198.57l-.14-1.29c-.05-.29-.03-.41,.08-.36l.93,.6,1.86,.88h6.77v-2.9l-.14-1.23c-.02-.13,.05-.19,.19-.19,1.95,.18,2.94,.39,2.96,.63,0,.09-.14,.21-.41,.37-.27,.16-.41,.32-.41,.51v2.82h5.73l1.59-1.75c1.57,1.11,2.36,1.8,2.36,2.07s-.19,.4-.58,.4h-18.44c-.09,.05-.14,.28-.14,.69v4.41c0,8.71-1.61,13.58-4.82,14.61-.27,0-.41-.15-.41-.44,0-.13,.1-.34,.3-.63,1.81-2.5,2.71-6.27,2.71-11.29v-7.89Zm19.57,19.95h-.22c-.09,0-.31-.46-.66-1.37-.35-.91-.7-1.77-1.07-2.58-5.02,1.22-9.29,2.07-12.8,2.55-.13,.82-.35,1.23-.66,1.23-.37-.04-.9-1.17-1.62-3.4,.9,0,1.92-.03,3.07-.08,2.28-3.54,3.86-8.17,4.74-13.87,2.52,.42,3.79,.78,3.81,1.07l-1.75,.69c-1.24,4.93-3.06,8.93-5.45,12,2.79-.18,6.22-.54,10.28-1.07-1.06-2.19-2.12-3.92-3.18-5.18-.11-.13-.17-.2-.19-.22-.11-.22,.03-.34,.41-.36,.22-.02,.45,.1,.69,.36,3.16,3,5.11,5.47,5.84,7.43,.05,.15,.09,.29,.11,.44v.33c0,1.33-.45,2.01-1.34,2.03Z"/><path class="cls-1" d="M195.24,205.72c-.55-.07-1.05-.37-1.51-.88-.44-.66-.66-1.2-.66-1.62s.07-.63,.21-.63,.23,.02,.29,.07c.05,.05,.18,.27,.37,.66,.19,.39,.5,.59,.92,.59,.22,0,.64-.09,1.26-.27l2.71-.82c.8-1.41,1.21-3.08,1.21-5.01,0-.95-.27-1.63-.79-2.06-.33-.27-.5-.43-.52-.47-.02-.05-.03-.12-.03-.19,0-.18,.13-.27,.38-.27s.59,.1,1.01,.3c1.83,.79,2.74,1.44,2.74,1.97,0,.27-.11,.53-.32,.75-.21,.23-.35,.39-.41,.49-.06,.1-.11,.25-.15,.45l-1.04,3.32c1.3-.33,2.28-.49,2.96-.49s1.14,.16,1.4,.47c.84,1.17,1.26,2.37,1.26,3.59,0,.24,0,.5-.03,.79-.33,4.42-.95,7.43-1.86,9.02-.62,1.06-1.14,1.74-1.56,2.06-.42,.29-.8,.44-1.15,.44-.66,0-.99-.19-.99-.58l.05-.69c0-.37-.6-.94-1.81-1.73l-1.51-.99c-.37-.24-.55-.42-.55-.55s.13-.19,.38-.19,.88,.26,1.88,.77c1,.51,1.77,.77,2.32,.77,.66,0,1.29-1.06,1.9-3.18,.61-2.12,.92-4.07,.92-5.85s-.46-2.67-1.37-2.67l-.44,.03c-.75,0-1.53,.16-2.36,.49-.4,.97-1,2.3-1.78,3.99-.79,1.69-1.64,3.82-2.58,6.4l-.27,.47c-.57,.84-1.09,1.26-1.56,1.26-.16,0-.3-.05-.41-.14-.37-.26-.55-.7-.55-1.33s.09-1.05,.27-1.25c.47-.57,.98-1.28,1.51-2.14l1.15-2.19,2.17-4.3c-1.79,.9-2.81,1.34-3.07,1.34Zm11.34-6.25c0-.46,.14-.69,.41-.69,.18,0,.4,.08,.66,.25,1.59,.97,3,2.23,4.25,3.8,1.24,1.56,2.1,2.94,2.58,4.14,.48,1.2,.71,2.06,.71,2.58s-.17,1.01-.52,1.47c-.73,.9-1.4,1.34-2,1.34h-.03c-.44,0-.66-.25-.66-.74,0-.16,.03-.36,.08-.58l-.08-.3c-.09-.53-.56-.8-1.4-.82l-2.25,.25c-.31,0-.47-.11-.47-.33,0-.16,.17-.27,.52-.33,1.48-.27,2.52-.49,3.11-.64,.59-.16,.89-.36,.89-.62,0-1.04-.54-2.42-1.62-4.14-1.08-1.72-2.42-3.15-4.03-4.3-.11-.05-.16-.16-.16-.33Zm6.02,.5c-.14,.04-.32,.02-.54-.05s-.38-.21-.49-.41l-.45-.73c-.4-.63-.8-1.08-1.2-1.35-.4-.27-.63-.45-.67-.53v-.03c-.07-.25,0-.4,.24-.46,.07-.02,.16-.01,.26,.01,2.2,.64,3.4,1.35,3.6,2.11,.21,.77-.04,1.25-.75,1.44Zm-.87-5.89c2.2,.64,3.4,1.35,3.6,2.11,.21,.77-.05,1.25-.78,1.44-.12,.03-.29,.01-.51-.06-.22-.07-.39-.21-.52-.4l-.45-.73c-.4-.63-.8-1.08-1.2-1.35s-.62-.45-.64-.54c-.07-.25,.02-.4,.24-.46,.07-.02,.15-.02,.25-.01Z"/><path class="cls-1" d="M226.56,207.09c2.59-1.52,4.73-2.27,6.4-2.27s2.91,.23,3.71,.69c1.92,1.08,2.88,2.69,2.88,4.84s-.76,3.94-2.27,5.37c-1.52,1.43-3.75,2.2-6.69,2.29h-.05c-1.44-.05-2.45-.27-3.01-.66-1.08-.71-1.62-1.41-1.62-2.08,0-1.22,.37-2.13,1.12-2.71,1.08-.82,2.06-1.23,2.96-1.23,.24,0,.47,.03,.69,.08h.08c.93,0,1.75,.35,2.45,1.06,.7,.7,1.06,1.43,1.06,2.18,0,.33-.02,.65-.06,.96,.73-.35,1.19-.59,1.37-.74,1.33-.99,2-2.64,2-4.96s-1.6-3.44-4.8-3.64h-.03c-2.01,0-4.61,1.07-7.81,3.21-.06,.04-.24,.27-.55,.71l-1.32,1.51c-.57,.66-1.07,.99-1.51,.99s-.66-.46-.66-1.38,.23-1.54,.69-1.85c2.69-2.03,5.68-4.93,8.99-8.71,.66-.79,1.32-1.75,1.97-2.9l-5.21,1.84c-.42,.15-.69,.27-.82,.38-.13,.11-.27,.16-.44,.16-.64,0-1.21-.33-1.71-1-.5-.67-.75-1.37-.75-2.12,0-.35,.07-.52,.21-.52s.43,.24,.88,.71c.45,.48,.91,.72,1.38,.74l1.04,.03h.49c.22,0,2.09-.51,5.62-1.53,.2-.37,.37-.6,.52-.71,1.55,.99,2.33,1.62,2.33,1.89s-.23,.48-.69,.62c-.46,.14-.77,.28-.93,.42-2.36,2.28-5,5.08-7.92,8.39Zm6.06,9.07c.09-.73,.14-1.28,.14-1.64s-.19-.74-.58-1.14c-.38-.39-.91-.59-1.59-.59-.2,0-.6,.05-1.21,.16-1.26,.22-1.89,.78-1.89,1.67,0,.11,0,.23,.03,.36,.13,.97,1.13,1.45,3.01,1.45,.62,0,1.32-.09,2.08-.27Z"/></g></g></g></svg>