<?xml version="1.0" encoding="UTF-8"?><svg id="_レイヤー_2" xmlns="http://www.w3.org/2000/svg" width="242" height="243" xmlns:xlink="http://www.w3.org/1999/xlink" viewBox="0 0 242 243"><defs><style>.cls-1{fill:#5e4a3e;}.cls-2{fill:#fff;filter:url(#drop-shadow-1);}</style><filter id="drop-shadow-1" filterUnits="userSpaceOnUse"><feOffset dx="7" dy="7"/><feGaussianBlur result="blur" stdDeviation="5"/><feFlood flood-color="#000" flood-opacity=".1"/><feComposite in2="blur" operator="in"/><feComposite in="SourceGraphic"/></filter></defs><g id="_文字"><g><path class="cls-2" d="M190.39,187.46c18.04-18.96,29.11-44.61,29.11-72.85,0-58.39-47.33-105.72-105.72-105.72S8.06,56.23,8.06,114.62s47.33,105.72,105.72,105.72c22.09,0,42.6-6.78,59.57-18.37l31.92,7.29s-6.89-10.22-14.88-21.79Z"/><g><path class="cls-1" d="M27.95,101.4l-.14-1.29c0-.07,.03-.11,.08-.11s.34,.11,.85,.33c.51,.22,1.11,.51,1.81,.88h6.8v-2.88l-.16-1.23c-.02-.13,.05-.19,.22-.19,1.97,.18,2.96,.39,2.96,.63,0,.09-.15,.21-.44,.36-.26,.15-.38,.32-.38,.52v2.8h5.32l1.26-1.64c1.75,1.11,2.63,1.91,2.63,2.38,0,.11-.18,.16-.55,.16l-3.23,2.93c-.11,.09-.22,.14-.34,.14s-.24-.05-.37-.14l.82-2.93h-5.54v6h3.34l1.42-1.78c1.7,.93,2.55,1.62,2.55,2.06,0,.04-.18,.21-.55,.52-.37,.31-.57,.55-.6,.71-1.15,2.5-2.83,4.69-5.04,6.55,2.34,1.33,5.18,2.35,8.52,3.04-.64,.79-1.32,1.61-2.03,2.47-3.18-1.19-5.86-2.62-8.06-4.3-2.5,1.75-5.56,3.17-9.18,4.25-.15,.05-.27,.08-.36,.08-.31,0-.47-.18-.47-.55,0-.13,.09-.22,.27-.27,3.42-1.19,6.25-2.69,8.5-4.52-2.43-2.16-4.13-4.67-5.1-7.54h-2.69c-.24,6.94-1.94,11.32-5.1,13.13-.31,0-.47-.15-.47-.44,0-.24,.12-.45,.36-.63,1.86-1.61,2.91-5.51,3.15-11.7l-.08-7.78Zm9.4,6.71v-6h-7.29c-.04,.07-.05,.12-.05,.14l.08,3.32c.02,.73,.03,1.25,.03,1.56v.99h7.23Zm1.84,7.1c1.79-1.74,3.12-3.74,4-6-.04-.15-.09-.28-.16-.41l-9.18,.03c1.11,2.56,2.9,4.69,5.34,6.38Z"/><path class="cls-1" d="M56.59,117.24c.26,.48,.38,.93,.38,1.37,0,1.15-.35,1.76-1.04,1.84h-.03c-.29-.02-.66-.32-1.1-.9s-.7-1.1-.79-1.53c-.31-1.37-.47-2.87-.47-4.49s.03-2.88,.1-3.77c.06-.89,.31-2.11,.73-3.66,.42-1.55,.63-2.57,.63-3.04s-.06-.84-.19-1.11c-.13-.26-.34-.62-.63-1.06-.29-.44-.44-.7-.44-.79s.03-.14,.08-.14c.35,0,.83,.18,1.45,.55,1.22,.75,1.84,1.58,1.84,2.49l-1.01,3.12c-.55,1.7-.82,3.45-.82,5.26v.69c0,.35,.16,1.26,.47,2.74l.85-1.32c1-1.59,1.63-2.5,1.86-2.74,.24-.24,.4-.36,.49-.36,.2,0,.3,.11,.3,.33,0,.11-.09,.33-.27,.66l-.58,.99c-1.19,2.14-1.78,3.66-1.78,4.58,0,.11,0,.21-.03,.3Zm13.92-12.69c.69-.13,1.27-.34,1.73-.64,.46-.3,.72-.45,.79-.45h.16c.58,0,1.21,.3,1.86,.9,0,.6-.32,.92-.96,.96l-1.48,.33c-.73,.13-1.46,.27-2.19,.41-.04,.88-.05,1.4-.05,1.58s.03,1.42,.08,3.74l.11,3.1c2.06,.55,3.5,1.41,4.3,2.58l.03,.44c0,.69-.48,1.04-1.42,1.04-.57,0-.91-.1-1.04-.3-.29-.49-.5-.85-.63-1.07-.13-.22-.25-.39-.37-.51-.12-.12-.42-.29-.89-.51-.15,1.28-.69,2.31-1.62,3.1-.93,.77-1.98,1.15-3.14,1.15s-2.18-.33-3.06-.99c-.88-.66-1.31-1.58-1.31-2.77,0-.6,.26-1.2,.79-1.78,.79-.82,1.88-1.23,3.29-1.23h.05c1.06,0,2.06,.09,2.99,.27,.15-.99,.22-2.06,.22-3.21s-.03-2.28-.08-3.4l-.06-1.04c-1.55,.13-2.7,.28-3.45,.47-.75,.18-1.25,.27-1.51,.27-.95,0-1.62-.35-2-1.05-.38-.7-.58-1.14-.58-1.3,0-.51,.02-.77,.05-.77,.11,0,.18,.03,.22,.08,.33,.68,.97,1.09,1.92,1.23,2.3-.05,4.06-.17,5.26-.36v-.6c0-.82-.07-1.71-.22-2.66-.09-.58-.46-1.08-1.1-1.48-.37-.24-.57-.39-.62-.47-.05-.07-.07-.15-.07-.22,0-.26,.18-.35,.55-.29,.37,.06,.88,.19,1.53,.37,1.63,.49,2.44,1.04,2.44,1.64,0,.29-.1,.54-.29,.74-.19,.2-.29,.57-.29,1.1l.03,1.04v.55Zm-5.4,14.22h.11c1.39,0,2.3-.46,2.74-1.37,.26-.55,.38-1,.38-1.37v-.33c-.91-.44-1.94-.66-3.07-.66-.58,0-1.14,.21-1.67,.63-.53,.44-.79,.86-.79,1.27s.22,.82,.66,1.22c.44,.4,.98,.6,1.62,.6h.03Z"/><path class="cls-1" d="M83.96,102.82c0-.22,.12-.33,.36-.33,.66,0,1.48,.29,2.48,.88,1,.58,1.49,1.04,1.49,1.37,0,.15-.1,.37-.3,.66-.2,.29-.31,.48-.33,.58-.88,4.27-2.81,7.91-5.81,10.91-.4,.4-.79,.6-1.15,.6s-.55-.16-.55-.47c0-.18,.23-.54,.69-1.07,2.54-3.12,4.06-6.75,4.58-10.88,.02-.15,.03-.35,.03-.62s-.07-.5-.22-.71c-.15-.21-.3-.34-.47-.4l-.52-.19c-.2-.07-.29-.18-.27-.33Zm17.54,10.93c.27,.62,.41,1.27,.41,1.93s-.28,1-.85,1c-.07,0-.19-.04-.36-.11l-.55-.25c-.64-.33-1.03-1.01-1.18-2.06-.9-3.96-2.86-7.66-5.89-11.1-.35-.38-.52-.69-.52-.9,0-.29,.18-.44,.55-.44,.15,0,.47,.16,.99,.49,2.52,2.14,4.99,5.95,7.4,11.43Z"/><path class="cls-1" d="M112.98,106.66c-.05-1.95-.14-3.27-.25-3.96-.11-.69-.38-1.16-.82-1.41-.22-.13-.33-.26-.33-.38,0-.24,.12-.36,.37-.36s.67,.1,1.27,.3c1.43,.51,2.14,.93,2.14,1.26,0,.18-.18,.46-.55,.82l-.08,1.51c-.05,.53-.08,1.14-.08,1.84v1.26c0,.68,.05,1.26,.15,1.74,.1,.48,.15,.93,.15,1.34s-.13,.87-.4,1.37c-.26,.5-.53,.75-.78,.75s-.49-.08-.71-.25c-.42-.31-.63-.81-.63-1.51,0-.07,.09-.83,.27-2.27l.27-2.06Zm8.58,1.18l-.05-6.88c0-.47-.24-.83-.71-1.07-.22-.11-.33-.23-.33-.36,0-.27,.2-.41,.6-.41,.02,0,.41,.11,1.18,.34,.77,.23,1.47,.6,2.11,1.11,.22,.18,.33,.34,.33,.47s-.04,.23-.11,.32c-.07,.08-.23,.21-.48,.4-.25,.18-.37,.39-.37,.63s0,.42,.03,.55v4.55c0,7.05-3.02,11.61-9.07,13.67-.05-.02-.16-.04-.33-.07-.16-.03-.29-.13-.38-.32-.06-.05-.08-.13-.08-.22,0-.57,.29-.86,.88-.88,4.53-1.94,6.8-5.88,6.8-11.84Z"/><path class="cls-1" d="M136.3,108.85c-.55-.07-1.05-.37-1.51-.88-.44-.66-.66-1.2-.66-1.62s.07-.63,.21-.63,.23,.02,.29,.07c.05,.05,.18,.27,.37,.66,.19,.39,.5,.59,.92,.59,.22,0,.64-.09,1.26-.27l2.71-.82c.8-1.41,1.21-3.08,1.21-5.01,0-.95-.27-1.63-.79-2.06-.33-.27-.5-.43-.52-.47-.02-.05-.03-.12-.03-.19,0-.18,.13-.27,.38-.27s.59,.1,1.01,.3c1.83,.79,2.74,1.44,2.74,1.97,0,.27-.11,.53-.32,.75-.21,.23-.35,.39-.41,.49-.06,.1-.11,.25-.15,.45l-1.04,3.32c1.3-.33,2.28-.49,2.96-.49s1.14,.16,1.4,.47c.84,1.17,1.26,2.37,1.26,3.59,0,.24,0,.5-.03,.79-.33,4.42-.95,7.43-1.86,9.02-.62,1.06-1.14,1.74-1.56,2.06-.42,.29-.8,.44-1.15,.44-.66,0-.99-.19-.99-.58l.05-.69c0-.37-.6-.94-1.81-1.73l-1.51-.99c-.37-.24-.55-.42-.55-.55s.13-.19,.38-.19,.88,.26,1.88,.77c1,.51,1.77,.77,2.32,.77,.66,0,1.29-1.06,1.9-3.18,.61-2.12,.92-4.07,.92-5.85s-.46-2.67-1.37-2.67l-.44,.03c-.75,0-1.53,.16-2.36,.49-.4,.97-1,2.3-1.78,3.99-.79,1.69-1.64,3.82-2.58,6.4l-.27,.47c-.57,.84-1.09,1.26-1.56,1.26-.16,0-.3-.05-.41-.14-.37-.26-.55-.7-.55-1.33s.09-1.05,.27-1.25c.47-.57,.98-1.28,1.51-2.14l1.15-2.19,2.17-4.3c-1.79,.9-2.81,1.34-3.07,1.34Zm11.34-6.25c0-.46,.14-.69,.41-.69,.18,0,.4,.08,.66,.25,1.59,.97,3,2.23,4.25,3.8,1.24,1.56,2.1,2.94,2.58,4.14,.48,1.2,.71,2.06,.71,2.58s-.17,1.01-.52,1.47c-.73,.9-1.4,1.34-2,1.34h-.03c-.44,0-.66-.25-.66-.74,0-.16,.03-.36,.08-.58l-.08-.3c-.09-.53-.56-.8-1.4-.82l-2.25,.25c-.31,0-.47-.11-.47-.33,0-.16,.17-.27,.52-.33,1.48-.27,2.52-.49,3.11-.64,.59-.16,.89-.36,.89-.62,0-1.04-.54-2.42-1.62-4.14-1.08-1.72-2.42-3.15-4.03-4.3-.11-.05-.16-.16-.16-.33Zm6.02,.5c-.14,.04-.32,.02-.54-.05-.22-.07-.38-.21-.49-.41l-.45-.73c-.4-.63-.8-1.08-1.2-1.35-.4-.27-.63-.45-.67-.53v-.03c-.07-.25,0-.4,.24-.46,.07-.02,.16-.01,.26,.02,2.2,.64,3.4,1.35,3.6,2.11,.21,.77-.04,1.25-.75,1.44Zm-.87-5.89c2.2,.64,3.4,1.35,3.6,2.11,.21,.77-.05,1.25-.78,1.44-.12,.03-.29,.01-.51-.06-.22-.07-.39-.21-.52-.4l-.45-.73c-.4-.63-.8-1.08-1.2-1.35s-.62-.45-.64-.54c-.07-.25,.02-.4,.24-.46,.07-.02,.15-.02,.25-.01Z"/><path class="cls-1" d="M169.05,119.45c-.55,0-1.02-.51-1.42-1.53-1.79,1.19-3.16,1.78-4.11,1.78-.46,0-.97-.31-1.53-.93-.13-.13-.27-.48-.44-1.06s-.5-1.28-1.01-2.12c0-.84,.51-1.81,1.53-2.9,1.74-1.64,3.36-2.93,4.88-3.86,.15-2.16,.34-3.77,.58-4.85-.88,.29-1.74,.44-2.59,.44s-1.48-.17-1.9-.51c-.42-.34-.71-.72-.88-1.15-.16-.43-.25-.7-.25-.81,.02-.37,.18-.62,.49-.77,.71,1.15,1.82,1.73,3.32,1.73,.35,0,1-.11,1.97-.33,.22-1.55,.33-2.49,.33-2.82s-.11-.58-.34-.74c-.23-.16-.5-.34-.81-.52-.29-.18-.44-.35-.44-.49,0-.26,.16-.38,.47-.38s.74,.07,1.29,.22c1.57,.48,2.36,.99,2.36,1.53,0,.27-.13,.56-.4,.85-.27,.29-.5,.94-.7,1.95,.73-.15,1.54-.35,2.42-.62,.89-.26,1.38-.42,1.49-.48,.84-.57,1.36-.85,1.56-.85,1.42,0,2.17,.36,2.25,1.07,0,.11-.06,.24-.19,.38-.31,.4-2.91,1.04-7.81,1.92-.29,1.57-.47,3.01-.52,4.3,.86-.38,1.76-.66,2.7-.84,.94-.17,1.54-.26,1.79-.26h.55c.06-.33,.08-.63,.08-.92s-.14-.68-.41-1.19c.04-.24,.15-.36,.33-.36,.07,0,.13,0,.16,.03,.97,.24,1.51,1.03,1.62,2.38l-.11,.16c1.42,0,2.9,.54,4.41,1.62,1.26,.86,1.89,2.34,1.89,4.44s-.86,3.93-2.58,5.48c-1.48,1.32-3.29,2.18-5.43,2.6-.18,.04-.3,.06-.36,.08-.46-.05-.7-.18-.73-.38-.03-.2,.15-.36,.53-.47,4.38-1.26,6.58-3.75,6.58-7.48,0-2.8-1.6-4.27-4.8-4.41-.48,3.12-2.29,5.87-5.45,8.25-.07,.05-.12,.09-.14,.11,.04,.16,.17,.41,.41,.74,.24,.33,.35,.69,.33,1.07,.02,.6-.31,.9-.99,.9Zm-6.77-3.67c.33,1.06,.97,1.76,1.92,2.11,.42,0,1.42-.54,2.99-1.62-.2-1.32-.3-2.54-.3-3.67v-2.25c-1.02,.69-2.03,1.56-3.01,2.6-1.04,.93-1.57,1.87-1.59,2.82Zm6.3-6.38c-.02,.38-.03,1.1-.03,2.15s.11,2.22,.33,3.49c2.01-1.61,3.5-3.9,4.47-6.88-1.57,.04-3.16,.45-4.77,1.23Z"/><path class="cls-1" d="M195.55,105.4c.16,0,.25,.11,.25,.32s-.09,.53-.27,.97c-.79,1.96-1.27,3.9-1.45,5.84,.58,.53,.88,1.12,.88,1.78s-.43,.99-1.29,.99c-.29,0-.77-.37-1.43-1.1-.66-.73-1-2.46-1.01-5.18,0-.33,0-.69,.03-1.1,.02-.4,.18-1.34,.48-2.82s.45-2.57,.45-3.26-.21-1.2-.63-1.52c-.42-.32-.65-.51-.7-.58-.05-.06-.07-.13-.07-.19s.02-.13,.05-.21c.13-.24,.37-.36,.71-.36s.73,.14,1.15,.42c.42,.28,.82,.6,1.19,.96,.37,.36,.56,.67,.56,.95s-.1,.56-.3,.85c-.2,.29-.41,.78-.63,1.47s-.38,1.3-.49,1.85c-.11,.55-.19,1.37-.23,2.48-.05,1.11-.09,1.71-.14,1.82-.05,.11,.07,.34,.34,.69l1.18-3.07c.66-1.33,1.11-2,1.37-2Zm9.56,2.88c-.55,6.7-3.42,11.06-8.6,13.07-.33,.13-.49,.04-.49-.27,0-.18,.25-.37,.74-.58,2.14-.82,3.89-2.93,5.26-6.33,.51-1.24,.78-3.3,.79-6.17,0-4.88-.54-7.32-1.62-7.32-.18,0-.52,.2-1.01,.59-.49,.39-.79,.59-.88,.59-.2,0-.3-.1-.3-.29s.18-.51,.55-.95c.73-.91,1.62-1.37,2.66-1.37,1.83,.02,2.8,3.02,2.9,9.02Z"/><path class="cls-1" d="M61.08,141.69c0,1.11-.34,1.67-1.01,1.67-.53,0-.94-.26-1.23-.79-.55-1.04-.98-1.77-1.3-2.19-.32-.42-1.17-.83-2.56-1.23-.18-.02-.31-.07-.4-.16-.08-.09-.12-.16-.12-.22v-.11c0-.26,.18-.38,.55-.38h.16l.33,.03c1.28,.11,2.7,.64,4.27,1.59,.42,.26,.74,.51,.97,.75,.23,.25,.34,.6,.34,1.06Zm-4.33,7.21c.2-.02,.32,.02,.36,.11,.04,.09,.2,.39,.49,.9,.29,.51,.65,.77,1.07,.77,.79,0,1.32-.09,1.62-.27,6.72-3.74,11.21-8.46,13.45-14.14,.2-.49,.38-.74,.55-.74,.31,0,.47,.17,.49,.52,0,.22-.03,.42-.08,.6-2.12,6.05-6.52,11.28-13.21,15.7-.26,.07-.6,.27-1.03,.59s-.74,.48-.95,.48c0,.18-.05,.27-.16,.27-.27,0-.85-.48-1.74-1.45-.89-.97-1.33-1.87-1.33-2.71,0-.37,.15-.58,.47-.63Zm7.34-12.41c0,1.11-.34,1.67-1.01,1.67-.53,0-.93-.27-1.21-.82-.55-1.04-.98-1.77-1.3-2.19-.32-.42-1.18-.83-2.59-1.23-.33-.04-.49-.2-.49-.49,.02-.26,.2-.38,.55-.38h.16l.3,.03c1.32,.13,2.75,.66,4.3,1.59,.42,.26,.74,.51,.96,.77,.22,.26,.33,.61,.33,1.07Zm8.03-1.67c0,.64-.31,.96-.92,.96s-1-.24-1.16-.71l-.25-.82c-.18-.62-.52-1.2-1.01-1.73-.49-.53-.74-.83-.74-.9v-.05c0-.26,.22-.38,.66-.38,.07,0,.16,.04,.27,.11,1.94,1.17,2.98,2.21,3.12,3.12,.02,.15,.03,.28,.03,.41Zm3.48-.85c0,.73-.37,1.1-1.12,1.1-.51,0-.85-.24-1.01-.71l-.25-.82c-.16-.57-.49-1.13-.99-1.69-.49-.56-.74-.87-.74-.95,0-.26,.16-.38,.49-.38,.07,0,.16,.02,.27,.05,2.23,1.22,3.34,2.36,3.34,3.4Z"/><path class="cls-1" d="M100.46,152.21c0,.33-.26,.49-.77,.49h-.16l-.58-.03c-1.77-.73-4.03-1.1-6.77-1.1-.35,0-.7,0-1.07,.03l-1.07,.03c-1.19,.18-2.07,.36-2.64,.53-.58,.17-1.64,.53-3.19,1.06-.38,0-.84-.14-1.37-.41-.97-.51-1.65-1.21-2.06-2.08-.07-.16-.11-.3-.11-.41,0-.29,.14-.44,.41-.44,.15,0,.33,.16,.56,.47,.23,.31,.7,.49,1.41,.55,2.78-.22,5.56-.45,8.36-.69l-.03-.08c1.04-.8,1.83-3.51,2.36-8.11-.42-.07-.91-.11-1.48-.11s-1.36,.1-2.37,.3c-1.01,.2-1.73,.36-2.15,.48-.42,.12-.84,.25-1.26,.4-.42,.15-.69,.22-.82,.22-.44,0-.9-.28-1.4-.85-.49-.57-.89-1.21-1.18-1.95-.05-.15-.08-.26-.08-.33,0-.27,.15-.42,.44-.44,.05,0,.17,.1,.36,.3,.51,.57,1.63,.85,3.37,.85,.6,0,1.57-.1,2.9-.3,1.33-.2,2.46-.37,3.37-.49,.51-.66,.91-.99,1.19-.99s.75,.27,1.41,.82,.99,.92,.99,1.12-.2,.52-.59,.96c-.39,.44-.92,1.7-1.58,3.78l-.9,2.88v1.23c.57,.05,1.08,.08,1.53,.08s.95-.05,1.47-.14c.52-.09,.84-.14,.95-.14,.29,0,.79,.31,1.49,.95s1.06,1.15,1.06,1.55Z"/><path class="cls-1" d="M117.64,142.81c-2.65,.13-5.11,.61-7.37,1.45h-.44c-.26,0-.52-.08-.79-.25-.99-.73-1.58-1.23-1.78-1.51-.42-.64-.64-1.1-.66-1.37,0-.2,.14-.31,.41-.33,.15,0,.24,.02,.29,.07,.05,.05,.19,.19,.42,.42,.44,.44,1.85,.66,4.22,.66,.82,0,1.77-.03,2.85-.08,5.65-.29,9.22-.81,10.71-1.56,.09-.05,.23-.08,.42-.08s.46,.07,.81,.22c1.13,.48,1.7,.91,1.7,1.32,0,.15-.2,.37-.59,.67-.39,.3-.8,.46-1.22,.48-1.43-.18-2.77-.27-4.04-.27s-2.38,.03-3.33,.08l-1.62,.08Z"/><path class="cls-1" d="M141.23,141.69c0,1.11-.34,1.67-1.01,1.67-.53,0-.94-.26-1.23-.79-.55-1.04-.98-1.77-1.3-2.19-.32-.42-1.17-.83-2.56-1.23-.18-.02-.31-.07-.4-.16-.08-.09-.12-.16-.12-.22v-.11c0-.26,.18-.38,.55-.38h.16l.33,.03c1.28,.11,2.7,.64,4.27,1.59,.42,.26,.74,.51,.97,.75,.23,.25,.34,.6,.34,1.06Zm-4.33,7.21c.2-.02,.32,.02,.36,.11,.04,.09,.2,.39,.49,.9,.29,.51,.65,.77,1.07,.77,.79,0,1.32-.09,1.62-.27,6.72-3.74,11.21-8.46,13.45-14.14,.2-.49,.38-.74,.55-.74,.31,0,.47,.17,.49,.52,0,.22-.03,.42-.08,.6-2.12,6.05-6.52,11.28-13.21,15.7-.26,.07-.6,.27-1.03,.59s-.74,.48-.95,.48c0,.18-.05,.27-.16,.27-.27,0-.85-.48-1.74-1.45-.89-.97-1.33-1.87-1.33-2.71,0-.37,.15-.58,.47-.63Zm7.34-12.41c0,1.11-.34,1.67-1.01,1.67-.53,0-.93-.27-1.21-.82-.55-1.04-.98-1.77-1.3-2.19-.32-.42-1.18-.83-2.59-1.23-.33-.04-.49-.2-.49-.49,.02-.26,.2-.38,.55-.38h.16l.3,.03c1.32,.13,2.75,.66,4.3,1.59,.42,.26,.74,.51,.96,.77,.22,.26,.33,.61,.33,1.07Z"/><path class="cls-1" d="M171.08,142.81c-2.65,.13-5.11,.61-7.37,1.45h-.44c-.26,0-.52-.08-.79-.25-.99-.73-1.58-1.23-1.78-1.51-.42-.64-.64-1.1-.66-1.37,0-.2,.14-.31,.41-.33,.15,0,.24,.02,.29,.07,.05,.05,.19,.19,.42,.42,.44,.44,1.85,.66,4.22,.66,.82,0,1.77-.03,2.85-.08,5.65-.29,9.22-.81,10.71-1.56,.09-.05,.23-.08,.42-.08s.46,.07,.81,.22c1.13,.48,1.7,.91,1.7,1.32,0,.15-.2,.37-.59,.67-.39,.3-.8,.46-1.22,.48-1.43-.18-2.77-.27-4.04-.27s-2.38,.03-3.33,.08l-1.62,.08Z"/></g></g></g></svg>