<?xml version="1.0" encoding="UTF-8"?><svg id="_レイヤー_2" xmlns="http://www.w3.org/2000/svg" width="266" height="246" xmlns:xlink="http://www.w3.org/1999/xlink" viewBox="0 0 266 246"><defs><style>.cls-1{fill:#5e4a3e;}.cls-2{fill:#fff;filter:url(#drop-shadow-1);}</style><filter id="drop-shadow-1" filterUnits="userSpaceOnUse"><feOffset dx="7" dy="7"/><feGaussianBlur result="blur" stdDeviation="5"/><feFlood flood-color="#000" flood-opacity=".1"/><feComposite in2="blur" operator="in"/><feComposite in="SourceGraphic"/></filter></defs><g id="_文字"><g><path class="cls-2" d="M135.38,8.09c-32.36,0-61.38,14.26-81.14,36.83l-45.79-6.42s15.77,11.65,33.05,24.38c-8.86,15.65-13.92,33.73-13.92,53,0,59.54,48.26,107.8,107.8,107.8s107.8-48.26,107.8-107.8S194.92,8.09,135.38,8.09Z"/><g><path class="cls-1" d="M55.09,97.83c-3.18,.26-6.2,.41-9.07,.47-.35-.18-.48-.36-.41-.53,.07-.17,.29-.31,.66-.4,7.78-.57,13.31-1.55,16.58-2.96,1.88,1.41,2.82,2.29,2.82,2.66,0,.04,0,.06-.03,.08l-1.73-.41c-2.52,.42-4.77,.72-6.74,.9v4.8h5.81c.53-.84,.84-1.26,.93-1.26,1.83,1.08,2.74,1.72,2.74,1.92s-.11,.31-.33,.33h-9.15v4.8h7.73c.53-.84,.84-1.26,.93-1.26,1.83,1.08,2.74,1.72,2.74,1.92s-.11,.31-.33,.33h-11.07v7.1c0,1.15-.69,1.78-2.08,1.89-1.32-1.33-3.23-2-5.75-2-.26-.11-.38-.25-.38-.41s.11-.32,.33-.47l5.26,.44c.37-.04,.55-.2,.55-.49v-6.06h-10.03c-.48,0-.9,.05-1.29,.14l-.55-1.26c.18,.09,.61,.14,1.29,.14h10.58v-4.8h-7.89c-.48,0-.9,.05-1.29,.14l-.55-1.26c.18,.09,.61,.14,1.29,.14h8.44v-4.6Z"/><path class="cls-1" d="M73.14,112.35l-.03-2.85c0-.49,.06-1.55,.19-3.17,.13-1.62,.44-3.25,.93-4.89,.49-1.64,.74-2.59,.74-2.85l-.93-1.62c-.07-.15-.08-.35-.03-.6,.09-.16,.21-.25,.37-.25s.48,.15,.97,.44c1.21,.73,1.81,1.59,1.81,2.58,0,.37-.46,1.18-1.37,2.44-.71,1.85-1.07,3.98-1.07,6.41,0,1.43,.21,2.77,.63,4.03,.82-1.64,1.87-3.11,3.15-4.38,.02-.02,.07-.03,.16-.03,.18,0,.26,.09,.23,.27-.03,.18-.25,.59-.67,1.23-.95,1.44-1.62,3.13-2,5.07-.02,.09-.05,.18-.08,.27,.22,.4,.33,.88,.33,1.43,0,1.19-.35,1.78-1.04,1.78-.31,0-.68-.3-1.11-.89s-.74-1.44-.92-2.53c-.18-1.1-.27-1.73-.27-1.89Zm10.6-4.58c.26,0,.38,.14,.38,.41,0,.09-.24,.33-.71,.71-.77,.75-1.15,1.5-1.15,2.25,0,1.83,1,2.74,2.99,2.74l3.32-.22c.44,0,.8-.11,1.08-.33,.28-.22,.6-.33,.95-.33h.36c.4,0,.93,.19,1.59,.56,.66,.37,.99,.71,.99,1s-.17,.51-.51,.66c-.34,.15-1.16,.29-2.48,.44-1.32,.15-2.39,.22-3.22,.22s-1.48-.02-1.96-.05c-2.08-.11-3.52-.91-4.3-2.41-.24-.46-.36-1-.36-1.64s.29-1.37,.86-2.18c.58-.81,1.17-1.38,1.79-1.71,.15-.07,.27-.11,.38-.11Zm4.71-7.1c-1.68,.35-2.86,.52-3.54,.52-1.28,0-2.31-.42-3.1-1.26l-.25-.3s.03-.08,.15-.18c.12-.1,.24-.15,.37-.15s.26,.06,.41,.19c.31,.26,1.15,.38,2.51,.38s2.48-.26,3.37-.77c.89-.51,1.41-.77,1.58-.77,.42,0,.86,.18,1.33,.55,.47,.37,.7,.73,.7,1.1,0,.27-.24,.48-.71,.6l-4.06,2.85-.63,.38c-.26,0-.38-.07-.38-.22-.02-.15,.04-.26,.16-.36,.53-.38,1.22-1.24,2.08-2.58Z"/><path class="cls-1" d="M103.12,106.68l3.01-1.21c.35-.02,.52,.06,.52,.25,0,.07-.03,.26-.08,.55-1.26,.77-2.41,1.43-3.45,2v8.44c0,1.37-.92,2.06-2.77,2.06l-1.07-.85c-.95-.75-1.62-1.13-2-1.15-.26-.11-.38-.22-.38-.34s.11-.25,.33-.4l2.44,.44c.84-.04,1.26-.24,1.26-.6v-6.47c-.55,.26-1.05,.47-1.51,.63-.4,.88-.63,1.32-.67,1.32s-.08,0-.1-.03c-.51-.15-1.07-1.17-1.67-3.07,1.33-.2,2.65-.48,3.95-.85v-6.66h-1.29l-1.62,.19-1.26-1.43c.31,.04,.72,.1,1.22,.18,.5,.08,1.45,.13,2.84,.15h.11v-3.89l-.14-1.23c-.02-.13,.07-.19,.27-.19s.74,.07,1.6,.21,1.3,.28,1.3,.42c0,.09-.14,.21-.42,.37-.28,.16-.42,.32-.42,.51v3.81h.47l1.51-1.59c1.21,1.43,1.81,2.15,1.81,2.16,0,.22-.22,.33-.66,.33h-3.12v5.95Zm4.63-2.74l-1.62,.19-.6-1.07,2.36,.22h5.02v-4.36h-3.97l-1.62,.19c-.6-.68-.9-1.04-.9-1.1l2.58,.25h3.92v-2.82l-.14-1.34s.03-.05,.1-.05h.18c1.97,.24,3,.5,3.07,.79l-1.01,.69v2.74h2.11l1.48-1.86c1.66,1.13,2.49,1.83,2.49,2.08,0,.29-.22,.44-.66,.44h-5.43v4.36h3.43s.06-.02,.14-.05l1.51-1.81c1.66,1.37,2.49,2.11,2.49,2.22,0,.2-.22,.3-.66,.3h-14.25Zm.79,4.38l-1.62,.19c-.88-.57-1.32-.94-1.32-1.12h.11c.07,0,.37,.04,.88,.11,.51,.07,1.46,.12,2.85,.14h6.47v-1.73l-.14-1.23c-.02-.13,.05-.19,.19-.19s.68,.07,1.6,.21,1.38,.28,1.38,.42c0,.09-.14,.21-.42,.37-.28,.16-.42,.32-.42,.51v1.64h1.04l1.29-1.7c1.48,1.19,2.22,1.84,2.22,1.95v.22c0,.15-.22,.22-.66,.22h-3.89v8.36c.02,1.39-.9,2.08-2.77,2.08l-1.07-.85c-.88-.69-2.25-1.08-4.11-1.15-.26-.11-.38-.22-.38-.34s.11-.25,.33-.4l4.55,.44c.84-.04,1.26-.24,1.26-.6v-7.54h-7.37Zm-1.23,1.29c0-.24,.11-.36,.33-.36,.16,0,.68,.16,1.53,.47,1.97,.99,3.17,2.11,3.59,3.37,0,1.17-.32,1.75-.96,1.75-.27,0-.54-.26-.79-.79-.9-1.79-1.99-3.12-3.29-4-.27-.22-.41-.37-.41-.44Z"/><path class="cls-1" d="M134.53,116.46c-.91,0-1.38-.23-1.4-.69,0-.11,.1-.19,.3-.25,.33,0,1.2-.14,2.6-.41,4.93-.88,7.4-2.82,7.4-5.84,0-2.23-1.02-3.34-3.07-3.34-2.21,0-4.52,.62-6.93,1.86-.38,.2-.78,.45-1.19,.75-.41,.3-.79,.45-1.12,.45s-.87-.32-1.6-.96c-.24-.22-.58-.61-1.04-1.18-.46-.57-.69-1-.69-1.3s.11-.45,.33-.45c.16,0,.29,.07,.38,.22l.25,.3c.47,.64,1.1,.96,1.86,.96,.35,0,1.29-.23,2.82-.69l3.73-1.12c.99-.29,1.9-.45,2.74-.47,3.74,.02,5.62,1.54,5.62,4.58v.52c-.02,3.84-3.27,6.16-9.76,6.96-.48,.05-.89,.08-1.23,.08Z"/><path class="cls-1" d="M156.61,96.15c-.27-.05-.41-.2-.4-.44,0-.24,.16-.36,.45-.36s.7,.08,1.23,.25c1.43,.49,2.17,1.03,2.25,1.62v.33c0,.18-.1,.42-.31,.71-.21,.29-.34,.61-.4,.96-.04,.53-.08,1.06-.14,1.59,1.19-.38,2.33-1.14,3.43-2.27,.46-.4,.72-.63,.79-.67,.07-.05,.35-.13,.82-.25s.79-.18,.96-.18,.29,0,.38,.03c.79,.2,1.18,.43,1.18,.69s-.81,.94-2.43,2.04c-1.62,1.11-3.38,1.8-5.3,2.1-.6,4.38-1.96,8.94-4.08,13.67-.4,1.28-.85,1.92-1.33,1.92s-.83-.22-1.03-.67-.3-.9-.3-1.36,.16-.9,.49-1.32l1.4-2.6c1.5-3.31,2.48-6.49,2.93-9.54-.9-.02-1.84-.23-2.82-.63-.79-.35-1.31-.92-1.56-1.73-.02-.05-.03-.1-.03-.14,0-.24,.09-.35,.27-.34,.18,0,.63,.22,1.33,.64,.7,.42,1.26,.68,1.69,.77,.42,.09,.85,.14,1.29,.14,.11-.93,.16-1.92,.16-2.97s-.23-1.69-.69-1.93l-.25-.05Zm7.86,12.69c.24,0,.36,.14,.36,.41,0,.07-.23,.32-.69,.74-.66,.68-.99,1.48-.99,2.43s.09,1.52,.27,1.74c.66,.71,2.27,1.07,4.85,1.07,.26,0,.52,0,.79-.01,.27,0,.66-.1,1.15-.26,.49-.16,1-.25,1.51-.25s1.03,.2,1.55,.6c.52,.4,.78,.72,.78,.96s-.06,.39-.19,.47c-.62,.33-2.22,.49-4.8,.49-3.65,0-5.95-.76-6.88-2.27-.33-.53-.49-1.06-.49-1.59s.21-1.26,.63-2.18c.42-.92,1-1.64,1.73-2.15,.16-.13,.3-.19,.41-.19Zm5.45-4.55c-.64-.26-1.11-.38-1.41-.38s-1.93,.32-4.89,.96c-.29-.02-.44-.18-.44-.49,0-.26,.25-.48,.74-.69,2.39-.93,4.22-1.4,5.49-1.4s2.1,.14,2.48,.41c.77,.51,1.15,.96,1.15,1.34,0,.55-.63,.91-1.88,1.08-1.25,.17-2.38,.67-3.38,1.49-.53,.44-.86,.66-.99,.66-.18,0-.27-.12-.27-.36,0-.13,.43-.52,1.3-1.19,.87-.67,1.57-1.15,2.1-1.44Z"/><path class="cls-1" d="M185.88,112.08l.16,1.59c-.06,.37-.69,.55-1.89,.55-.33,0-.49-.24-.49-.71,0-.16,.02-.36,.05-.58h-4.11c.07,.69,.11,1.78,.11,3.26v.27c-.06,.37-.69,.55-1.89,.55-.02,.02-.04,.03-.05,.03-.09,0-.25-.23-.47-.69l.11-3.45v-15.73l-.14-1.21v-.11c0-.05,.02-.08,.05-.08h.11l2.71,1.12h3.29l1.15-1.45c1.44,.73,2.23,1.41,2.36,2.03l-1.07,.96v13.65Zm-6.3-8.03h4.17v-5.73c0-.26-.05-.46-.16-.6h-4v6.33Zm0,8.08h4.17v-7.32h-4.17v7.32Zm8.88-8.41l-1.15,.19c-.38-.4-.77-.79-1.15-1.18l2.52,.33h4.19v-3.89h-3.67l-1.62,.19c-.26-.44-.5-.82-.74-1.15,1.3,.2,2.43,.3,3.4,.3h2.63v-2.9l-.14-1.21v-.14s.09-.05,.27-.05,.71,.06,1.58,.19c.87,.13,1.3,.27,1.3,.41,0,.09-.14,.21-.41,.37-.27,.16-.41,.32-.41,.51v2.82h2.69l1.48-1.73,2.36,2.08c0,.2-.22,.3-.66,.3h-5.86v3.89h4.03s.06-.02,.14-.05l1.37-1.67c1.57,1.35,2.36,2.04,2.36,2.06,0,.22-.22,.33-.66,.33h-3.81v3.56h.79l1.32-1.48c1.41,1.1,2.11,1.74,2.11,1.95,0,.15-.22,.22-.66,.22h-3.56v8.71c0,1.39-.92,2.08-2.77,2.08l-1.07-.85c-.88-.69-2.28-1.08-4.22-1.15-.26-.11-.38-.22-.38-.34s.11-.25,.33-.4l4.66,.44c.84-.04,1.26-.24,1.26-.6v-7.89h-8l-1.45,.19-.77-1.21,3.12,.33h7.1v-3.56h-7.84Zm-.63,5.43c0-.16,.13-.25,.38-.25,.62,.02,1.84,.69,3.64,2.03,.53,.38,.79,1.06,.79,2.01s-.24,1.44-.71,1.44h-.03c-.26,0-.52-.29-.79-.88-1-1.99-2.03-3.27-3.07-3.84-.16-.09-.24-.26-.22-.52Z"/><path class="cls-1" d="M206.73,112.35l-.03-2.85c0-.49,.06-1.55,.19-3.17,.13-1.62,.44-3.25,.93-4.89,.49-1.64,.74-2.59,.74-2.85l-.93-1.62c-.07-.15-.08-.35-.03-.6,.09-.16,.21-.25,.37-.25s.48,.15,.97,.44c1.21,.73,1.81,1.59,1.81,2.58,0,.37-.46,1.18-1.37,2.44-.71,1.85-1.07,3.98-1.07,6.41,0,1.43,.21,2.77,.63,4.03,.82-1.64,1.87-3.11,3.15-4.38,.02-.02,.07-.03,.16-.03,.18,0,.26,.09,.23,.27-.03,.18-.25,.59-.67,1.23-.95,1.44-1.62,3.13-2,5.07-.02,.09-.05,.18-.08,.27,.22,.4,.33,.88,.33,1.43,0,1.19-.35,1.78-1.04,1.78-.31,0-.68-.3-1.11-.89s-.74-1.44-.92-2.53c-.18-1.1-.27-1.73-.27-1.89Zm10.6-4.58c.26,0,.38,.14,.38,.41,0,.09-.24,.33-.71,.71-.77,.75-1.15,1.5-1.15,2.25,0,1.83,1,2.74,2.99,2.74l3.32-.22c.44,0,.8-.11,1.08-.33,.28-.22,.6-.33,.95-.33h.36c.4,0,.93,.19,1.59,.56,.66,.37,.99,.71,.99,1s-.17,.51-.51,.66c-.34,.15-1.16,.29-2.48,.44-1.32,.15-2.39,.22-3.22,.22s-1.48-.02-1.96-.05c-2.08-.11-3.52-.91-4.3-2.41-.24-.46-.36-1-.36-1.64s.29-1.37,.86-2.18c.58-.81,1.17-1.38,1.79-1.71,.15-.07,.27-.11,.38-.11Zm4.71-7.1c-1.68,.35-2.86,.52-3.54,.52-1.28,0-2.31-.42-3.1-1.26l-.25-.3s.03-.08,.15-.18c.12-.1,.24-.15,.37-.15s.26,.06,.41,.19c.31,.26,1.15,.38,2.51,.38s2.48-.26,3.37-.77c.89-.51,1.41-.77,1.58-.77,.42,0,.86,.18,1.33,.55,.47,.37,.7,.73,.7,1.1,0,.27-.24,.48-.71,.6l-4.06,2.85-.63,.38c-.26,0-.38-.07-.38-.22-.02-.15,.04-.26,.16-.36,.53-.38,1.22-1.24,2.08-2.58Z"/><path class="cls-1" d="M80.91,150.78h-20.52l-1.86,.41-1.29-1.12c-.02-.05-.03-.13-.03-.22s.06-.16,.19-.19c1.35,.18,2.6,.33,3.75,.44h7.21v-2.96h-6.22l-1.86,.41-1.29-1.12c-.02-.05-.03-.13-.03-.22s.06-.16,.19-.19c1.35,.18,2.6,.33,3.75,.44h5.45v-3.32h-4.74l.11,1.1c-.04,.37-.68,.55-1.92,.55-.31,0-.49-.21-.55-.63l.11-1.81v-7.07l-.11-1.29c0-.09,.04-.14,.11-.14l2.77,1.15h4.19v-2.52h-7.67l-1.86,.41-1.29-1.12c-.02-.05-.03-.13-.03-.22s.06-.16,.19-.19c1.35,.18,2.6,.33,3.75,.44h6.91v-2.08c-2.54,.11-4.51,.16-5.91,.16s-2.43,0-3.11-.03c-.27-.16-.41-.29-.41-.38s.23-.18,.69-.27c7.78-.29,13.35-1.09,16.69-2.38,1.81,1.46,2.71,2.3,2.71,2.52,0,.04,0,.06-.03,.08l-1.73-.49c-1.32,.29-3.54,.52-6.69,.69v2.19h6.99l1.67-1.48c1.41,.95,2.11,1.56,2.11,1.84-.02,.22-.3,.33-.85,.33h-9.92v2.52h4.08l1.7-1.45c1.63,.99,2.44,1.64,2.44,1.95l-1.15,1.26v5.26l.16,2.22c-.06,.37-.7,.55-1.95,.55-.37,0-.55-.14-.55-.41,0-.47,.04-.89,.11-1.23h-4.85v3.32h5.67l1.67-1.59c1.39,1.15,2.08,1.8,2.08,1.95-.02,.22-.21,.33-.58,.33h-8.85v2.96h7.43l1.67-1.62c1.41,.95,2.11,1.61,2.11,1.97-.02,.22-.3,.33-.85,.33Zm-12.58-14.96h-4.71s-.04,1-.05,2.93h4.77v-2.93Zm0,6.63v-3.01h-4.77l.03,3.01h4.74Zm2.19-3.7h4.91v-2.33c0-.26-.05-.46-.16-.6h-4.71v1.95h-.03v.99Zm0,3.7h4.91v-3.01h-4.91v3.01Z"/><path class="cls-1" d="M90.86,138.44h10.5l1.7-1.45c1.63,.99,2.44,1.64,2.44,1.95l-1.15,1.26v2.63l.16,2.22c-.06,.37-.7,.55-1.95,.55-.37,0-.55-.15-.55-.44,0-.18,.04-.44,.11-.77h-4.85v2.63h5.67l1.67-1.59c1.39,1.15,2.08,1.8,2.08,1.95-.02,.22-.21,.33-.58,.33h-8.85v2.25h7.43l1.67-1.62c1.41,.95,2.11,1.61,2.11,1.97-.02,.22-.3,.33-.85,.33h-20.52l-1.86,.41-1.29-1.12c-.02-.05-.03-.13-.03-.22s.06-.16,.19-.19c1.35,.18,2.6,.33,3.75,.44h7.21v-2.25h-6.22l-1.86,.41-1.29-1.12c-.02-.05-.03-.12-.03-.21s.06-.15,.19-.21c1.35,.18,2.6,.33,3.75,.44h5.45v-2.63h-4.74l.11,.66c-.04,.37-.68,.55-1.92,.55-.31,0-.49-.21-.55-.63l.11-1.81v-4.44l-.11-1.29c0-.09,.04-.14,.11-.14l2.77,1.15Zm-2.96-2.33h16.63l1.67-1.48c1.41,.95,2.11,1.56,2.11,1.84-.02,.22-.3,.33-.85,.33h-20.33l-1.86,.41-1.29-1.12c-.02-.05-.03-.13-.03-.22s.06-.16,.19-.19c1.35,.18,2.6,.33,3.75,.44Zm14.5-1.64h-12.33l.11,.66c-.04,.37-.68,.55-1.92,.55-.31,0-.49-.21-.55-.63l.11-1.81v-4.47l-.11-1.29c0-.09,.04-.14,.11-.14l2.77,1.15h11.04l1.7-1.45c1.63,.99,2.44,1.64,2.44,1.95l-1.15,1.53v2.38l.16,2.22c-.06,.37-.7,.55-1.95,.55-.37,0-.55-.15-.55-.44,0-.18,.04-.44,.11-.77Zm-.14-5.15h-12.19s-.04,.63-.06,1.84h12.41v-1.23c0-.26-.05-.46-.16-.6Zm-12.22,4.47h12.39v-1.95h-12.41l.03,1.95Zm5.01,5.48h-4.71s-.04,.63-.05,1.84h4.77v-1.84Zm0,4.44v-1.92h-4.77l.03,1.92h4.74Zm2.19-2.6h4.91v-1.23c0-.26-.05-.46-.16-.6h-4.71v1.53h-.03v.3Zm0,2.6h4.91v-1.92h-4.91v1.92Z"/><path class="cls-1" d="M112.62,129.89l-.14-1.29c0-.07,.03-.11,.08-.11s.36,.11,.92,.34c.56,.23,1.18,.53,1.88,.89h9.89c-.11-.49-.22-1-.33-1.53l-.14-1.21c-.02-.13,.06-.19,.25-.19s.68,.06,1.48,.19c.8,.13,1.21,.27,1.21,.41,0,.09-.15,.22-.44,.4-.29,.17-.42,.33-.38,.48,.09,.49,.19,.98,.3,1.45h3.86l1.62-1.78c1.46,1.11,2.19,1.81,2.19,2.08s-.19,.41-.58,.41h-6.93c.51,2.17,1.16,4.06,1.95,5.67,.8-1.46,1.45-3.09,1.95-4.88,.11-.4,.29-.56,.55-.47,1.9,.73,2.85,1.36,2.85,1.89,0,.05-.14,.08-.42,.08s-.6,0-.95-.03c-.79,1.9-1.79,3.6-3.01,5.1,.8,1.24,1.72,2.25,2.74,3.01,.33,0,.63-.75,.9-2.25l.27-1.53c.16-1.08,.35-1.62,.56-1.62s.35,.53,.42,1.59l-.22,2.69v.47c0,.24,.06,.61,.19,1.12,.42,.38,.63,.83,.63,1.34,0,.69-.31,1.04-.93,1.04-.13,0-.25,0-.36-.03-2.23-.37-4.13-1.79-5.7-4.27-1.13,1.1-2.41,2.05-3.84,2.85-.26,.15-.42,.13-.49-.04-.07-.17-.09-.34-.06-.51,1.41-1,2.62-2.2,3.64-3.59-1.04-2.01-1.93-4.56-2.66-7.65h-10.41c-.09,.04-.14,.27-.14,.69v2.55c0,6.28-1.57,9.86-4.71,10.71-.27,0-.41-.13-.41-.38s.1-.48,.3-.69c1.74-1.83,2.6-4.29,2.6-7.4v-6.03Zm2.36,13.98c.05-.33,.2-.55,.44-.66,.24-.11,.4,0,.49,.3,.09,.31,.13,.58,.11,.82-.26,3.4-1.23,5.49-2.93,6.28-.31,.15-.57,.22-.77,.22-.57,0-.85-.45-.85-1.34,0-.37,.32-.82,.96-1.37,1.39-1.02,2.24-2.44,2.55-4.25Zm9.81-10.22h-6.85l-1.32,.47-1.37-1.04,.05-.36,3.12,.27h3.56l1.53-1.7c1.28,1.08,1.92,1.72,1.92,1.92,0,.29-.22,.44-.66,.44Zm-8.39,1.56c-.02-.11,.02-.16,.12-.16s.52,.16,1.25,.49c.73,.33,1.22,.54,1.48,.63h2.16l1.67-1.45c.11,0,.49,.29,1.14,.88,.65,.58,.97,1.03,.97,1.34l-.93,1.01v1.1l.16,2.27c-.02,.13-.62,.31-1.81,.55-.09,.02-.21-.05-.36-.19-.15-.15-.2-.29-.16-.44,.04-.15,.06-.29,.08-.44h-3.54c.07,.4,.11,.67,.11,.79-.04,.37-.64,.55-1.81,.55-.37,0-.55-.23-.55-.69l.11-1.86v-3.15l-.11-1.23Zm5.59,14.19h5.45c.73,0,1.18-.39,1.34-1.18l.16-.82c.18-1.08,.33-1.62,.44-1.62,.07,0,.16,.53,.27,1.59l.16,1.48c.07,.37,.22,.66,.45,.88s.3,.47,.21,.77c-.27,.77-.99,1.15-2.14,1.15h-7.54c-1.59,0-2.38-.77-2.38-2.3v-5.01l-.14-1.21c-.02-.13,.06-.19,.25-.19,.09,0,.58,.06,1.47,.19,.89,.13,1.33,.27,1.33,.41,0,.09-.14,.21-.41,.37-.27,.16-.41,.32-.41,.51v3.67c0,.88,.49,1.32,1.48,1.32Zm.22-11.95c0-.26-.06-.46-.16-.6h-3.45v3.26h3.62v-2.66Zm.08,5.81c-.2-.07-.3-.2-.3-.38s.04-.28,.11-.3l.08-.03,.3,.05c1.88,.35,3.54,1.23,4.96,2.66l.49,.69c0,.66-.32,1.19-.96,1.59h-.03c-.11,0-.41-.25-.9-.74-1.17-1.84-2.42-3.02-3.75-3.54Zm6.49-15.19c-.6-.78-1.04-1.23-1.32-1.37s-.33-.27-.16-.4c.13-.07,.34-.07,.63,0l.74,.19c1.35,.51,2.13,.96,2.33,1.34,.13,.24,.19,.43,.19,.58s0,.25-.03,.3c-.15,.38-.49,.58-1.04,.6-.04,0-.12-.01-.25-.04-.13-.03-.49-.43-1.1-1.21Zm1.18,15.8c-.13-.13-.19-.27-.19-.42s.1-.23,.32-.23,.73,.25,1.55,.74c2.54,1.88,3.81,3.48,3.81,4.8,0,.4-.14,.85-.41,1.33-.27,.48-.56,.73-.86,.73s-.6-.56-.89-1.67c-.48-1.79-1.58-3.54-3.32-5.26Z"/><path class="cls-1" d="M141.61,138.83c-.55-.07-1.05-.37-1.51-.88-.44-.66-.66-1.2-.66-1.62s.07-.63,.21-.63,.23,.02,.29,.07c.05,.05,.18,.27,.37,.66,.19,.39,.5,.59,.92,.59,.22,0,.64-.09,1.26-.27l2.71-.82c.8-1.41,1.21-3.08,1.21-5.01,0-.95-.27-1.63-.79-2.06-.33-.27-.5-.43-.52-.47-.02-.05-.03-.12-.03-.19,0-.18,.13-.27,.38-.27s.59,.1,1.01,.3c1.83,.79,2.74,1.44,2.74,1.97,0,.27-.11,.53-.32,.75-.21,.23-.35,.39-.41,.49-.06,.1-.11,.25-.15,.45l-1.04,3.32c1.3-.33,2.28-.49,2.96-.49s1.14,.16,1.4,.47c.84,1.17,1.26,2.37,1.26,3.59,0,.24,0,.5-.03,.79-.33,4.42-.95,7.43-1.86,9.02-.62,1.06-1.14,1.74-1.56,2.06-.42,.29-.8,.44-1.15,.44-.66,0-.99-.19-.99-.58l.05-.69c0-.37-.6-.94-1.81-1.73l-1.51-.99c-.37-.24-.55-.42-.55-.55s.13-.19,.38-.19,.88,.26,1.88,.77c1,.51,1.77,.77,2.32,.77,.66,0,1.29-1.06,1.9-3.18,.61-2.12,.92-4.07,.92-5.85s-.46-2.67-1.37-2.67l-.44,.03c-.75,0-1.53,.16-2.36,.49-.4,.97-1,2.3-1.78,3.99-.79,1.69-1.64,3.82-2.58,6.4l-.27,.47c-.57,.84-1.09,1.26-1.56,1.26-.16,0-.3-.05-.41-.14-.37-.26-.55-.7-.55-1.33s.09-1.05,.27-1.25c.47-.57,.98-1.28,1.51-2.14l1.15-2.19,2.17-4.3c-1.79,.9-2.81,1.34-3.07,1.34Zm11.34-6.25c0-.46,.14-.69,.41-.69,.18,0,.4,.08,.66,.25,1.59,.97,3,2.23,4.25,3.8,1.24,1.56,2.1,2.94,2.58,4.14,.48,1.2,.71,2.06,.71,2.58s-.17,1.01-.52,1.47c-.73,.9-1.4,1.34-2,1.34h-.03c-.44,0-.66-.25-.66-.74,0-.16,.03-.36,.08-.58l-.08-.3c-.09-.53-.56-.8-1.4-.82l-2.25,.25c-.31,0-.47-.11-.47-.33,0-.16,.17-.27,.52-.33,1.48-.27,2.52-.49,3.11-.64,.59-.16,.89-.36,.89-.62,0-1.04-.54-2.42-1.62-4.14-1.08-1.72-2.42-3.15-4.03-4.3-.11-.05-.16-.16-.16-.33Zm6.02,.5c-.14,.04-.32,.02-.54-.05s-.38-.21-.49-.41l-.45-.73c-.4-.63-.8-1.08-1.2-1.35-.4-.27-.63-.45-.67-.53v-.03c-.07-.25,0-.4,.24-.46,.07-.02,.16-.01,.26,.01,2.2,.64,3.4,1.35,3.6,2.11,.21,.77-.04,1.25-.75,1.44Zm-.87-5.89c2.2,.64,3.4,1.35,3.6,2.11,.21,.77-.05,1.25-.78,1.44-.12,.03-.29,.01-.51-.06-.22-.07-.39-.21-.52-.4l-.45-.73c-.4-.63-.8-1.08-1.2-1.35s-.62-.45-.64-.54c-.07-.25,.02-.4,.24-.46,.07-.02,.15-.02,.25-.01Z"/><path class="cls-1" d="M174.36,149.43c-.55,0-1.02-.51-1.42-1.53-1.79,1.19-3.16,1.78-4.11,1.78-.46,0-.97-.31-1.53-.93-.13-.13-.27-.48-.44-1.05-.16-.58-.5-1.28-1.01-2.12,0-.84,.51-1.81,1.53-2.9,1.74-1.64,3.36-2.93,4.88-3.86,.15-2.16,.34-3.77,.58-4.85-.88,.29-1.74,.44-2.59,.44s-1.48-.17-1.9-.51c-.42-.34-.71-.72-.88-1.15-.16-.43-.25-.7-.25-.81,.02-.37,.18-.62,.49-.77,.71,1.15,1.82,1.73,3.32,1.73,.35,0,1-.11,1.97-.33,.22-1.55,.33-2.49,.33-2.82s-.11-.58-.34-.74c-.23-.16-.5-.34-.81-.52-.29-.18-.44-.35-.44-.49,0-.26,.16-.38,.47-.38s.74,.07,1.29,.22c1.57,.48,2.36,.99,2.36,1.53,0,.27-.13,.56-.4,.85-.27,.29-.5,.94-.7,1.95,.73-.15,1.54-.35,2.42-.62,.89-.26,1.38-.42,1.49-.48,.84-.57,1.36-.85,1.56-.85,1.42,0,2.17,.36,2.25,1.07,0,.11-.06,.24-.19,.38-.31,.4-2.91,1.04-7.81,1.92-.29,1.57-.47,3.01-.52,4.3,.86-.38,1.76-.66,2.7-.84,.94-.17,1.54-.26,1.79-.26h.55c.06-.33,.08-.63,.08-.92s-.14-.68-.41-1.19c.04-.24,.15-.36,.33-.36,.07,0,.13,0,.16,.03,.97,.24,1.51,1.03,1.62,2.38l-.11,.16c1.42,0,2.9,.54,4.41,1.62,1.26,.86,1.89,2.34,1.89,4.44s-.86,3.93-2.58,5.48c-1.48,1.32-3.29,2.18-5.43,2.6-.18,.04-.3,.06-.36,.08-.46-.05-.7-.18-.73-.38-.03-.2,.15-.36,.53-.47,4.38-1.26,6.58-3.75,6.58-7.48,0-2.8-1.6-4.27-4.8-4.41-.48,3.12-2.29,5.87-5.45,8.25-.07,.05-.12,.09-.14,.11,.04,.16,.17,.41,.41,.74,.24,.33,.35,.69,.33,1.07,.02,.6-.31,.9-.99,.9Zm-6.77-3.67c.33,1.06,.97,1.76,1.92,2.11,.42,0,1.42-.54,2.99-1.62-.2-1.32-.3-2.54-.3-3.67v-2.25c-1.02,.69-2.03,1.56-3.01,2.6-1.04,.93-1.57,1.87-1.59,2.82Zm6.3-6.38c-.02,.38-.03,1.1-.03,2.15s.11,2.22,.33,3.49c2.01-1.61,3.5-3.9,4.47-6.88-1.57,.04-3.16,.45-4.77,1.23Z"/><path class="cls-1" d="M199.65,140.2c2.59-1.52,4.73-2.27,6.4-2.27s2.91,.23,3.71,.69c1.92,1.08,2.88,2.69,2.88,4.84s-.76,3.94-2.27,5.37c-1.52,1.43-3.75,2.2-6.69,2.29h-.05c-1.44-.05-2.45-.27-3.01-.66-1.08-.71-1.62-1.41-1.62-2.08,0-1.22,.37-2.13,1.12-2.71,1.08-.82,2.06-1.23,2.96-1.23,.24,0,.47,.03,.69,.08h.08c.93,0,1.75,.35,2.45,1.06,.7,.7,1.06,1.43,1.06,2.18,0,.33-.02,.65-.06,.96,.73-.35,1.19-.59,1.37-.74,1.33-.99,2-2.64,2-4.96s-1.6-3.44-4.8-3.64h-.03c-2.01,0-4.61,1.07-7.81,3.21-.06,.04-.24,.27-.55,.71l-1.32,1.51c-.57,.66-1.07,.99-1.51,.99s-.66-.46-.66-1.38,.23-1.54,.69-1.85c2.69-2.03,5.68-4.93,8.99-8.71,.66-.79,1.32-1.75,1.97-2.9l-5.21,1.84c-.42,.15-.69,.27-.82,.38-.13,.11-.27,.16-.44,.16-.64,0-1.21-.33-1.71-1-.5-.67-.75-1.37-.75-2.12,0-.35,.07-.52,.21-.52s.43,.24,.88,.71c.45,.48,.91,.72,1.38,.74l1.04,.03h.49c.22,0,2.09-.51,5.62-1.53,.2-.37,.37-.6,.52-.71,1.55,.99,2.33,1.62,2.33,1.89s-.23,.48-.69,.62c-.46,.14-.77,.28-.93,.42-2.36,2.28-5,5.08-7.92,8.39Zm6.06,9.07c.09-.73,.14-1.28,.14-1.64s-.19-.74-.58-1.14c-.38-.39-.91-.59-1.59-.59-.2,0-.6,.05-1.21,.16-1.26,.22-1.89,.78-1.89,1.67,0,.11,0,.23,.03,.36,.13,.97,1.13,1.45,3.01,1.45,.62,0,1.32-.09,2.08-.27Z"/></g></g></g></svg>