<?xml version="1.0" encoding="UTF-8"?><svg id="_レイヤー_2" xmlns="http://www.w3.org/2000/svg" width="105.31" height="24.43" viewBox="0 0 105.31 24.43"><defs><style>.cls-1{fill:#231815;}</style></defs><g id="_ヘッダーフッター"><g><path class="cls-1" d="M104.77,13.38c0,2.6,.01,5.2-.01,7.8,0,.59-.06,1.21-.25,1.76-.36,1.08-1.43,1.23-2.25,.45-.33-.32-.85-.64-1.28-.64-4.63,.06-9.27,.18-13.9,.32-.7,.02-1.38-.01-1.9,.78-.37,.56-1.19,.36-1.48-.26-.36-.77-.7-1.64-.7-2.47,0-5.51,.12-11.02,.16-16.53,0-.83-.19-1.67-.34-2.49-.12-.68,.21-1.09,.77-.78,1.76,.96,3.59,.38,5.36,.3,4.03-.18,8.07-.36,12.07-.85,1.59-.19,2.62,.31,3.67,1.23,.59,.51,.75,1.1,.42,1.88-.24,.56-.35,1.21-.36,1.83-.04,2.56-.02,5.13-.02,7.69Zm-2.59,7.15c0-1.75,0-3.29,0-4.83,0-3.9-.02-7.8,.01-11.7,0-.79-.23-1.11-1.02-1-.24,.03-.49,0-.74,.01-4.59,.26-9.18,.55-13.77,.78-.86,.04-.94,.44-.94,1.12,0,4.25-.05,8.5-.07,12.75,0,1.11,0,2.22,0,3.43,2.6-.13,5.09-.25,7.93-.39-1.75-1.27-.65-2.85-.92-4.07-1.64,.87-3.17,1.73-4.74,2.5-.33,.16-.82,.02-1.24,.02,.23-.33,.39-.74,.69-.98,1.36-1.1,2.76-2.15,4.13-3.24,.27-.21,.45-.52,.68-.79-.07-.08-.15-.17-.22-.25-.43,.24-.83,.58-1.29,.67-.39,.08-1.14-.05-1.2-.25-.4-1.38-.67-2.8-1.02-4.38,.77,.15,1.36,.4,1.92,.36,2.31-.19,4.61-.45,6.9-.74,.85-.11,2.46,.78,2.16,1.29-.52,.86-.63,1.68-.5,2.61,.01,.09-.02,.18-.02,.26,.21,.14,.42,.22,.55,.38,.24,.27,.64,.6,.61,.88-.02,.25-.49,.52-.82,.66-.53,.23-1.1,.36-1.89,.61,1.61,.82,3.02,1.54,4.58,2.34-1.85,1.16-3.67,1-4.87-.19-.75-.75-1.51-1.5-2.35-2.33-.09,1.66-.17,3.13-.25,4.51h7.7Zm-11.2-7.82c1.61-.14,3.21-.33,4.81-.42,.89-.05,.99-.52,.91-1.3-1.7,.15-3.33,.31-4.97,.42-.78,.05-1.08,.37-.76,1.3Zm6.97,.81c-.88,.06-1.74,.11-2.59,.2-.19,.02-.47,.2-.51,.35-.04,.17,.12,.44,.27,.57,1.14,1.04,2.39,.56,2.83-1.12Z"/><path class="cls-1" d="M30.38,17.3c-.31-3.42-.61-6.85-.96-10.27-.06-.58-.31-1.15-.5-1.71-.22-.67-.09-1.03,.7-.94,5.52,.62,10.97-.4,16.45-.7,1.71-.09,2.82,.36,3.86,1.43,.27,.28,.44,.82,.4,1.22-.2,1.73-.55,3.44-.76,5.17-.27,2.26-.46,4.54-.7,6.81-.04,.38-.12,.76-.21,1.14-.39,1.54-1.2,1.78-2.35,.72-.18-.17-.48-.3-.72-.29-3.93,.09-7.86,.2-11.79,.35-.32,.01-.74,.3-.93,.58-.57,.82-1.46,.91-1.88-.04-.47-1.06-.63-2.24-.93-3.37,.11-.02,.22-.05,.32-.07Zm16.4-4.59h-6.06v4.89h5.57c.17-1.67,.33-3.24,.49-4.89Zm.4-6.55c-2.08,0-3.99-.01-5.91,.02-.18,0-.51,.31-.51,.49-.04,1.32-.02,2.64-.02,4.02,2.11-.13,4.14-.26,6.21-.39,.08-1.33,.16-2.76,.24-4.14Zm-14.55,7.07c.11,1.73,.21,3.26,.32,4.85,1.62-.08,3.16-.14,4.69-.25,.21-.01,.58-.26,.58-.41,.04-1.49,.03-2.99,.03-4.6-1.96,.14-3.73,.27-5.62,.41Zm-.11-2.02c1.82-.11,3.5-.2,5.16-.34,.17-.01,.45-.28,.45-.44,.04-1.35,.02-2.7,.02-4.1-2.04,.16-3.91,.31-5.85,.46,.07,1.48,.13,2.86,.21,4.41Z"/><path class="cls-1" d="M72.84,9.3c.77,.09,1.58,.09,2.31,.32,.31,.1,.48,.67,.71,1.02-.35,.18-.69,.5-1.05,.53-2.13,.18-4.28,.26-6.41,.43-2.37,.2-4.74,.46-6.86,.67-.14,1.22-.27,2.27-.4,3.39,2.26-.25,4.6-.48,6.92-.77,1.7-.21,3.39-.52,5.09-.73,.36-.05,.81,.03,1.11,.22,.44,.28,.78,.71,1.17,1.07-.46,.21-.9,.49-1.39,.61-.54,.13-1.11,.12-1.86,.18,.51,.35,.89,.57,1.24,.84,.74,.59,.71,.97-.14,1.36-.63,.29-1.3,.52-2.3,.91,1.91,.86,3.54,1.63,5.2,2.34,.87,.37,1.79,.63,2.67,.97,.19,.08,.45,.32,.44,.47-.01,.18-.26,.45-.45,.48-2.21,.42-4.37,1.12-6.42-.78-1.95-1.81-4.17-3.33-6.26-4.98-.1-.08-.15-.21-.23-.32q1.06-.6,4.15,1.03c.49-.68,.99-1.37,1.5-2.07l-.23-.25c-2.36,.26-4.73,.51-7.21,.78,1.25,1.39-.1,2.89,.51,4.38,1.15-.32,2.35-.67,3.55-.98,.27-.07,.57,.02,.86,.04-.12,.26-.17,.62-.38,.76-1.55,1.08-3.12,2.15-4.73,3.14-.24,.15-.88-.01-1.09-.25-.63-.71-1.18-1.38-.76-2.59,.38-1.11,.33-2.45,.15-3.64-.08-.54-.96-.96-1.59-1.53-.24,.46-.46,.87-.67,1.28-1.06,2.14-2.68,3.76-4.69,5.01-.25,.16-.62,.12-.94,.17,.1-.33,.1-.75,.31-.98,2-2.2,3.42-4.7,4.09-7.62,.21-.91,.4-1.78-.5-2.47-.21-.16-.26-.52-.45-.93,.88-.11,1.6-.21,2.32-.27,4.02-.36,8.04-.71,12.06-1.07,.23-.02,.45-.13,.68-.2l-.03,.02Z"/><path class="cls-1" d="M6.34,13.66c-1.28,1.15-2.32,2.14-3.42,3.06-.53,.45-1.14,.82-1.77,1.12-.32,.15-.76,.07-1.15,.09,.18-.34,.28-.77,.54-1.01,2.02-1.84,3.58-4.02,4.97-6.64-.96,.17-1.73,.31-2.5,.44-1.43,.26-1.94-.05-2.59-1.67,1.91-.3,3.79-.59,5.72-.89v-3.06c-1.49,.18-2.83,.88-4.25,.73-.04-.13-.07-.26-.11-.4,.3-.18,.59-.38,.9-.55,1.39-.74,2.83-1.41,4.16-2.24,.57-.36,.91-1.08,1.4-1.59,.2-.21,.53-.29,.82-.41,.04-.02,.14,.03,.19,.08,.68,.62,1.36,1.24,2.03,1.85-.63,.43-1.25,.88-1.89,1.29-.29,.18-.64,.28-.81,.36v3.47c.42-.09,.72-.2,1.03-.21,.53-.01,1.12-.09,1.58,.11,.38,.17,.6,.69,.89,1.05-.38,.25-.73,.6-1.15,.73-.6,.18-1.26,.15-1.86,.31-.25,.07-.42,.42-.63,.64,.21,.19,.39,.45,.64,.54,.52,.2,1.1,.25,1.6,.47,.43,.2,.86,.5,1.17,.86,.48,.57,.5,1.25-.05,1.81-.55,.56-1.15,.25-1.61-.13-.55-.46-1-1.04-1.49-1.57-.1,.04-.21,.08-.31,.13,0,1.18,0,2.35,0,3.53,0,1.97-.01,3.94-.03,5.9,0,.35,.04,.75-.12,1.03-.22,.39-.55,.88-.93,.98-.29,.07-.88-.32-1.04-.65-.31-.64-.6-1.39-.57-2.08,.13-2.45,.4-4.88,.63-7.5Z"/><path class="cls-1" d="M72.87,9.28c-2.29-.68-4.62-.37-6.93-.2-.98,.07-1.96,.15-2.94,.26-.27,.03-.65,.07-.77,.25-.38,.56-.92,.84-1.41,.44-.44-.36-.78-.98-.9-1.54-.28-1.3-.38-2.63-.59-3.95-.06-.41-.25-.8-.34-1.21-.07-.29-.07-.59-.1-.88,.3-.02,.6-.08,.9-.06,1.29,.08,2.59,.19,4.07,.3-.23-.95-.39-1.58-.54-2.2,1.67-.46,2.72,.23,2.68,1.72,1.85,.25,1.86,.23,1.64-2.04,1.61-.49,2.54,.19,2.39,1.86,.49-.05,1.02,.02,1.43-.17,1.3-.58,2.24,.18,3.16,.84,.27,.19,.43,.82,.34,1.17-.34,1.34-.78,2.66-1.25,3.96-.19,.53-.59,.99-.89,1.48,0,0,.03-.02,.03-.02Zm-1.28-2c.08-.49,.15-.9,.22-1.32-2.3-.08-2.39-.02-2.09,1.38,.4,0,.82,0,1.24,0,.17,0,.34-.03,.63-.06Zm-5.78,.19c1.86,.24,2.08,.08,1.83-1.37-.59,.06-1.2,.11-1.83,.17v1.2Zm-3.75-.79c-.13,1.38,.08,1.49,1.85,.94,.12-1.27-.04-1.35-1.85-.94Zm7.76-2.17h2.21c.02-.31,.03-.67,.05-1.03-2.15-.16-2.3-.09-2.26,1.03Zm-6.03-.54c-.79,.1-1.47,.18-2.25,.28,.1,.39,.18,.7,.27,1.05,.71-.07,1.32-.13,1.98-.19v-1.15Zm3.99-.36c-.75,.09-1.36,.17-2.03,.26,.04,.38,.07,.67,.1,1.03,.7-.06,1.31-.11,1.93-.16v-1.12Z"/><path class="cls-1" d="M12.09,7.78c.41,0,.67-.05,.89,0,2.85,.79,5.6,.02,8.35-.57,.75-.16,2.14,.46,2.87,1.39,.53,.67,.23,1.17-.05,1.89-.65,1.69-1.03,3.48-1.5,5.23-.03,.13,.09,.31,.18,.45,.63,1.05,.53,1.32-.71,1.42-1.82,.15-3.64,.19-5.46,.35-.35,.03-.67,.39-1,.62-.3,.2-.59,.61-.86,.59-.34-.02-.8-.3-.98-.6-.25-.44-.36-.99-.39-1.5-.2-3.07-.13-6.17-1.34-9.28Zm9.09,1.67c-2.03,.21-3.89,.4-5.84,.6,.12,2.04,.24,3.98,.36,5.99,1.64-.12,3.13-.23,4.67-.35,.27-2.08,.52-4.08,.8-6.24Z"/><path class="cls-1" d="M62.12,13.15c2.27-.25,4.39-.48,6.5-.73,.59-.07,1.17-.24,1.76-.27,.5-.02,1.04,0,1.49,.19,.27,.11,.41,.57,.61,.87-.29,.16-.57,.42-.87,.46-2.57,.31-5.15,.58-7.73,.86-.93,.1-1.39-.41-1.76-1.38Z"/><path class="cls-1" d="M92.47,7.76c-2.09,.21-4.07,.41-6.12,.62,.31,1,.74,1.48,1.78,1.37,2.79-.31,5.59-.55,8.39-.77,1.26-.1,2.53-.06,3.79-.16,.32-.03,.61-.33,.92-.51-.21-.3-.36-.76-.63-.86-.56-.19-1.2-.27-1.8-.23-1.35,.08-2.69,.26-4.02,.4-.24-.76-.08-1.08,.62-1.07,.7,.01,1.42,.03,2.1-.09,.48-.08,.92-.39,1.37-.59-.4-.33-.76-.76-1.22-.97-.34-.15-.81-.03-1.22,.01-.47,.05-.95,.14-1.41,.21-.23-1.19-1.34-1.72-2.72-1.37,.07,.52,.14,1.05,.22,1.61-1.5,.14-2.86,.27-4.32,.41,.45,1.01,.91,1.52,1.94,1.29,.74-.16,1.52-.16,2.35-.23v.93Z"/><path class="cls-1" d="M92.47,7.76v-.93c-.83,.07-1.61,.06-2.35,.23-1.02,.23-1.49-.29-1.94-1.29,1.46-.14,2.83-.27,4.32-.41-.08-.57-.15-1.09-.22-1.61,1.38-.35,2.49,.18,2.72,1.37,.47-.07,.94-.16,1.41-.21,.41-.04,.88-.16,1.22-.01,.46,.2,.82,.63,1.22,.97-.46,.21-.89,.51-1.37,.59-.69,.12-1.4,.1-2.1,.09-.7-.01-.86,.31-.62,1.07,1.32-.14,2.67-.32,4.02-.4,.6-.04,1.24,.04,1.8,.23,.28,.09,.43,.56,.63,.86-.31,.18-.6,.49-.92,.51-1.26,.1-2.53,.06-3.79,.16-2.8,.22-5.6,.46-8.39,.77-1.04,.11-1.46-.37-1.78-1.37,2.06-.21,4.04-.41,6.12-.62Z"/></g></g></svg>