<?xml version="1.0" encoding="UTF-8"?><svg id="_レイヤー_2" xmlns="http://www.w3.org/2000/svg" width="96.58" height="22.4" viewBox="0 0 96.58 22.4"><defs><style>.cls-1{fill:#fff;}</style></defs><g id="_文字"><g><path class="cls-1" d="M96.08,12.27c0,2.38,.01,4.77,0,7.15,0,.54-.06,1.11-.23,1.61-.33,.99-1.31,1.13-2.06,.41-.3-.29-.78-.59-1.17-.59-4.25,.06-8.5,.17-12.75,.29-.64,.02-1.27-.01-1.75,.71-.34,.52-1.09,.33-1.35-.24-.33-.71-.64-1.51-.64-2.27,0-5.05,.11-10.11,.15-15.16,0-.76-.17-1.53-.31-2.29-.11-.62,.2-1,.71-.72,1.62,.88,3.29,.35,4.92,.28,3.7-.17,7.4-.33,11.07-.78,1.46-.18,2.4,.29,3.37,1.12,.54,.47,.69,1.01,.39,1.73-.22,.52-.32,1.11-.33,1.68-.03,2.35-.01,4.7-.01,7.06Zm-2.38,6.56c0-1.6,0-3.02,0-4.43,0-3.58-.02-7.16,.01-10.73,0-.73-.21-1.02-.94-.92-.22,.03-.45,0-.68,0-4.21,.24-8.42,.51-12.63,.71-.79,.04-.86,.4-.86,1.03,0,3.9-.04,7.8-.07,11.69,0,1.02,0,2.04,0,3.14,2.38-.12,4.67-.23,7.27-.36-1.6-1.16-.6-2.61-.85-3.73-1.5,.8-2.9,1.58-4.34,2.29-.31,.15-.75,.02-1.13,.01,.21-.3,.36-.68,.63-.9,1.25-1.01,2.53-1.97,3.79-2.97,.24-.19,.42-.48,.62-.72-.07-.08-.14-.16-.21-.23-.39,.22-.76,.53-1.18,.62-.35,.07-1.05-.05-1.1-.23-.37-1.27-.61-2.57-.93-4.02,.71,.14,1.25,.37,1.76,.33,2.11-.18,4.22-.41,6.33-.68,.78-.1,2.26,.72,1.98,1.18-.48,.79-.57,1.54-.45,2.39,.01,.08-.01,.16-.02,.24,.19,.13,.38,.21,.51,.34,.22,.25,.58,.55,.56,.8-.02,.23-.45,.48-.75,.61-.48,.21-1.01,.33-1.73,.56,1.47,.75,2.77,1.41,4.2,2.14-1.7,1.06-3.37,.92-4.46-.17-.69-.69-1.39-1.38-2.16-2.14-.08,1.52-.16,2.87-.23,4.14h7.06Zm-10.27-7.17c1.48-.13,2.94-.3,4.41-.38,.82-.05,.91-.48,.84-1.2-1.56,.14-3.06,.29-4.55,.39-.72,.05-.99,.34-.69,1.19Zm6.39,.74c-.81,.06-1.6,.1-2.38,.18-.17,.02-.43,.18-.47,.32-.03,.15,.11,.4,.25,.53,1.05,.95,2.19,.52,2.6-1.03Z"/><path class="cls-1" d="M27.86,15.86c-.29-3.14-.56-6.28-.88-9.42-.05-.53-.28-1.05-.46-1.57-.21-.61-.08-.95,.64-.86,5.06,.57,10.06-.37,15.09-.64,1.57-.09,2.59,.33,3.54,1.31,.25,.26,.4,.76,.36,1.12-.19,1.59-.5,3.16-.69,4.74-.25,2.08-.42,4.16-.64,6.24-.04,.35-.11,.7-.2,1.04-.35,1.41-1.1,1.63-2.16,.66-.17-.15-.44-.27-.66-.27-3.6,.09-7.21,.18-10.81,.32-.3,.01-.68,.27-.86,.53-.53,.75-1.34,.83-1.73-.04-.43-.97-.58-2.06-.85-3.09,.1-.02,.2-.04,.3-.06Zm15.04-4.21h-5.56v4.48h5.11c.15-1.54,.3-2.97,.45-4.48Zm.36-6c-1.9,0-3.66-.01-5.42,.02-.17,0-.47,.29-.47,.45-.04,1.21-.02,2.42-.02,3.68,1.94-.12,3.8-.24,5.69-.36,.07-1.22,.15-2.53,.22-3.8Zm-13.35,6.48c.1,1.59,.2,2.99,.29,4.45,1.49-.07,2.9-.13,4.3-.23,.19-.01,.53-.24,.54-.38,.04-1.37,.02-2.74,.02-4.22-1.79,.13-3.42,.25-5.16,.37Zm-.1-1.86c1.67-.1,3.21-.19,4.74-.31,.15-.01,.41-.26,.42-.4,.03-1.24,.02-2.48,.02-3.76-1.87,.15-3.58,.28-5.36,.42,.06,1.36,.12,2.62,.19,4.05Z"/><path class="cls-1" d="M66.8,8.53c.71,.08,1.44,.08,2.12,.29,.29,.09,.44,.61,.65,.94-.32,.17-.63,.45-.96,.48-1.96,.16-3.92,.24-5.88,.4-2.18,.18-4.35,.42-6.29,.61-.13,1.12-.25,2.08-.37,3.11,2.07-.23,4.21-.44,6.35-.71,1.56-.19,3.11-.47,4.67-.67,.33-.04,.74,.03,1.02,.21,.4,.25,.72,.65,1.07,.98-.42,.19-.83,.45-1.27,.55-.49,.12-1.02,.11-1.71,.17,.47,.32,.82,.52,1.13,.77,.68,.54,.65,.89-.13,1.25-.58,.26-1.19,.48-2.11,.84,1.75,.79,3.25,1.5,4.77,2.15,.8,.34,1.64,.58,2.44,.89,.18,.07,.42,.29,.41,.43,0,.16-.24,.41-.41,.44-2.03,.38-4.01,1.03-5.89-.72-1.78-1.66-3.82-3.05-5.74-4.56-.09-.07-.14-.19-.21-.3q.97-.55,3.81,.94c.45-.62,.91-1.26,1.37-1.9l-.21-.23c-2.17,.23-4.34,.47-6.61,.71,1.15,1.28-.09,2.65,.47,4.02,1.06-.29,2.15-.62,3.26-.9,.24-.06,.52,.02,.79,.04-.11,.24-.16,.57-.35,.7-1.42,.99-2.86,1.97-4.34,2.88-.22,.13-.81,0-1-.22-.58-.65-1.08-1.27-.7-2.38,.35-1.02,.31-2.25,.13-3.34-.08-.5-.88-.88-1.46-1.41-.22,.42-.42,.79-.61,1.18-.97,1.97-2.46,3.45-4.3,4.59-.23,.14-.57,.11-.86,.16,.09-.3,.1-.69,.29-.9,1.84-2.02,3.13-4.31,3.75-6.99,.19-.83,.37-1.63-.46-2.27-.19-.15-.24-.48-.41-.86,.81-.1,1.47-.19,2.13-.25,3.69-.33,7.38-.65,11.06-.98,.21-.02,.41-.12,.62-.18l-.03,.02Z"/><path class="cls-1" d="M5.81,12.53c-1.17,1.06-2.13,1.96-3.14,2.81-.49,.41-1.05,.75-1.63,1.03-.3,.14-.7,.06-1.05,.08,.16-.31,.25-.71,.5-.93,1.85-1.69,3.28-3.69,4.56-6.09-.88,.16-1.59,.28-2.29,.41-1.31,.24-1.78-.05-2.37-1.54,1.75-.27,3.47-.54,5.25-.81v-2.8c-1.36,.16-2.59,.81-3.9,.67-.03-.12-.07-.24-.1-.36,.28-.17,.54-.35,.83-.5,1.28-.68,2.59-1.29,3.82-2.05,.53-.33,.83-.99,1.29-1.46,.18-.19,.49-.26,.75-.38,.04-.02,.13,.03,.17,.07,.62,.56,1.24,1.13,1.87,1.7-.58,.4-1.14,.81-1.74,1.18-.27,.17-.58,.26-.74,.33v3.18c.38-.08,.66-.18,.94-.19,.49-.01,1.03-.08,1.45,.1,.35,.15,.55,.63,.82,.97-.35,.23-.67,.55-1.05,.67-.55,.17-1.15,.13-1.71,.28-.23,.06-.38,.38-.57,.59,.19,.17,.36,.41,.58,.5,.48,.18,1.01,.22,1.47,.43,.4,.18,.79,.46,1.07,.79,.44,.53,.46,1.14-.04,1.66-.51,.52-1.05,.23-1.47-.12-.51-.42-.92-.96-1.37-1.44-.09,.04-.19,.08-.28,.12,0,1.08,0,2.16,0,3.23,0,1.8-.01,3.61-.03,5.41,0,.32,.03,.69-.11,.95-.2,.36-.51,.81-.85,.9-.27,.07-.81-.29-.96-.59-.29-.59-.55-1.28-.52-1.91,.12-2.24,.37-4.48,.58-6.88Z"/><path class="cls-1" d="M66.83,8.51c-2.1-.62-4.23-.34-6.36-.19-.9,.07-1.8,.14-2.69,.24-.25,.03-.59,.07-.7,.23-.35,.52-.84,.77-1.29,.4-.4-.33-.71-.9-.82-1.42-.25-1.19-.35-2.41-.54-3.62-.06-.38-.23-.74-.31-1.11-.06-.26-.06-.54-.09-.81,.28-.02,.55-.07,.82-.05,1.19,.08,2.37,.17,3.74,.27-.21-.87-.35-1.45-.49-2.02,1.53-.42,2.49,.21,2.46,1.57,1.69,.23,1.71,.21,1.51-1.87,1.47-.45,2.33,.18,2.19,1.71,.45-.05,.93,.01,1.32-.15,1.2-.53,2.05,.17,2.9,.77,.25,.18,.39,.75,.31,1.07-.32,1.23-.71,2.44-1.15,3.64-.18,.49-.54,.91-.81,1.36,0,0,.03-.02,.03-.02Zm-1.17-1.83c.08-.45,.14-.82,.21-1.21-2.11-.08-2.19-.02-1.92,1.27,.37,0,.75,0,1.13,0,.16,0,.31-.03,.58-.06Zm-5.3,.18c1.7,.22,1.9,.07,1.68-1.26-.55,.05-1.1,.1-1.68,.16v1.1Zm-3.44-.73c-.12,1.27,.07,1.36,1.7,.86,.11-1.17-.04-1.24-1.7-.86Zm7.12-1.99h2.03c.01-.28,.03-.61,.05-.94-1.97-.14-2.11-.08-2.07,.94Zm-5.53-.5c-.73,.09-1.35,.17-2.07,.26,.09,.36,.17,.64,.25,.97,.65-.06,1.21-.12,1.81-.17v-1.05Zm3.66-.33c-.69,.09-1.25,.16-1.87,.23,.03,.35,.06,.61,.09,.95,.64-.05,1.2-.1,1.77-.15v-1.03Z"/><path class="cls-1" d="M11.09,7.13c.38,0,.61-.05,.81,0,2.62,.72,5.14,.01,7.66-.52,.69-.15,1.96,.42,2.63,1.27,.48,.61,.21,1.07-.05,1.73-.6,1.55-.95,3.19-1.38,4.8-.03,.12,.09,.29,.16,.42,.57,.96,.48,1.21-.65,1.3-1.67,.14-3.34,.17-5,.32-.32,.03-.62,.36-.92,.57-.27,.19-.54,.56-.79,.54-.32-.02-.74-.27-.9-.55-.23-.4-.33-.91-.36-1.37-.18-2.81-.12-5.66-1.23-8.51Zm8.33,1.53c-1.87,.19-3.57,.37-5.35,.55,.11,1.87,.22,3.65,.33,5.49,1.51-.11,2.87-.22,4.29-.32,.25-1.91,.48-3.74,.74-5.72Z"/><path class="cls-1" d="M56.97,12.06c2.08-.23,4.03-.44,5.96-.67,.54-.06,1.08-.22,1.62-.24,.46-.02,.95,0,1.37,.17,.25,.1,.38,.52,.56,.79-.27,.14-.52,.39-.8,.42-2.36,.28-4.73,.53-7.09,.79-.86,.09-1.28-.38-1.62-1.26Z"/><path d="M84.8,7.11c-1.91,.2-3.73,.38-5.61,.57,.29,.92,.68,1.36,1.63,1.26,2.56-.28,5.13-.5,7.69-.7,1.15-.09,2.32-.06,3.47-.15,.29-.02,.56-.3,.84-.47-.19-.27-.33-.7-.58-.79-.52-.17-1.1-.25-1.65-.22-1.24,.07-2.47,.24-3.68,.36-.22-.7-.07-.99,.57-.98,.64,.01,1.3,.03,1.93-.08,.44-.07,.84-.35,1.26-.54-.37-.3-.7-.7-1.12-.89-.31-.14-.75-.02-1.12,.01-.44,.04-.87,.13-1.29,.19-.21-1.09-1.23-1.57-2.5-1.26,.06,.48,.13,.96,.2,1.48-1.37,.13-2.62,.25-3.96,.37,.41,.92,.84,1.39,1.78,1.18,.68-.15,1.39-.14,2.15-.21v.85Z"/><path class="cls-1" d="M84.8,7.11v-.85c-.76,.07-1.48,.06-2.15,.21-.94,.21-1.37-.26-1.78-1.18,1.34-.13,2.59-.24,3.96-.37-.07-.52-.14-1-.2-1.48,1.27-.32,2.28,.17,2.5,1.26,.43-.06,.86-.15,1.29-.19,.38-.04,.81-.15,1.12-.01,.42,.19,.75,.58,1.12,.89-.42,.19-.82,.47-1.26,.54-.63,.11-1.28,.09-1.93,.08-.64-.01-.79,.28-.57,.98,1.21-.13,2.45-.29,3.68-.36,.55-.03,1.13,.04,1.65,.22,.25,.09,.39,.51,.58,.79-.28,.16-.55,.44-.84,.47-1.15,.09-2.32,.06-3.47,.15-2.57,.2-5.13,.42-7.69,.7-.95,.1-1.34-.34-1.63-1.26,1.89-.19,3.7-.38,5.61-.57Z"/></g></g></svg>