<?xml version="1.0" encoding="UTF-8"?><svg id="_レイヤー_2" xmlns="http://www.w3.org/2000/svg" width="355.35" height="68.39" viewBox="0 0 355.35 68.39"><defs><style>.cls-1{fill:#5e4a3e;}</style></defs><g id="_文字"><g><path class="cls-1" d="M56.43,4.71c.84-.09,.85,.66,.88,1.44,.1,2.59,.26,5.18,.31,7.77,.02,.75,.28,.84,.89,.74,2.06-.33,4.12-.78,6.2-.91,2.98-.18,5.94-.42,8.95,.27,1.5,.34,2.39,1.44,3.68,1.98,.48,.2,.58,1.44,.76,2.22,.1,.43-.13,.97,.02,1.36,.54,1.37,0,2.49-.56,3.7-.53,1.14-.96,2.37-1.15,3.61-.23,1.59-1.04,3.03-1.28,4.5-.25,1.54-1.53,2.66-1.36,4.29,.05,.47-.28,1.03-.56,1.47-.44,.69-.9,1.31-.66,2.21,.08,.28-.19,.64-.27,.97-.31,1.16-.6,2.31-.91,3.47-.08,.32-.13,.68-.29,.96-1.11,1.9-2.28,3.76-3.36,5.67-.19,.34,.09,1.06-.14,1.25-1.54,1.27-2.03,3.77-4.64,3.87,.16,.32,.26,.53,.42,.86-1.89,.47-3.69,.66-5.49-.27,.08-.44,.15-.81,.23-1.26-.32,.06-.56,.1-.93,.17,.16-.24,.27-.4,.44-.64-.37-.14-.73-.4-1.06-.37-1.48,.13-2.34-.66-2.95-1.86-.49-.97-.98-1.94-1.49-2.9-.14-.27-.3-.65-.52-.72-1.24-.36-.95-1.3-.9-2.16,.02-.37,.06-.74,0-1.1-.53-3.17-1.14-6.32-1.6-9.5-.13-.9,.17-1.86,.19-2.8,0-.31-.22-.86-.43-.91-.83-.19-1.7-.32-2.55-.31-1.63,.02-2.27,.41-3.4-.77,1.84-.25,3.33-1.15,4.65-2.32,.3-.27,.33-.84,.49-1.27-.43,.06-.91,0-1.28,.19-1.08,.53-2.01,1.25-3.22,1.66-2.34,.8-5.33,4.69-4.61,7.81,.59,2.53,.35,5.26,.47,7.67,.51,.43,.91,.77,1.51,1.27-.61,.17-.88,.24-1.07,.29,.3,1.64,.37,3.29,.92,4.76,.92,2.44,2.18,4.75,3.25,7.13,.13,.28,.02,.67,.02,1.12,1.28,.9,1.7,2.38,1.17,3.95-.19,.54-.03,1.2-.03,1.81-.22-.18-.51-.41-.79-.65-.28-.24-.55-.5-.83-.74,.05,.73,.06,1.45,.17,2.16,.03,.19,.33,.4,.55,.5,.89,.41,1.14,1.15,1.23,2.03-.76-.69-1.61-1.25-2.17-2.01-3.27-4.45-6.42-8.97-8.28-14.24-.56-1.59-1.29-3.13-2-4.67-.76-1.67-1.44-1.82-2.95-.79-.51,.35-1.09,.62-1.58,1-.89,.68-1.77,1.39-2.59,2.15-.17,.16-.08,.6-.08,.63-.9,.24-1.69,.5-2.5,.65-.43,.08-.9-.03-1.35-.06-1.45-.1-2.85,.77-4.37,.01-.43-.21-1.27,.39-1.81,.58-.64-.62-1.25-1.21-1.88-1.83-.41,.38-.66,.61-.9,.83,0-.09-.01-.19-.02-.28-.4-.06-.81-.07-1.2-.19-.24-.07-.47-.26-.62-.46-.85-1.15-2.22-1.13-3.4-1.54-.45-.16-.89-.44-1.26-.76-1.46-1.24-3.47-1.75-4.59-3.46-.75-1.15-1.34-2.33-1.19-3.77,.04-.41-.14-.83-.18-1.25-.08-.86-1.18-1.68-.1-2.57-.51-.59-.46-1.25-.2-1.91,.71-1.77,1.44-3.53,2.19-5.35,.41,.24,.7,.41,1.1,.64,.14-.38,.24-.69,.36-.99,.41-1.03,.79-1.09,1.76-.61,.41,.2,1.04,.08,1.53-.06,.47-.13,.9-.45,1.32-.72,.65-.41,1.17-.61,1.79,.17,.21,.26,1,.22,1.45,.08,.87-.26,2.01,.17,2.6-.9,.04-.08,.21-.15,.3-.13,1.84,.45,3.52-.35,5.18-.83,1.73-.5,3.65-.41,5.2-1.58,.33-.25,.93-.12,1.74-.2-.11-.78-.21-1.55-.32-2.32-.14-.92-.32-1.83-.44-2.74-.58-4.73-2.05-9.15-4.37-13.3,.74-.52,1.71-.82,2.48-1.56,.44-.42,1.48-.52,2.12-.33,.92,.27,1.71,.26,2.59,.01,.31-.09,.96,.08,1.04,.29,.44,1.11,1.18,1.69,2.36,1.76,.11,0,.21,.19,.46,.42-.52,.36-1,.68-1.58,1.07,3.07,2.76,2.1,6.54,3.21,9.68,.41,1.15,.54,2.4,.85,3.84,1.31-.35,2.54-.6,3.72-1.01,2.7-.93,5.39-1.88,8.03-2.95,.47-.19,.99-1.03,.97-1.55-.09-1.89-.3-3.8-.67-5.66-.54-2.75-.16-5.46,.12-8.17,.09-.92,.62-1.41,1.62-.99,.17,.07,.43,.12,.56,.04,1.57-1.05,3.31-.03,4.95-.42,.6-.14,1.14,.07,.98,.98-.07,.4,.22,.87,.34,1.31,.2,.74,.4,1.49,.63,2.35Zm-4.79,28.42c0,1.54-.27,3.31,.05,4.97,.95,4.81,2.37,9.41,7.71,11.25,.43,.15,1.14,.17,1.43-.09,1.16-1.05,2.28-2.17,3.28-3.37,.94-1.13,1.72-2.38,2.57-3.59,.13-.18,.23-.39,.32-.6,.94-2.36,1.89-4.71,2.81-7.08,.11-.28,.11-.62,.07-.92-.04-.28-.34-.58-.28-.8,.8-3.01,1.54-6,.95-9.19-.18-.95-.59-1.53-1.32-1.62-1.3-.16-2.65-.14-3.96,0-1.49,.17-2.95,.75-4.43,.8-1.43,.04-2.17,.73-2.62,1.86-.34,.85-.49,1.78-.73,2.67-.46,1.63-.85,3.29-1.43,4.88-.22,.6-.89,1.04-1.35,1.56,.07-.19,.14-.38,.21-.57-.37-.17-.74-.34-1.12-.51-.1,.46-.21,.92-.38,1.72-.64-.5-1.17-.91-1.77-1.38Z"/><path class="cls-1" d="M246.15,17.45c-.91,.04-1.38,.58-1.81,1.45-.41,.83-1.21,1.45-1.82,2.18-.47,.56-1.03,1.08-1.37,1.72-.67,1.29,.03,2.43,1.48,2.66,4.01,.64,8.02,1.26,12.01,1.99,1.86,.34,3.64,.6,5.57,.25,.92-.17,2.03,.56,3.01,.99,2.84,1.25,5.67,2.53,8.47,3.87,.84,.4,1.56,1.04,2.43,1.64-1.4,1.34-.53,3.71-2.81,4.26,.32,.39,.73,.67,.78,1.01,.1,.59,.21,1.24-.58,1.63-.34,.17-.52,.67-.87,1.15-3.28,.48-6.65-.4-10.04-.98-1.91-.33-3.82-.68-5.71-1.11-.83-.19-1.62-.6-2.4-.96-.8-.37-1.5-.21-2.31,.04-.83,.26-1.81,.35-2.65,.18-1.03-.21-2.01-.74-2.98-1.19-.33-.15-.64-.42-.86-.71-1.41-1.82-3.57-1.8-5.58-2.64-.07,.71-.18,1.13-.14,1.54,.25,2.45,.39,4.93,.84,7.34,.4,2.13,1.17,4.19,1.74,6.29,.1,.36,.01,.76,.01,1.23,1.35,.59,1.57,1.77,1.52,3.14-.03,1.03,.35,2.11,.14,3.08-.42,1.94-1.2,3.76-2.92,5.01-.38,.27-.59,.78-1.06,1.44-.66-.95-1.3-1.79-1.84-2.69-.81-1.35-1.61-2.72-2.31-4.13-.97-1.93-1.93-3.88-2.71-5.89-.26-.68,.07-1.59,.07-2.39,.01-4.18,.04-8.37,0-12.55-.04-3.2-.23-6.4-.25-9.6-.02-2.49,.16-4.98,.16-7.47,0-1.07-.32-2.15-.32-3.22-.01-2.23,.1-4.45,.14-6.68,.02-1.16-.69-2.23-.04-3.49,.86-1.68,2.98-3.21,4.85-3.16,.39,0,.79,.04,1.16-.03,2.96-.61,5.31,.75,6.8,2.96,1.08,1.6,2.43,3.3,2.46,5.51,.02,1.24,.44,2.47,.44,3.71,0,.83-.43,1.66-.71,2.65Z"/><path class="cls-1" d="M93.06,63.7c2.26-2.19,4.35-4.61,6.82-6.52,3.11-2.4,5.73-5.22,8.07-8.31,1.07-1.41,1.66-3.19,2.45-4.81,.17-.34,.2-.76,.37-1.1,1.61-3.17,1.65-6.54,1.44-9.98-.19-3.08-.26-6.17-.49-9.25-.11-1.48-.45-2.94-.72-4.4-.05-.28-.27-.53-.51-.97-.66,.46-1.32,.8-1.81,1.3-3.41,3.48-6.38,7.28-8.44,11.72-.37,.79-.69,1.65-.78,2.51-.14,1.3,0,2.63-.12,3.93-.1,1.06-.42,2.09-.64,3.14-.05,.25-.08,.52-.18,.76-.24,.52-.41,1.31-.82,1.47-.58,.23-1.26,.77-2.08-.03-.53-.52-1.62-.44-2.41-.73-1.96-.72-3.84-1.39-5.35-3.14-1.71-1.99-2.21-4.31-2.89-6.64-.07-.24,0-.54,.06-.8,.75-3.04,1.56-6.07,2.25-9.13,.55-2.42,.95-4.87,1.44-7.31,.43-2.12,.81-4.26,1.4-6.34,.26-.92,1-1.71,1.56-2.54,.43-.64,.91-1.24,1.36-1.87,.51-.7,1.06-.67,1.63-.09,.93,.96,1.68,2.26,2.81,2.84,1.71,.88,1.28,2.78,2.36,3.87-.34,2.02,.55,4.13-.45,6.1-1.23,2.43-2.38,4.89-2.32,7.71-1.02,1.03-.61,2.28-.42,3.44,.09,.56,.52,1.51,.78,1.51,.65-.01,1.53-.29,1.89-.78,1.46-2,2.78-4.1,4.13-6.18,1.28-1.97,2.54-3.96,3.77-5.96,.4-.66,.76-1.37,.95-2.11,.62-2.43,4.26-3.7,6.37-2.06,.18,.14,.38,.29,.59,.36,1.05,.34,2.08,.65,2.25,1.99,.13,1.01,.45,2.01,.44,3.02-.01,2.71-.21,5.41-.23,8.12-.01,1.93,.13,3.87,.24,5.8,.04,.67,.18,1.33,.3,1.99,.39,2.24-.34,4.51,.45,6.79,.41,1.18,.02,2.65-.05,3.98-.05,.84-.1,1.71-.3,2.52-.19,.79-.47,1.6-.91,2.26-.87,1.32-1.79,2.63-2.88,3.77-.63,.66-1.56,1.2-2.45,1.4-.7,.16-1.56-.21-2.32-.46-1.21-.4-3.61,.35-4.38,1.37-.2,.26-.61,.39-.95,.49-1.94,.55-3.23,2-4.68,3.25-.68,.58-1.47,1.04-2.21,1.56-.53,.37-1.08,.71-1.6,1.09-.82,.61-1.63,1.25-2.44,1.87-.12-.15-.23-.29-.35-.44Z"/><path class="cls-1" d="M165.21,21.84c.62,.35,1.13,.63,1.69,.94-.4,.6-.8,1.19-1.16,1.74,.53,.04,1.19,.08,1.86,.13-.01,.05-.02,.1-.03,.15-1.16,.07-2.33,.05-3.46,.23-2.61,.42-5.19,.94-7.79,1.42-.04,0-.08,0-.11,.02-.54,.29-1.45,.5-1.54,.89-.25,1.04-.71,2.17,.52,3.16,1.4,1.12,1.9,2.86,2.63,4.48,1.11,2.48,.62,5.15,1.45,7.62,.13,.4,.2,.84,.41,1.2,.81,1.36,.76,2.7-.29,3.84-1.36,1.47-1.61,3.28-1.97,5.11-.29,1.48-.68,2.93-1.24,4.31-.23-2.41-.44-4.81-.69-7.22-.11-1.05-.56-1.72-1.81-1.54-1.43,.2-2.88,.35-4.32,.42-.8,.04-1.62-.06-2.41-.22-1.19-.24-2.39-.51-3.54-.91-.5-.17-.83-.8-1.31-1.06-1.76-.96-3.28-2.25-4.13-4.04-.37-.77-.09-1.95,.14-2.88,.19-.79,.69-1.52,1.13-2.22,.87-1.39,1.78-2.76,2.71-4.12,.62-.92,1.31-1.79,1.94-2.71,1.08-1.58,2.8-1.66,4.44-1.82,.86-.08,1.75,.13,2.63,.14,.28,0,.56-.24,.84-.37-.21-.4-.37-1.12-.63-1.16-1.14-.18-2.31-.2-3.47-.21-2.74-.01-5.47,.02-8.21,.02-.39,0-.81-.14-1.16-.03-1.69,.56-3.22-.19-4.83-.35-2.06-.21-3.37-1.28-4.69-2.56-1.13-1.11-2.35-2.16-3.34-3.39-1.7-2.12-1.42-4.14,.46-6.03,.35-.35,1.11-.58,1.59-.47,.9,.2,1.79,.59,2.57,1.09,1.5,.96,2.93,1.96,4.83,1.99,.62,0,1.23,.47,1.86,.5,3.63,.22,7.26,.41,10.9,.53,1.02,.03,2.06-.16,3.08-.33,.21-.04,.49-.41,.53-.65,.14-1.03,.22-2.06,.27-3.09,.05-1.05,.02-2.09,.07-3.14,.06-1.2,.58-2.12,1.81-2.37,.55-.11,1.33-.14,1.7,.16,.38,.31,.6,1.11,.51,1.64-.2,1.25-.66,2.46-.94,3.7-.67,3.03-.17,3.51,2.79,2.8,.56-.13,1.1-.47,1.65-.49,.84-.03,1.79-.09,2.51,.26,1.68,.8,3.26,1.79,4.84,2.78,.49,.3,.65,.77-.06,1.15-.42,.23-.77,.6-1.21,.96Zm-19.64,20.05c.1,0,.19,0,.29,.01,.06,.79-.01,1.62,.21,2.36,.15,.5,.72,1.24,1.08,1.23,1.93-.04,3.96,.13,5.52-1.45,.44-.44,.48-.78,.18-1.3-.61-1.06-1.07-2.22-1.76-3.22-.55-.81-1.24-1.64-2.07-2.09-.61-.33-1.55-.07-2.5-.07-.37,.7,1.11,1.77-.14,2.61-.16-.35-.3-.64-.46-.97-1.06,1.59-1.31,3.78-.54,5.14,.07-.84,.12-1.54,.18-2.24Z"/><path class="cls-1" d="M332.11,19.82c-.43,.52-.84,1.05-1.28,1.55-.74,.84-1.52,1.64-2.24,2.49-1.12,1.33-.69,2.52,1,2.81,3.24,.55,6.49,1.02,9.71,1.65,1.56,.3,3.06,.62,4.64,.17,.35-.1,.84,.09,1.21,.26,2.87,1.29,5.74,2.59,8.59,3.94,.57,.27,1.03,.77,1.61,1.21-1.07,1.1-.42,2.99-2.29,3.54,1.93,1.42-.29,2.06-.42,3.11-3.54,.4-6.92-.65-10.35-1.18-1.11-.17-2.21-.4-3.31-.66-.47-.11-.88-.43-1.34-.58-.46-.14-1.08-.42-1.4-.23-1.76,1.02-3.27,.15-4.79-.51-.53-.23-.96-.71-1.42-1.09-.15-.12-.24-.35-.4-.41-1.24-.49-2.5-.95-3.92-1.49-.06,.61-.18,1.02-.13,1.41,.31,2.53,.04,5.13,1.3,7.56,.6,1.15,.58,2.63,.88,3.94,.08,.36,.33,.67,.49,1.01,.24,.51,.58,1.01,.67,1.54,.16,.94,.26,1.92,.22,2.87-.08,1.75-1.11,3.09-2.17,4.38-.3,.37-.69,.67-1.17,1.12-.3-.32-.8-.7-1.09-1.19-1.17-2-2.31-4.01-3.4-6.06-.92-1.72-1.33-3.47-1.14-5.55,.3-3.31,.05-6.66,.03-10-.02-3.05-.03-6.09-.06-9.14,0-.62-.14-1.23-.16-1.85-.02-.8,.02-1.6,.04-2.4,0-.12,.05-.23,.04-.35-.15-3.29-.34-6.57-.41-9.86-.01-.72,.24-1.63,.71-2.14,.95-1.02,1.99-2.11,3.65-1.86,.26,.04,.54-.01,.8-.05,2.62-.4,5,1.08,6.29,3.46,.77,1.42,1.42,2.85,1.68,4.4,.16,.96-.06,1.98-.14,2.97-.04,.42-.17,.83-.26,1.24-.09-.03-.19-.05-.28-.08Z"/><path class="cls-1" d="M298.97,24.37c-1.24,.6-2.48,1.2-3.72,1.81-.17,.08-.31,.26-.48,.29-2.77,.53-5.03,2.09-7.37,3.52-1.22,.74-2.56,1.28-4.05,.72-.07-.03-.18-.07-.22-.04-1.51,1.08-1.99-.48-2.87-1.08-1.43-.98-2.96-1.82-4.36-2.83-1.18-.85-2.35-1.76-3.34-2.82-1.36-1.44-2.02-3.19-1.4-5.21,.07-.21,.16-.47,.32-.59,1.12-.89,1.71-2.81,3.5-2.39,1.49,.34,3.27-.26,4.48,1.19,.1,.12,.36,.14,.54,.15,2.06,.02,4.12,.04,6.18,.02,3.13-.03,6.28,.11,9.39-.19,3.37-.33,6.48,.82,9.72,1.21,1.45,.18,2.51,1.17,3.32,2.37,.37,.55,.75,1.09,1.03,1.69,.27,.58,.41,1.22,.6,1.83-.09,.04-.19,.08-.28,.13,.38,.14,.75,.29,1.15,.44-.5,.38-1.19,.64-1.29,1.04-.13,.53,.19,1.18,.33,1.86-.45,.12-.81,.26-1.18,.31-1.58,.21-2.99,.69-4.01,2.06-.27,.36-.82,.52-1.25,.76-.1,.05-.32,.07-.32,.09,.06,1.24-1.24,1.04-1.75,1.67-1.77,2.15-3.55,4.28-5.32,6.43-.32,.39-.6,.81-.85,1.25-.91,1.6-.65,2.56,.92,3.6,.21,.14,.38,.36,.52,.57,.58,.86,1.25,1.67,1.67,2.6,.45,.99,.8,2.08,.9,3.16,.03,.38-.82,.83-1.33,1.3,.15,1.24-.84,2.16-2.21,1.76-3.95-1.15-7.21-3.28-9.47-6.82-1.12-1.75-2.22-3.54-3.58-5.09-1.56-1.79-1.34-3.94-1.61-5.99-.1-.76,.63-1.29,1.44-1.11,.81,.18,1.66,.45,2.35,.9,1.35,.87,2.61,1.89,3.9,2.87,1.03,.78,2.03,.66,2.68-.39,.69-1.11,1.18-2.37,2-3.37,2.22-2.72,3.38-6.04,5.34-8.91,.08-.12,.1-.29,.15-.44-.05-.11-.11-.21-.16-.32Z"/><path class="cls-1" d="M192.38,29.95c1.2-.58,2.48-1.16,3.74-1.8,.82-.42,.77-1.07,.33-1.74-.45-.68-.92-1.34-1.51-2.2-.31,.48-.59,.93-.88,1.38-.14-.1-.27-.2-.41-.3,.24-.43,.42-.91,.74-1.26,.46-.51,.49-1.02,.01-1.4-.32-.25-.91-.42-1.26-.3-.59,.2-1.09,.65-1.62,1.03-1.32,.94-2.61,1.94-3.97,2.84-.98,.65-2.02,1.03-3.3,1.12-1.19,.08-2.34,.27-3.46-.17-.98-.39-1.96-.84-2.86-1.4-1.04-.64-2.22-1.24-2.93-2.17-.85-1.12-1.38-2.52-1.82-3.88-.47-1.46,.67-2.72,2.23-2.71,1.39,.01,2.78,0,4.16,.05,1.85,.08,3.52-.53,5.24-1.1,1.67-.56,3.46-.78,5.2-1.09,2.42-.44,1.93-.43,2.16-2.7,.15-1.5,.49-2.98,.75-4.47l.53-.05c.24,.52,.5,1.04,.73,1.56,.47,1.08,.92,2.18,1.39,3.26,.3,.69,.85,.83,1.53,.66,.74-.19,1.48-.4,2.23-.57,1.09-.25,2-.07,3.03,.57,1.05,.66,1.81,1.32,2.17,2.49,.04,.13,.44,.14,.78,.24-.29,.19-.71,.33-.73,.5-.24,2.43-2.45,2.12-3.89,2.74-1.54,.66-1.87,.74-1.59,2.35,.19,1.13,.76,2.2,1.16,3.3,.13-.01,.27-.03,.4-.04,.39-.52,.78-1.04,1.34-1.78,.28,.69,.62,1.14,.6,1.56-.05,.94,.27,1.74,.48,2.62,.53,2.28,1.17,4.39,3.01,6.04,.77,.69,1.33,1.72,1.77,2.69,.57,1.27-.61,3.3-2.08,3.72-.6,.17-1.25,.16-1.87,.28-.38,.07-.76,.19-1.1,.35-.81,.4-1.58,.9-2.41,1.26-.8,.35-1.66,.58-2.48,.87-.79,.29-1.58,.6-2.55,.69,.2-.22,.36-.53,.61-.64,2.5-1.09,4.38-2.95,6.19-4.91,.56-.6,.5-1.16,0-1.74-.15-.17-.27-.38-.41-.56-1.94-2.45-1.71-1.93-4.12-.66-1.42,.75-3.33,1.16-4.88,.9-1.67-.27-2.86-1.79-3.07-3.67-.06-.52,0-1.11,.18-1.59,.56-1.37,1.41-1.47,2.52-.17Z"/><path class="cls-1" d="M191.79,45.33c.28,.39,.4,.7,.63,.86,2,1.4,3.57,3.13,4.21,5.54,.15,.57,.16,1.33-.1,1.83-.7,1.39-1.53,2.33-3.46,2.61-2.69,.39-5.25,.43-7.85-.11-.37-.08-.87-.51-.95-.86-.24-1.08-1.32-.7-1.87-1.22-1.04-1-2.16-1.7-2.25-3.55-.08-1.51,.26-2.87,.41-4.29,.11-1,2.38-2.33,3.52-2.07,1.38,.32,2.75,.7,4.13,1.03,.2,.05,.45-.11,.65-.07,.5,.1,1.02,.21,1.48,.43,.52,.24,.99,.68,1.46-.13Z"/><path class="cls-1" d="M207.18,16.02c.15-1.44,.77-2.87,2.03-3.43,1.25-.56,2.67-.57,4.16,.25,1.83,1.01,2.12,2.62,2.57,4.26,.12,.44,0,.97-.12,1.43-.33,1.4,.21,2.99-.89,4.21-.21,.23-.52,.51-.79,.52-.89,.04-1.79-.05-2.68-.08-1.29-.04-1.86-.51-2.22-1.78-.11-.4-.27-.81-.5-1.16-.29-.45-.84-.78-.99-1.25-.3-.95-.39-1.96-.58-2.98Z"/><path class="cls-1" d="M216.74,14.31c.05-1.68,.64-2.66,1.66-2.89,1.65-.36,2.45-.17,3.39,1.05,1.16,1.51,.95,2.99,.58,4.55-.32,1.37-1.67,1.8-2.88,1.04-1.53-.97-2.52-2.28-2.75-3.75Z"/><g><path class="cls-1" d="M354.6,53.77c0,3.13-2.45,5.57-5.61,5.58-3.22,.01-5.75-2.47-5.72-5.61,.04-3.14,2.48-5.49,5.69-5.48,3.23,0,5.64,2.36,5.64,5.51Zm-5.63,4.35c2.36,0,4.23-1.93,4.21-4.34-.02-2.43-1.87-4.33-4.22-4.35-2.42-.01-4.3,1.94-4.25,4.41,.05,2.45,1.88,4.28,4.27,4.27Z"/><path class="cls-1" d="M350.77,54.15c.2,.59,.5,1.49,.81,2.4-1.08,.39-1.57,.08-1.7-.95-.12-.97-.75-1.26-1.73-1.07-.03,.69-.06,1.34-.09,2.04-1.06,.38-1.49,.06-1.29-1.44,.13-.92,.15-1.85,0-2.77-.16-1.03,.07-1.47,.89-1.46,.58,0,1.16-.03,1.75-.02,.82,.02,1.68,.25,1.84,1.11,.11,.6-.27,1.29-.48,2.16Zm-2.61-.55c.64-.22,1.17-.37,1.65-.61,.09-.05,.08-.65-.03-.7-.47-.23-1-.35-1.61-.55v1.86Z"/></g></g></g></svg>