<?xml version="1.0" encoding="UTF-8"?><svg id="_レイヤー_2" xmlns="http://www.w3.org/2000/svg" width="356.56" height="68.62" viewBox="0 0 356.56 68.62"><defs><style>.cls-1{fill:#fff;}</style></defs><g id="_文字"><g><path class="cls-1" d="M56.62,4.73c.84-.09,.85,.66,.88,1.44,.1,2.6,.26,5.2,.31,7.8,.02,.75,.28,.84,.9,.75,2.07-.33,4.13-.78,6.22-.91,2.99-.18,5.96-.42,8.98,.27,1.5,.34,2.4,1.44,3.69,1.98,.49,.2,.58,1.44,.76,2.23,.1,.44-.13,.97,.02,1.37,.55,1.38,0,2.5-.56,3.71-.53,1.14-.97,2.38-1.15,3.62-.23,1.59-1.04,3.04-1.28,4.52-.25,1.55-1.54,2.67-1.36,4.3,.05,.47-.28,1.03-.56,1.48-.44,.69-.91,1.31-.66,2.22,.08,.28-.19,.64-.27,.97-.31,1.16-.6,2.32-.91,3.48-.09,.32-.13,.68-.29,.96-1.12,1.9-2.29,3.77-3.37,5.69-.19,.34,.09,1.07-.14,1.26-1.55,1.28-2.04,3.78-4.66,3.89,.16,.32,.26,.53,.42,.87-1.89,.47-3.7,.66-5.51-.27,.08-.44,.15-.81,.23-1.26-.32,.06-.57,.1-.93,.17,.16-.24,.27-.4,.44-.64-.37-.14-.73-.4-1.06-.37-1.49,.13-2.35-.66-2.96-1.87-.49-.97-.99-1.94-1.5-2.91-.14-.27-.3-.66-.53-.72-1.25-.36-.95-1.3-.9-2.17,.02-.37,.06-.75,0-1.11-.53-3.18-1.14-6.34-1.6-9.53-.13-.91,.17-1.87,.19-2.81,0-.31-.22-.86-.44-.91-.83-.19-1.71-.32-2.56-.31-1.63,.02-2.27,.41-3.41-.78,1.85-.25,3.34-1.16,4.67-2.33,.3-.27,.34-.84,.49-1.28-.43,.06-.92,0-1.29,.19-1.08,.54-2.02,1.25-3.23,1.66-2.35,.8-5.34,4.7-4.62,7.84,.59,2.54,.35,5.27,.48,7.7,.52,.44,.92,.77,1.51,1.28-.61,.17-.88,.24-1.08,.29,.3,1.64,.37,3.3,.93,4.77,.93,2.44,2.18,4.76,3.26,7.15,.13,.28,.02,.67,.02,1.12,1.28,.9,1.71,2.39,1.17,3.97-.19,.55-.03,1.21-.03,1.81-.22-.18-.51-.41-.79-.65-.28-.24-.56-.5-.83-.74,.05,.73,.06,1.46,.17,2.17,.03,.19,.33,.4,.56,.5,.89,.42,1.14,1.16,1.23,2.04-.76-.7-1.61-1.25-2.18-2.02-3.28-4.46-6.44-9-8.3-14.29-.56-1.6-1.3-3.15-2-4.69-.77-1.67-1.45-1.83-2.96-.79-.52,.35-1.09,.62-1.59,1-.9,.68-1.78,1.39-2.6,2.16-.17,.16-.08,.6-.08,.63-.9,.24-1.7,.5-2.51,.65-.43,.08-.9-.03-1.35-.06-1.45-.11-2.86,.77-4.39,.01-.43-.21-1.27,.39-1.82,.58-.64-.62-1.25-1.21-1.89-1.83-.42,.38-.66,.61-.91,.84,0-.09-.01-.19-.02-.28-.4-.06-.82-.07-1.2-.19-.24-.07-.48-.26-.63-.47-.86-1.16-2.22-1.13-3.41-1.55-.45-.16-.89-.44-1.26-.76-1.47-1.24-3.48-1.76-4.6-3.47-.76-1.16-1.34-2.34-1.2-3.78,.04-.41-.14-.83-.18-1.25-.08-.86-1.18-1.68-.1-2.58-.51-.59-.46-1.26-.2-1.91,.71-1.77,1.44-3.54,2.2-5.37,.41,.24,.7,.41,1.11,.65,.14-.38,.24-.69,.36-.99,.41-1.03,.79-1.09,1.77-.61,.41,.2,1.05,.08,1.53-.06,.47-.13,.9-.45,1.33-.72,.65-.41,1.17-.61,1.79,.17,.21,.26,1,.22,1.46,.08,.88-.26,2.01,.17,2.61-.91,.04-.08,.21-.15,.3-.13,1.85,.45,3.53-.36,5.2-.83,1.74-.5,3.66-.41,5.22-1.58,.33-.25,.93-.12,1.75-.2-.11-.78-.21-1.55-.33-2.33-.14-.92-.33-1.83-.44-2.75-.58-4.74-2.06-9.18-4.38-13.35,.75-.52,1.71-.82,2.49-1.56,.44-.42,1.48-.53,2.13-.33,.92,.27,1.71,.26,2.6,.01,.31-.09,.96,.08,1.05,.29,.44,1.12,1.18,1.69,2.37,1.77,.11,0,.21,.19,.46,.42-.52,.36-1,.68-1.59,1.08,3.08,2.77,2.11,6.56,3.22,9.71,.41,1.16,.54,2.41,.85,3.85,1.31-.35,2.55-.61,3.73-1.01,2.7-.93,5.41-1.88,8.05-2.96,.47-.19,1-1.04,.97-1.56-.09-1.9-.3-3.81-.67-5.68-.54-2.76-.16-5.48,.12-8.2,.09-.93,.62-1.41,1.63-.99,.17,.07,.44,.12,.56,.04,1.58-1.06,3.32-.03,4.96-.42,.61-.14,1.14,.08,.98,.98-.07,.4,.22,.87,.34,1.31,.2,.75,.4,1.49,.64,2.36Zm-4.81,28.51c0,1.55-.28,3.33,.05,4.99,.95,4.82,2.38,9.45,7.73,11.28,.43,.15,1.15,.17,1.43-.09,1.17-1.05,2.29-2.17,3.29-3.38,.94-1.13,1.73-2.39,2.58-3.6,.13-.18,.23-.39,.32-.6,.95-2.37,1.9-4.73,2.82-7.1,.11-.28,.11-.62,.07-.93-.04-.28-.34-.58-.28-.81,.8-3.02,1.55-6.02,.95-9.22-.18-.95-.6-1.53-1.32-1.62-1.31-.16-2.66-.14-3.97,0-1.49,.17-2.96,.76-4.44,.8-1.43,.04-2.17,.73-2.63,1.87-.34,.85-.49,1.79-.74,2.68-.46,1.64-.85,3.3-1.43,4.89-.22,.6-.89,1.05-1.35,1.56,.07-.19,.14-.38,.21-.57-.37-.17-.75-.34-1.12-.51-.1,.46-.21,.93-.38,1.73-.64-.5-1.17-.91-1.77-1.38Z"/><path class="cls-1" d="M246.99,17.51c-.91,.04-1.39,.59-1.82,1.45-.41,.83-1.21,1.46-1.83,2.19-.47,.56-1.04,1.08-1.37,1.72-.68,1.29,.03,2.44,1.49,2.67,4.02,.64,8.05,1.27,12.05,2,1.86,.34,3.65,.6,5.59,.25,.92-.17,2.04,.56,3.02,.99,2.85,1.26,5.69,2.54,8.5,3.88,.84,.4,1.56,1.04,2.43,1.64-1.41,1.35-.53,3.72-2.82,4.27,.32,.4,.73,.67,.79,1.01,.1,.59,.21,1.25-.58,1.64-.34,.17-.52,.67-.87,1.15-3.29,.48-6.67-.4-10.07-.98-1.92-.33-3.83-.68-5.72-1.12-.83-.19-1.62-.6-2.41-.97-.8-.37-1.51-.21-2.32,.04-.83,.26-1.81,.35-2.66,.18-1.04-.21-2.01-.75-2.99-1.2-.33-.15-.64-.42-.87-.71-1.41-1.82-3.59-1.8-5.6-2.65-.07,.71-.18,1.14-.14,1.55,.25,2.46,.39,4.94,.84,7.37,.4,2.14,1.17,4.2,1.74,6.31,.1,.36,.01,.76,.01,1.24,1.35,.59,1.57,1.78,1.53,3.15-.03,1.03,.35,2.12,.14,3.09-.42,1.95-1.2,3.77-2.93,5.02-.38,.28-.59,.78-1.06,1.44-.66-.96-1.3-1.79-1.84-2.7-.81-1.36-1.61-2.73-2.32-4.14-.97-1.94-1.93-3.89-2.71-5.91-.26-.69,.07-1.59,.07-2.4,.01-4.2,.04-8.4,0-12.59-.04-3.21-.23-6.42-.25-9.63-.02-2.5,.16-5,.16-7.5,0-1.08-.32-2.15-.33-3.23-.01-2.23,.1-4.47,.14-6.7,.02-1.16-.69-2.24-.04-3.5,.86-1.69,2.99-3.22,4.87-3.17,.39,0,.79,.04,1.16-.03,2.97-.61,5.33,.75,6.83,2.97,1.09,1.61,2.44,3.31,2.47,5.53,.02,1.24,.44,2.48,.44,3.72,0,.83-.43,1.67-.72,2.66Z"/><path class="cls-1" d="M93.37,63.92c2.27-2.2,4.36-4.62,6.85-6.54,3.12-2.41,5.75-5.24,8.09-8.34,1.07-1.42,1.66-3.2,2.45-4.82,.17-.35,.2-.76,.37-1.1,1.62-3.18,1.66-6.57,1.44-10.01-.19-3.09-.26-6.2-.49-9.29-.11-1.48-.45-2.95-.72-4.42-.05-.28-.27-.53-.51-.97-.66,.46-1.33,.8-1.82,1.3-3.42,3.49-6.4,7.3-8.47,11.76-.37,.79-.69,1.66-.79,2.52-.14,1.3,0,2.63-.12,3.94-.1,1.06-.42,2.1-.64,3.15-.05,.26-.08,.53-.19,.76-.24,.53-.41,1.32-.82,1.48-.58,.23-1.26,.78-2.09-.03-.54-.52-1.62-.44-2.42-.74-1.97-.73-3.86-1.4-5.36-3.15-1.71-2-2.21-4.32-2.9-6.66-.07-.24,0-.55,.06-.81,.75-3.05,1.56-6.09,2.26-9.16,.55-2.43,.95-4.89,1.45-7.33,.43-2.13,.81-4.28,1.41-6.36,.27-.92,1-1.72,1.56-2.55,.43-.64,.91-1.25,1.37-1.87,.51-.7,1.07-.67,1.63-.09,.94,.97,1.69,2.27,2.82,2.85,1.72,.88,1.28,2.79,2.37,3.88-.34,2.03,.56,4.14-.45,6.13-1.24,2.44-2.39,4.91-2.32,7.74-1.03,1.04-.62,2.28-.42,3.45,.09,.56,.52,1.52,.78,1.52,.65-.01,1.53-.29,1.89-.78,1.47-2,2.79-4.12,4.14-6.21,1.28-1.98,2.55-3.97,3.78-5.98,.4-.66,.76-1.38,.95-2.12,.62-2.44,4.27-3.72,6.39-2.07,.18,.14,.38,.29,.59,.36,1.05,.34,2.09,.66,2.26,2,.13,1.01,.45,2.02,.45,3.03-.01,2.72-.21,5.43-.23,8.15-.01,1.94,.13,3.88,.24,5.82,.04,.67,.18,1.34,.3,2,.39,2.24-.34,4.53,.45,6.81,.41,1.19,.02,2.66-.05,4-.05,.85-.1,1.71-.3,2.53-.19,.79-.47,1.6-.91,2.27-.88,1.32-1.8,2.64-2.89,3.79-.63,.66-1.57,1.2-2.46,1.4-.71,.16-1.57-.21-2.32-.46-1.21-.4-3.62,.35-4.4,1.38-.2,.26-.61,.39-.96,.49-1.94,.55-3.24,2.01-4.7,3.26-.68,.59-1.48,1.05-2.22,1.56-.53,.37-1.08,.71-1.6,1.1-.83,.61-1.63,1.25-2.45,1.88-.12-.15-.23-.29-.35-.44Z"/><path class="cls-1" d="M165.78,21.91c.62,.35,1.14,.63,1.7,.95-.4,.6-.8,1.2-1.17,1.75,.53,.04,1.2,.08,1.87,.13-.01,.05-.02,.1-.03,.15-1.16,.07-2.33,.05-3.48,.23-2.61,.42-5.21,.94-7.82,1.43-.04,0-.08,0-.11,.02-.54,.29-1.45,.5-1.54,.9-.25,1.05-.71,2.18,.53,3.17,1.4,1.12,1.91,2.87,2.64,4.5,1.11,2.49,.62,5.17,1.45,7.64,.14,.4,.21,.84,.42,1.2,.81,1.37,.76,2.71-.29,3.85-1.36,1.47-1.62,3.29-1.98,5.12-.29,1.48-.68,2.94-1.25,4.32-.23-2.41-.44-4.83-.69-7.24-.11-1.06-.56-1.73-1.82-1.55-1.44,.2-2.89,.35-4.34,.42-.8,.04-1.63-.06-2.42-.22-1.2-.24-2.4-.51-3.55-.91-.5-.18-.83-.8-1.32-1.07-1.77-.97-3.29-2.26-4.14-4.05-.37-.78-.09-1.96,.14-2.89,.19-.79,.69-1.52,1.13-2.23,.87-1.4,1.79-2.77,2.72-4.13,.63-.92,1.32-1.8,1.95-2.72,1.09-1.59,2.81-1.67,4.45-1.83,.87-.08,1.76,.13,2.64,.14,.28,0,.56-.24,.84-.37-.21-.41-.37-1.12-.64-1.16-1.14-.18-2.32-.2-3.48-.21-2.75-.01-5.49,.02-8.24,.02-.39,0-.81-.14-1.16-.03-1.69,.56-3.23-.19-4.85-.35-2.07-.21-3.38-1.28-4.7-2.57-1.14-1.11-2.36-2.16-3.35-3.4-1.71-2.13-1.42-4.16,.46-6.05,.35-.35,1.11-.58,1.59-.47,.9,.2,1.8,.59,2.58,1.1,1.5,.97,2.94,1.96,4.84,1.99,.62,0,1.23,.47,1.86,.51,3.64,.22,7.29,.41,10.94,.53,1.03,.03,2.07-.16,3.09-.33,.21-.04,.49-.41,.53-.66,.14-1.03,.22-2.07,.27-3.1,.05-1.05,.02-2.1,.07-3.15,.06-1.2,.59-2.13,1.82-2.38,.55-.11,1.34-.14,1.71,.16,.38,.31,.6,1.12,.52,1.64-.2,1.26-.67,2.47-.94,3.72-.67,3.04-.18,3.52,2.8,2.81,.56-.13,1.1-.47,1.66-.49,.84-.03,1.8-.09,2.52,.26,1.68,.8,3.27,1.8,4.86,2.78,.49,.3,.65,.77-.07,1.16-.42,.23-.77,.6-1.22,.97Zm-19.7,20.12c.1,0,.19,0,.29,.01,.06,.79-.01,1.62,.21,2.37,.15,.5,.72,1.24,1.09,1.24,1.94-.04,3.97,.13,5.54-1.45,.44-.44,.48-.78,.18-1.31-.61-1.07-1.08-2.23-1.77-3.24-.55-.81-1.25-1.65-2.08-2.1-.62-.33-1.56-.07-2.5-.07-.38,.7,1.11,1.78-.14,2.62-.17-.35-.3-.64-.46-.97-1.06,1.6-1.32,3.79-.54,5.16,.07-.84,.13-1.55,.18-2.25Z"/><path class="cls-1" d="M333.24,19.89c-.43,.52-.84,1.05-1.29,1.56-.74,.84-1.52,1.64-2.24,2.5-1.13,1.34-.69,2.53,1.01,2.82,3.25,.55,6.51,1.03,9.75,1.66,1.56,.31,3.07,.62,4.65,.17,.35-.1,.84,.09,1.21,.26,2.88,1.3,5.76,2.6,8.62,3.96,.57,.27,1.03,.77,1.61,1.22-1.08,1.1-.43,3-2.3,3.55,1.93,1.42-.3,2.07-.42,3.12-3.55,.41-6.94-.65-10.39-1.19-1.11-.17-2.22-.4-3.32-.66-.47-.11-.88-.43-1.35-.58-.46-.14-1.09-.42-1.4-.23-1.76,1.02-3.28,.15-4.81-.51-.53-.23-.96-.71-1.42-1.09-.15-.12-.24-.35-.4-.41-1.25-.49-2.51-.96-3.94-1.49-.06,.61-.18,1.03-.13,1.42,.31,2.54,.04,5.15,1.3,7.59,.6,1.16,.58,2.63,.88,3.96,.08,.36,.33,.68,.49,1.02,.24,.51,.58,1.01,.67,1.55,.16,.95,.26,1.92,.22,2.88-.08,1.76-1.11,3.1-2.18,4.39-.31,.37-.69,.67-1.17,1.13-.31-.33-.81-.7-1.1-1.19-1.17-2-2.32-4.03-3.41-6.08-.92-1.73-1.33-3.49-1.14-5.57,.3-3.32,.05-6.68,.03-10.03-.02-3.06-.03-6.11-.06-9.17,0-.62-.14-1.24-.16-1.86-.02-.8,.02-1.61,.04-2.41,0-.12,.05-.23,.04-.35-.15-3.3-.34-6.59-.41-9.89-.01-.72,.24-1.64,.72-2.14,.95-1.02,1.99-2.12,3.66-1.86,.26,.04,.54-.01,.8-.05,2.63-.4,5.02,1.08,6.32,3.48,.77,1.43,1.43,2.86,1.69,4.42,.16,.96-.06,1.99-.14,2.98-.04,.42-.17,.83-.26,1.24-.09-.03-.19-.05-.28-.08Z"/><path class="cls-1" d="M299.98,24.45c-1.25,.61-2.49,1.21-3.74,1.82-.17,.08-.31,.26-.48,.29-2.78,.53-5.05,2.1-7.4,3.53-1.22,.74-2.56,1.29-4.06,.72-.07-.03-.18-.07-.22-.04-1.51,1.08-1.99-.48-2.88-1.09-1.43-.98-2.97-1.82-4.38-2.84-1.19-.85-2.36-1.77-3.36-2.83-1.37-1.45-2.02-3.2-1.4-5.23,.07-.21,.16-.47,.32-.6,1.13-.89,1.71-2.82,3.52-2.4,1.5,.35,3.28-.26,4.49,1.19,.1,.12,.36,.14,.55,.15,2.07,.02,4.13,.04,6.2,.02,3.14-.03,6.3,.11,9.42-.19,3.38-.33,6.5,.82,9.75,1.21,1.46,.18,2.52,1.17,3.33,2.38,.37,.55,.75,1.1,1.03,1.69,.27,.58,.41,1.22,.6,1.84-.09,.04-.19,.08-.28,.13,.38,.15,.76,.29,1.16,.44-.5,.38-1.19,.64-1.29,1.05-.14,.53,.19,1.19,.33,1.86-.45,.12-.81,.26-1.18,.31-1.59,.21-3,.7-4.02,2.06-.27,.36-.82,.52-1.25,.77-.1,.06-.32,.07-.32,.09,.06,1.24-1.24,1.04-1.76,1.67-1.77,2.16-3.57,4.3-5.34,6.45-.32,.39-.6,.82-.85,1.25-.91,1.6-.65,2.57,.92,3.61,.21,.14,.38,.36,.52,.57,.58,.86,1.26,1.68,1.68,2.61,.45,1,.8,2.09,.9,3.17,.03,.38-.82,.83-1.33,1.31,.16,1.25-.85,2.16-2.22,1.76-3.97-1.15-7.23-3.29-9.5-6.84-1.12-1.75-2.23-3.55-3.59-5.11-1.57-1.8-1.34-3.95-1.61-6.01-.1-.77,.63-1.29,1.44-1.12,.82,.18,1.67,.45,2.36,.9,1.36,.88,2.62,1.9,3.91,2.88,1.03,.78,2.04,.67,2.69-.39,.69-1.12,1.18-2.38,2-3.38,2.23-2.73,3.39-6.07,5.35-8.94,.08-.12,.1-.29,.15-.44-.05-.11-.11-.21-.16-.32Z"/><path class="cls-1" d="M193.04,30.05c1.21-.58,2.49-1.17,3.75-1.81,.83-.42,.78-1.07,.33-1.75-.45-.68-.92-1.34-1.51-2.21-.31,.48-.59,.93-.88,1.38-.14-.1-.27-.2-.41-.3,.24-.43,.42-.91,.74-1.27,.46-.51,.49-1.03,.01-1.41-.32-.25-.91-.42-1.27-.3-.59,.2-1.1,.66-1.62,1.03-1.33,.95-2.62,1.95-3.98,2.85-.99,.65-2.03,1.04-3.31,1.12-1.19,.08-2.35,.27-3.47-.17-.99-.39-1.96-.85-2.87-1.4-1.04-.64-2.23-1.24-2.94-2.17-.85-1.12-1.39-2.53-1.83-3.89-.47-1.46,.67-2.73,2.24-2.72,1.39,.01,2.79,0,4.18,.05,1.86,.08,3.53-.53,5.26-1.11,1.68-.56,3.47-.78,5.22-1.1,2.43-.44,1.93-.43,2.16-2.71,.15-1.5,.5-2.99,.75-4.48l.53-.05c.24,.52,.5,1.04,.73,1.57,.47,1.09,.92,2.19,1.4,3.27,.3,.69,.85,.84,1.54,.66,.74-.19,1.49-.4,2.23-.57,1.1-.25,2.01-.07,3.04,.57,1.05,.66,1.81,1.33,2.18,2.49,.04,.13,.44,.14,.78,.24-.29,.19-.71,.33-.73,.51-.24,2.43-2.46,2.13-3.91,2.75-1.55,.66-1.88,.75-1.6,2.35,.19,1.14,.76,2.21,1.16,3.31,.13-.01,.27-.03,.4-.04,.39-.52,.78-1.04,1.35-1.79,.28,.69,.63,1.14,.6,1.57-.05,.94,.27,1.75,.48,2.63,.54,2.29,1.18,4.41,3.02,6.06,.78,.7,1.33,1.72,1.77,2.7,.58,1.27-.61,3.31-2.08,3.73-.6,.17-1.26,.16-1.88,.28-.38,.07-.76,.19-1.1,.36-.82,.4-1.59,.9-2.42,1.27-.8,.35-1.66,.58-2.49,.88-.79,.29-1.58,.6-2.56,.69,.2-.22,.36-.53,.61-.64,2.51-1.1,4.39-2.96,6.21-4.92,.56-.61,.5-1.16,0-1.75-.15-.17-.27-.38-.41-.57-1.94-2.46-1.72-1.93-4.14-.66-1.42,.75-3.34,1.16-4.9,.9-1.67-.28-2.87-1.79-3.08-3.69-.06-.52,0-1.11,.19-1.59,.56-1.37,1.41-1.48,2.52-.17Z"/><path class="cls-1" d="M192.44,45.48c.28,.39,.4,.71,.63,.87,2,1.4,3.59,3.14,4.22,5.55,.15,.57,.16,1.33-.1,1.84-.71,1.4-1.54,2.33-3.47,2.62-2.69,.4-5.27,.43-7.88-.11-.37-.08-.87-.51-.95-.87-.24-1.09-1.33-.7-1.88-1.23-1.04-1-2.16-1.7-2.26-3.56-.08-1.52,.26-2.88,.41-4.31,.11-1,2.38-2.34,3.53-2.07,1.39,.32,2.76,.7,4.14,1.03,.2,.05,.45-.11,.65-.07,.5,.11,1.02,.21,1.49,.43,.52,.24,1,.69,1.47-.13Z"/><path class="cls-1" d="M207.89,16.08c.15-1.45,.77-2.88,2.04-3.44,1.25-.56,2.68-.58,4.18,.25,1.84,1.01,2.13,2.63,2.58,4.28,.12,.44,0,.97-.12,1.44-.33,1.4,.21,3-.89,4.22-.21,.23-.52,.51-.79,.52-.89,.04-1.79-.05-2.69-.08-1.3-.04-1.87-.51-2.22-1.78-.11-.4-.27-.81-.5-1.16-.3-.45-.85-.78-.99-1.26-.3-.95-.39-1.97-.58-2.99Z"/><path class="cls-1" d="M217.48,14.36c.05-1.68,.64-2.67,1.67-2.9,1.65-.36,2.46-.17,3.4,1.06,1.17,1.51,.95,3,.58,4.57-.32,1.37-1.68,1.81-2.89,1.04-1.54-.97-2.53-2.29-2.76-3.76Z"/><g><path class="cls-1" d="M355.8,53.96c0,3.14-2.46,5.59-5.63,5.6-3.23,.01-5.77-2.48-5.74-5.63,.04-3.15,2.49-5.51,5.71-5.5,3.24,0,5.66,2.37,5.66,5.53Zm-5.65,4.36c2.37,0,4.24-1.94,4.22-4.36-.02-2.44-1.88-4.35-4.24-4.36-2.43-.01-4.32,1.95-4.27,4.43,.05,2.46,1.89,4.3,4.29,4.29Z"/><path class="cls-1" d="M351.96,54.34c.2,.59,.5,1.49,.81,2.41-1.08,.39-1.58,.08-1.71-.95-.13-.97-.75-1.27-1.73-1.08-.03,.69-.06,1.35-.09,2.05-1.06,.38-1.49,.06-1.29-1.44,.13-.92,.15-1.86,0-2.78-.16-1.03,.07-1.47,.89-1.47,.58,0,1.17-.03,1.75-.02,.83,.02,1.68,.25,1.84,1.11,.11,.6-.27,1.29-.48,2.17Zm-2.62-.55c.64-.22,1.17-.37,1.65-.61,.09-.05,.08-.65-.03-.71-.47-.23-1-.35-1.62-.55v1.87Z"/></g></g></g></svg>